G04 #@! TF.FileFunction,Legend,Top*
%FSLAX46Y46*%
G04 Gerber Fmt 4.6, Leading zero omitted, Abs format (unit mm)*
G04 Created by KiCad (PCBNEW 4.0.7) date 04/07/18 18:35:28*
%MOMM*%
%LPD*%
G01*
G04 APERTURE LIST*
%ADD10C,0.100000*%
%ADD11C,0.150000*%
%ADD12C,0.200000*%
%ADD13C,0.350000*%
%ADD14C,0.120000*%
%ADD15C,0.250000*%
G04 APERTURE END LIST*
D10*
D11*
X43488096Y3000000D02*
X43392858Y3047619D01*
X43250001Y3047619D01*
X43107143Y3000000D01*
X43011905Y2904762D01*
X42964286Y2809524D01*
X42916667Y2619048D01*
X42916667Y2476190D01*
X42964286Y2285714D01*
X43011905Y2190476D01*
X43107143Y2095238D01*
X43250001Y2047619D01*
X43345239Y2047619D01*
X43488096Y2095238D01*
X43535715Y2142857D01*
X43535715Y2476190D01*
X43345239Y2476190D01*
X43964286Y2047619D02*
X43964286Y3047619D01*
X44535715Y2047619D01*
X44535715Y3047619D01*
X45011905Y2047619D02*
X45011905Y3047619D01*
X45250000Y3047619D01*
X45392858Y3000000D01*
X45488096Y2904762D01*
X45535715Y2809524D01*
X45583334Y2619048D01*
X45583334Y2476190D01*
X45535715Y2285714D01*
X45488096Y2190476D01*
X45392858Y2095238D01*
X45250000Y2047619D01*
X45011905Y2047619D01*
X10904762Y21285714D02*
X10952381Y21380952D01*
X10952381Y21571428D01*
X10904762Y21666667D01*
X10809524Y21714286D01*
X10761905Y21714286D01*
X10666667Y21666667D01*
X10619048Y21571428D01*
X10619048Y21428571D01*
X10571429Y21333333D01*
X10476190Y21285714D01*
X10428571Y21285714D01*
X10333333Y21333333D01*
X10285714Y21428571D01*
X10285714Y21571428D01*
X10333333Y21666667D01*
X10428571Y22476191D02*
X10476190Y22619048D01*
X10523810Y22666667D01*
X10619048Y22714286D01*
X10761905Y22714286D01*
X10857143Y22666667D01*
X10904762Y22619048D01*
X10952381Y22523810D01*
X10952381Y22142857D01*
X9952381Y22142857D01*
X9952381Y22476191D01*
X10000000Y22571429D01*
X10047619Y22619048D01*
X10142857Y22666667D01*
X10238095Y22666667D01*
X10333333Y22619048D01*
X10380952Y22571429D01*
X10428571Y22476191D01*
X10428571Y22142857D01*
X12904762Y21357143D02*
X12952381Y21452381D01*
X12952381Y21642857D01*
X12904762Y21738096D01*
X12809524Y21785715D01*
X12761905Y21785715D01*
X12666667Y21738096D01*
X12619048Y21642857D01*
X12619048Y21500000D01*
X12571429Y21404762D01*
X12476190Y21357143D01*
X12428571Y21357143D01*
X12333333Y21404762D01*
X12285714Y21500000D01*
X12285714Y21642857D01*
X12333333Y21738096D01*
X12666667Y22166667D02*
X12666667Y22642858D01*
X12952381Y22071429D02*
X11952381Y22404762D01*
X12952381Y22738096D01*
X22678571Y22952382D02*
X22726190Y23095239D01*
X22773810Y23142858D01*
X22869048Y23190477D01*
X23011905Y23190477D01*
X23107143Y23142858D01*
X23154762Y23095239D01*
X23202381Y23000001D01*
X23202381Y22619048D01*
X22202381Y22619048D01*
X22202381Y22952382D01*
X22250000Y23047620D01*
X22297619Y23095239D01*
X22392857Y23142858D01*
X22488095Y23142858D01*
X22583333Y23095239D01*
X22630952Y23047620D01*
X22678571Y22952382D01*
X22678571Y22619048D01*
X22821429Y23619048D02*
X22821429Y24380953D01*
X31916667Y22642857D02*
X31916667Y23119048D01*
X32202381Y22547619D02*
X31202381Y22880952D01*
X32202381Y23214286D01*
X31821429Y23547619D02*
X31821429Y24309524D01*
X32202381Y23928572D02*
X31440476Y23928572D01*
X29178571Y21702382D02*
X29226190Y21845239D01*
X29273810Y21892858D01*
X29369048Y21940477D01*
X29511905Y21940477D01*
X29607143Y21892858D01*
X29654762Y21845239D01*
X29702381Y21750001D01*
X29702381Y21369048D01*
X28702381Y21369048D01*
X28702381Y21702382D01*
X28750000Y21797620D01*
X28797619Y21845239D01*
X28892857Y21892858D01*
X28988095Y21892858D01*
X29083333Y21845239D01*
X29130952Y21797620D01*
X29178571Y21702382D01*
X29178571Y21369048D01*
X29321429Y22369048D02*
X29321429Y23130953D01*
X29702381Y22750001D02*
X28940476Y22750001D01*
X25416667Y21642857D02*
X25416667Y22119048D01*
X25702381Y21547619D02*
X24702381Y21880952D01*
X25702381Y22214286D01*
X25321429Y22547619D02*
X25321429Y23309524D01*
X8904762Y20190476D02*
X8952381Y20333333D01*
X8952381Y20571429D01*
X8904762Y20666667D01*
X8857143Y20714286D01*
X8761905Y20761905D01*
X8666667Y20761905D01*
X8571429Y20714286D01*
X8523810Y20666667D01*
X8476190Y20571429D01*
X8428571Y20380952D01*
X8380952Y20285714D01*
X8333333Y20238095D01*
X8238095Y20190476D01*
X8142857Y20190476D01*
X8047619Y20238095D01*
X8000000Y20285714D01*
X7952381Y20380952D01*
X7952381Y20619048D01*
X8000000Y20761905D01*
X8952381Y21190476D02*
X7952381Y21190476D01*
X8428571Y21190476D02*
X8428571Y21761905D01*
X8952381Y21761905D02*
X7952381Y21761905D01*
X8952381Y22238095D02*
X7952381Y22238095D01*
X7952381Y22476190D01*
X8000000Y22619048D01*
X8095238Y22714286D01*
X8190476Y22761905D01*
X8380952Y22809524D01*
X8523810Y22809524D01*
X8714286Y22761905D01*
X8809524Y22714286D01*
X8904762Y22619048D01*
X8952381Y22476190D01*
X8952381Y22238095D01*
X34226191Y10047619D02*
X34559524Y9047619D01*
X34892858Y10047619D01*
X35226191Y9047619D02*
X35226191Y9714286D01*
X35226191Y10047619D02*
X35178572Y10000000D01*
X35226191Y9952381D01*
X35273810Y10000000D01*
X35226191Y10047619D01*
X35226191Y9952381D01*
X35845238Y9047619D02*
X35750000Y9095238D01*
X35702381Y9142857D01*
X35654762Y9238095D01*
X35654762Y9523810D01*
X35702381Y9619048D01*
X35750000Y9666667D01*
X35845238Y9714286D01*
X35988096Y9714286D01*
X36083334Y9666667D01*
X36130953Y9619048D01*
X36178572Y9523810D01*
X36178572Y9238095D01*
X36130953Y9142857D01*
X36083334Y9095238D01*
X35988096Y9047619D01*
X35845238Y9047619D01*
X40250000Y9488096D02*
X40202381Y9392858D01*
X40202381Y9250001D01*
X40250000Y9107143D01*
X40345238Y9011905D01*
X40440476Y8964286D01*
X40630952Y8916667D01*
X40773810Y8916667D01*
X40964286Y8964286D01*
X41059524Y9011905D01*
X41154762Y9107143D01*
X41202381Y9250001D01*
X41202381Y9345239D01*
X41154762Y9488096D01*
X41107143Y9535715D01*
X40773810Y9535715D01*
X40773810Y9345239D01*
X41202381Y9964286D02*
X40202381Y9964286D01*
X41202381Y10535715D01*
X40202381Y10535715D01*
X41202381Y11011905D02*
X40202381Y11011905D01*
X40202381Y11250000D01*
X40250000Y11392858D01*
X40345238Y11488096D01*
X40440476Y11535715D01*
X40630952Y11583334D01*
X40773810Y11583334D01*
X40964286Y11535715D01*
X41059524Y11488096D01*
X41154762Y11392858D01*
X41202381Y11250000D01*
X41202381Y11011905D01*
X37638095Y11947619D02*
X37638095Y12947619D01*
X38209524Y11947619D02*
X37780952Y12519048D01*
X38209524Y12947619D02*
X37638095Y12376190D01*
X37661905Y17133333D02*
X38138096Y17133333D01*
X37566667Y16847619D02*
X37900000Y17847619D01*
X38233334Y16847619D01*
X39738095Y23297619D02*
X39738095Y24297619D01*
X40309524Y23297619D02*
X39880952Y23869048D01*
X40309524Y24297619D02*
X39738095Y23726190D01*
X37761905Y23583333D02*
X38238096Y23583333D01*
X37666667Y23297619D02*
X38000000Y24297619D01*
X38333334Y23297619D01*
X6785714Y9107143D02*
X7452381Y9345238D01*
X6785714Y9583334D01*
X7452381Y10392858D02*
X6452381Y10392858D01*
X7404762Y10392858D02*
X7452381Y10297620D01*
X7452381Y10107143D01*
X7404762Y10011905D01*
X7357143Y9964286D01*
X7261905Y9916667D01*
X6976190Y9916667D01*
X6880952Y9964286D01*
X6833333Y10011905D01*
X6785714Y10107143D01*
X6785714Y10297620D01*
X6833333Y10392858D01*
X7452381Y11297620D02*
X6452381Y11297620D01*
X7404762Y11297620D02*
X7452381Y11202382D01*
X7452381Y11011905D01*
X7404762Y10916667D01*
X7357143Y10869048D01*
X7261905Y10821429D01*
X6976190Y10821429D01*
X6880952Y10869048D01*
X6833333Y10916667D01*
X6785714Y11011905D01*
X6785714Y11202382D01*
X6833333Y11297620D01*
X15535714Y7595238D02*
X16535714Y7595238D01*
X15583333Y7595238D02*
X15535714Y7690476D01*
X15535714Y7880953D01*
X15583333Y7976191D01*
X15630952Y8023810D01*
X15726190Y8071429D01*
X16011905Y8071429D01*
X16107143Y8023810D01*
X16154762Y7976191D01*
X16202381Y7880953D01*
X16202381Y7690476D01*
X16154762Y7595238D01*
X15535714Y8404762D02*
X16202381Y8595238D01*
X15726190Y8785715D01*
X16202381Y8976191D01*
X15535714Y9166667D01*
X16202381Y9547619D02*
X15535714Y9547619D01*
X15630952Y9547619D02*
X15583333Y9595238D01*
X15535714Y9690476D01*
X15535714Y9833334D01*
X15583333Y9928572D01*
X15678571Y9976191D01*
X16202381Y9976191D01*
X15678571Y9976191D02*
X15583333Y10023810D01*
X15535714Y10119048D01*
X15535714Y10261905D01*
X15583333Y10357143D01*
X15678571Y10404762D01*
X16202381Y10404762D01*
X10404762Y10976191D02*
X10452381Y10880953D01*
X10452381Y10690476D01*
X10404762Y10595238D01*
X10357143Y10547619D01*
X10261905Y10500000D01*
X9976190Y10500000D01*
X9880952Y10547619D01*
X9833333Y10595238D01*
X9785714Y10690476D01*
X9785714Y10880953D01*
X9833333Y10976191D01*
X10452381Y11547619D02*
X10404762Y11452381D01*
X10309524Y11404762D01*
X9452381Y11404762D01*
X12452381Y11011905D02*
X11452381Y11011905D01*
X12404762Y11011905D02*
X12452381Y10916667D01*
X12452381Y10726190D01*
X12404762Y10630952D01*
X12357143Y10583333D01*
X12261905Y10535714D01*
X11976190Y10535714D01*
X11880952Y10583333D01*
X11833333Y10630952D01*
X11785714Y10726190D01*
X11785714Y10916667D01*
X11833333Y11011905D01*
X12452381Y11916667D02*
X11928571Y11916667D01*
X11833333Y11869048D01*
X11785714Y11773810D01*
X11785714Y11583333D01*
X11833333Y11488095D01*
X12404762Y11916667D02*
X12452381Y11821429D01*
X12452381Y11583333D01*
X12404762Y11488095D01*
X12309524Y11440476D01*
X12214286Y11440476D01*
X12119048Y11488095D01*
X12071429Y11583333D01*
X12071429Y11821429D01*
X12023810Y11916667D01*
X43226191Y8047619D02*
X43559524Y7047619D01*
X43892858Y8047619D01*
X44226191Y7047619D02*
X44226191Y7714286D01*
X44226191Y8047619D02*
X44178572Y8000000D01*
X44226191Y7952381D01*
X44273810Y8000000D01*
X44226191Y8047619D01*
X44226191Y7952381D01*
X44702381Y7714286D02*
X44702381Y7047619D01*
X44702381Y7619048D02*
X44750000Y7666667D01*
X44845238Y7714286D01*
X44988096Y7714286D01*
X45083334Y7666667D01*
X45130953Y7571429D01*
X45130953Y7047619D01*
X26238095Y3547619D02*
X26238095Y4547619D01*
X26809524Y3547619D02*
X26380952Y4119048D01*
X26809524Y4547619D02*
X26238095Y3976190D01*
X26261905Y8833333D02*
X26738096Y8833333D01*
X26166667Y8547619D02*
X26500000Y9547619D01*
X26833334Y8547619D01*
D12*
X2428571Y10321429D02*
X2428571Y9607143D01*
X928571Y9607143D01*
X1642857Y10821429D02*
X1642857Y11321429D01*
X2428571Y11535715D02*
X2428571Y10821429D01*
X928571Y10821429D01*
X928571Y11535715D01*
X2428571Y12178572D02*
X928571Y12178572D01*
X928571Y12535715D01*
X1000000Y12750000D01*
X1142857Y12892858D01*
X1285714Y12964286D01*
X1571429Y13035715D01*
X1785714Y13035715D01*
X2071429Y12964286D01*
X2214286Y12892858D01*
X2357143Y12750000D01*
X2428571Y12535715D01*
X2428571Y12178572D01*
X2285714Y15678572D02*
X2357143Y15607143D01*
X2428571Y15392857D01*
X2428571Y15250000D01*
X2357143Y15035715D01*
X2214286Y14892857D01*
X2071429Y14821429D01*
X1785714Y14750000D01*
X1571429Y14750000D01*
X1285714Y14821429D01*
X1142857Y14892857D01*
X1000000Y15035715D01*
X928571Y15250000D01*
X928571Y15392857D01*
X1000000Y15607143D01*
X1071429Y15678572D01*
X1428571Y16107143D02*
X1428571Y16678572D01*
X928571Y16321429D02*
X2214286Y16321429D01*
X2357143Y16392857D01*
X2428571Y16535715D01*
X2428571Y16678572D01*
X2428571Y17178572D02*
X1428571Y17178572D01*
X1714286Y17178572D02*
X1571429Y17250000D01*
X1500000Y17321429D01*
X1428571Y17464286D01*
X1428571Y17607143D01*
X2428571Y18321429D02*
X2357143Y18178571D01*
X2214286Y18107143D01*
X928571Y18107143D01*
X1071429Y19964285D02*
X1000000Y20035714D01*
X928571Y20178571D01*
X928571Y20535714D01*
X1000000Y20678571D01*
X1071429Y20750000D01*
X1214286Y20821428D01*
X1357143Y20821428D01*
X1571429Y20750000D01*
X2428571Y19892857D01*
X2428571Y20821428D01*
X2285714Y21464285D02*
X2357143Y21535713D01*
X2428571Y21464285D01*
X2357143Y21392856D01*
X2285714Y21464285D01*
X2428571Y21464285D01*
X2428571Y22964285D02*
X2428571Y22107142D01*
X2428571Y22535714D02*
X928571Y22535714D01*
X1142857Y22392857D01*
X1285714Y22249999D01*
X1357143Y22107142D01*
D11*
X10600000Y16850000D02*
X11500000Y16850000D01*
D13*
X12000000Y16750000D02*
X12000000Y14750000D01*
D14*
X40550000Y17250000D02*
X40550000Y13000000D01*
X38450000Y17250000D02*
X38450000Y13000000D01*
X40550000Y17250000D02*
X38450000Y17250000D01*
X13275000Y26025000D02*
X14550000Y26025000D01*
X14550000Y26025000D02*
X14550000Y24425000D01*
X14550000Y24425000D02*
X15550000Y24425000D01*
X15550000Y24425000D02*
X15550000Y28650000D01*
X5450000Y28650000D02*
X5450000Y24425000D01*
X5450000Y24425000D02*
X6450000Y24425000D01*
X6450000Y24425000D02*
X6450000Y26025000D01*
X6450000Y26025000D02*
X7725000Y26025000D01*
X13825000Y32225000D02*
X7175000Y32225000D01*
X13275000Y26025000D02*
X13275000Y23125000D01*
X14650000Y11150000D02*
X13950000Y11150000D01*
X13950000Y12350000D02*
X14650000Y12350000D01*
X31750000Y9770000D02*
X29750000Y9770000D01*
X29750000Y7730000D02*
X31750000Y7730000D01*
X18020000Y10050000D02*
X18020000Y6450000D01*
X21480000Y6450000D02*
X21480000Y10050000D01*
X16150000Y18400000D02*
X16150000Y19100000D01*
X17350000Y19100000D02*
X17350000Y18400000D01*
X20900000Y17350000D02*
X20200000Y17350000D01*
X20200000Y18550000D02*
X20900000Y18550000D01*
X23420000Y18550000D02*
X23420000Y18050000D01*
X24480000Y18050000D02*
X24480000Y18550000D01*
X23230000Y18050000D02*
X23230000Y18550000D01*
X22170000Y18550000D02*
X22170000Y18050000D01*
X12850000Y13530000D02*
X12350000Y13530000D01*
X12350000Y12470000D02*
X12850000Y12470000D01*
D15*
X41160000Y31380000D02*
X41160000Y12280000D01*
X52550000Y31380000D02*
X52550000Y12280000D01*
D11*
X21900000Y17175000D02*
X17400000Y17175000D01*
X23025000Y11625000D02*
X17400000Y11625000D01*
X25950000Y3900000D02*
X25950000Y11080000D01*
X21850000Y3900000D02*
X21850000Y11100000D01*
D10*
X26440000Y5230000D02*
X26440000Y5530000D01*
X26440000Y5530000D02*
X25940000Y5530000D01*
X26440000Y5530000D02*
X26940000Y5530000D01*
X26440000Y5530000D02*
X26940000Y6330000D01*
X26940000Y6330000D02*
X25940000Y6330000D01*
X25940000Y6330000D02*
X26440000Y5530000D01*
X26440000Y6330000D02*
X26440000Y6730000D01*
D14*
X40400000Y22000000D02*
X40400000Y23000000D01*
X40400000Y23000000D02*
X38300000Y23000000D01*
X40400000Y22000000D02*
X38300000Y22000000D01*
X14800000Y18400000D02*
X14800000Y19100000D01*
X16000000Y19100000D02*
X16000000Y18400000D01*
D11*
X6100000Y20400000D02*
G75*
G03X6100000Y20400000I-1000000J0D01*
G01*
X6053972Y17274058D02*
X5093498Y17833516D01*
X5093498Y17833516D02*
X4133023Y18392974D01*
X4133023Y18392974D02*
X5092563Y18954069D01*
X5092563Y18954069D02*
X6052102Y19515164D01*
X6052102Y19515164D02*
X6053037Y18394611D01*
X6053037Y18394611D02*
X6053972Y17274058D01*
X-193900000Y117700000D02*
X-193900000Y117700000D01*
X4139915Y21805121D02*
X5609028Y21805121D01*
X5609028Y21805121D02*
X5425012Y21621518D01*
X5425012Y21621518D02*
X5514819Y21531435D01*
X5514819Y21531435D02*
X6058612Y22074004D01*
X6058612Y22074004D02*
X5968805Y22164098D01*
X5968805Y22164098D02*
X5793030Y21988710D01*
X5793030Y21988710D02*
X5793030Y22431318D01*
X5793030Y22431318D02*
X5865392Y22431318D01*
X5865392Y22431318D02*
X5865392Y23199697D01*
X5865392Y23199697D02*
X5577249Y23199697D01*
X5577249Y23199697D02*
X5577249Y22431318D01*
X5577249Y22431318D02*
X5664968Y22431318D01*
X5664968Y22431318D02*
X5664968Y21933184D01*
X5664968Y21933184D02*
X4139915Y21933184D01*
X4139915Y21933184D02*
X4139915Y21805121D01*
X-193900000Y117600000D02*
X-193900000Y117600000D01*
X-193900000Y117600000D02*
X-193900000Y117600000D01*
D14*
X19760000Y23620000D02*
X19760000Y24550000D01*
X19760000Y26780000D02*
X19760000Y25850000D01*
X19760000Y26780000D02*
X17600000Y26780000D01*
X19760000Y23620000D02*
X18300000Y23620000D01*
X19760000Y27120000D02*
X19760000Y28050000D01*
X19760000Y30280000D02*
X19760000Y29350000D01*
X19760000Y30280000D02*
X17600000Y30280000D01*
X19760000Y27120000D02*
X18300000Y27120000D01*
D15*
X36650000Y11300000D02*
X35650000Y10300000D01*
X26350000Y21150000D02*
X27850000Y21150000D01*
X36650000Y11250000D02*
X36650000Y21250000D01*
X26350000Y10100000D02*
X26350000Y21100000D01*
D14*
X31025000Y26025000D02*
X32300000Y26025000D01*
X32300000Y26025000D02*
X32300000Y24425000D01*
X32300000Y24425000D02*
X33300000Y24425000D01*
X33300000Y24425000D02*
X33300000Y28650000D01*
X21200000Y28650000D02*
X21200000Y24425000D01*
X21200000Y24425000D02*
X22200000Y24425000D01*
X22200000Y24425000D02*
X22200000Y26025000D01*
X22200000Y26025000D02*
X23475000Y26025000D01*
X31575000Y32225000D02*
X22925000Y32225000D01*
X31025000Y26025000D02*
X31025000Y23125000D01*
X7725000Y7225000D02*
X6450000Y7225000D01*
X6450000Y7225000D02*
X6450000Y8825000D01*
X6450000Y8825000D02*
X5450000Y8825000D01*
X5450000Y8825000D02*
X5450000Y4600000D01*
X17550000Y4600000D02*
X17550000Y8825000D01*
X17550000Y8825000D02*
X16550000Y8825000D01*
X16550000Y8825000D02*
X16550000Y7225000D01*
X16550000Y7225000D02*
X15275000Y7225000D01*
X7175000Y1025000D02*
X15825000Y1025000D01*
X7725000Y7225000D02*
X7725000Y10125000D01*
X46525000Y3225000D02*
X46525000Y1950000D01*
X46525000Y1950000D02*
X44925000Y1950000D01*
X44925000Y1950000D02*
X44925000Y950000D01*
X44925000Y950000D02*
X49150000Y950000D01*
X49150000Y9050000D02*
X44925000Y9050000D01*
X44925000Y9050000D02*
X44925000Y8050000D01*
X44925000Y8050000D02*
X46525000Y8050000D01*
X46525000Y8050000D02*
X46525000Y6775000D01*
X52725000Y2675000D02*
X52725000Y7325000D01*
X46525000Y3225000D02*
X43625000Y3225000D01*
X36475000Y7225000D02*
X35200000Y7225000D01*
X35200000Y7225000D02*
X35200000Y8825000D01*
X35200000Y8825000D02*
X34200000Y8825000D01*
X34200000Y8825000D02*
X34200000Y4600000D01*
X42300000Y4600000D02*
X42300000Y8825000D01*
X42300000Y8825000D02*
X41300000Y8825000D01*
X41300000Y8825000D02*
X41300000Y7225000D01*
X41300000Y7225000D02*
X40025000Y7225000D01*
X35925000Y1025000D02*
X40575000Y1025000D01*
X36475000Y7225000D02*
X36475000Y10125000D01*
X8900000Y19100000D02*
X9600000Y19100000D01*
X9600000Y17900000D02*
X8900000Y17900000D01*
X15820000Y24000000D02*
X15820000Y25000000D01*
X17180000Y25000000D02*
X17180000Y24000000D01*
X15820000Y27500000D02*
X15820000Y28500000D01*
X17180000Y28500000D02*
X17180000Y27500000D01*
X39700000Y19920000D02*
X38700000Y19920000D01*
X38700000Y21280000D02*
X39700000Y21280000D01*
X6000000Y15980000D02*
X7000000Y15980000D01*
X7000000Y14620000D02*
X6000000Y14620000D01*
X6000000Y13830000D02*
X7000000Y13830000D01*
X7000000Y12470000D02*
X6000000Y12470000D01*
D11*
X9090476Y16838095D02*
X9090476Y16190476D01*
X9128571Y16114286D01*
X9166667Y16076190D01*
X9242857Y16038095D01*
X9395238Y16038095D01*
X9471429Y16076190D01*
X9509524Y16114286D01*
X9547619Y16190476D01*
X9547619Y16838095D01*
X9852381Y16838095D02*
X10347619Y16838095D01*
X10080952Y16533333D01*
X10195238Y16533333D01*
X10271428Y16495238D01*
X10309524Y16457143D01*
X10347619Y16380952D01*
X10347619Y16190476D01*
X10309524Y16114286D01*
X10271428Y16076190D01*
X10195238Y16038095D01*
X9966666Y16038095D01*
X9890476Y16076190D01*
X9852381Y16114286D01*
X38107143Y15083334D02*
X38154762Y15035715D01*
X38202381Y14892858D01*
X38202381Y14797620D01*
X38154762Y14654762D01*
X38059524Y14559524D01*
X37964286Y14511905D01*
X37773810Y14464286D01*
X37630952Y14464286D01*
X37440476Y14511905D01*
X37345238Y14559524D01*
X37250000Y14654762D01*
X37202381Y14797620D01*
X37202381Y14892858D01*
X37250000Y15035715D01*
X37297619Y15083334D01*
X37630952Y15654762D02*
X37583333Y15559524D01*
X37535714Y15511905D01*
X37440476Y15464286D01*
X37392857Y15464286D01*
X37297619Y15511905D01*
X37250000Y15559524D01*
X37202381Y15654762D01*
X37202381Y15845239D01*
X37250000Y15940477D01*
X37297619Y15988096D01*
X37392857Y16035715D01*
X37440476Y16035715D01*
X37535714Y15988096D01*
X37583333Y15940477D01*
X37630952Y15845239D01*
X37630952Y15654762D01*
X37678571Y15559524D01*
X37726190Y15511905D01*
X37821429Y15464286D01*
X38011905Y15464286D01*
X38107143Y15511905D01*
X38154762Y15559524D01*
X38202381Y15654762D01*
X38202381Y15845239D01*
X38154762Y15940477D01*
X38107143Y15988096D01*
X38011905Y16035715D01*
X37821429Y16035715D01*
X37726190Y15988096D01*
X37678571Y15940477D01*
X37630952Y15845239D01*
X4166667Y25547619D02*
X4166667Y24833333D01*
X4119047Y24690476D01*
X4023809Y24595238D01*
X3880952Y24547619D01*
X3785714Y24547619D01*
X4595238Y25452381D02*
X4642857Y25500000D01*
X4738095Y25547619D01*
X4976191Y25547619D01*
X5071429Y25500000D01*
X5119048Y25452381D01*
X5166667Y25357143D01*
X5166667Y25261905D01*
X5119048Y25119048D01*
X4547619Y24547619D01*
X5166667Y24547619D01*
X14333334Y12642857D02*
X14285715Y12595238D01*
X14142858Y12547619D01*
X14047620Y12547619D01*
X13904762Y12595238D01*
X13809524Y12690476D01*
X13761905Y12785714D01*
X13714286Y12976190D01*
X13714286Y13119048D01*
X13761905Y13309524D01*
X13809524Y13404762D01*
X13904762Y13500000D01*
X14047620Y13547619D01*
X14142858Y13547619D01*
X14285715Y13500000D01*
X14333334Y13452381D01*
X15190477Y13214286D02*
X15190477Y12547619D01*
X14952381Y13595238D02*
X14714286Y12880952D01*
X15333334Y12880952D01*
X31107143Y6508334D02*
X31154762Y6460715D01*
X31202381Y6317858D01*
X31202381Y6222620D01*
X31154762Y6079762D01*
X31059524Y5984524D01*
X30964286Y5936905D01*
X30773810Y5889286D01*
X30630952Y5889286D01*
X30440476Y5936905D01*
X30345238Y5984524D01*
X30250000Y6079762D01*
X30202381Y6222620D01*
X30202381Y6317858D01*
X30250000Y6460715D01*
X30297619Y6508334D01*
X30297619Y6889286D02*
X30250000Y6936905D01*
X30202381Y7032143D01*
X30202381Y7270239D01*
X30250000Y7365477D01*
X30297619Y7413096D01*
X30392857Y7460715D01*
X30488095Y7460715D01*
X30630952Y7413096D01*
X31202381Y6841667D01*
X31202381Y7460715D01*
X19583334Y4142857D02*
X19535715Y4095238D01*
X19392858Y4047619D01*
X19297620Y4047619D01*
X19154762Y4095238D01*
X19059524Y4190476D01*
X19011905Y4285714D01*
X18964286Y4476190D01*
X18964286Y4619048D01*
X19011905Y4809524D01*
X19059524Y4904762D01*
X19154762Y5000000D01*
X19297620Y5047619D01*
X19392858Y5047619D01*
X19535715Y5000000D01*
X19583334Y4952381D01*
X19916667Y5047619D02*
X20535715Y5047619D01*
X20202381Y4666667D01*
X20345239Y4666667D01*
X20440477Y4619048D01*
X20488096Y4571429D01*
X20535715Y4476190D01*
X20535715Y4238095D01*
X20488096Y4142857D01*
X20440477Y4095238D01*
X20345239Y4047619D01*
X20059524Y4047619D01*
X19964286Y4095238D01*
X19916667Y4142857D01*
X16533334Y20342857D02*
X16485715Y20295238D01*
X16342858Y20247619D01*
X16247620Y20247619D01*
X16104762Y20295238D01*
X16009524Y20390476D01*
X15961905Y20485714D01*
X15914286Y20676190D01*
X15914286Y20819048D01*
X15961905Y21009524D01*
X16009524Y21104762D01*
X16104762Y21200000D01*
X16247620Y21247619D01*
X16342858Y21247619D01*
X16485715Y21200000D01*
X16533334Y21152381D01*
X17438096Y21247619D02*
X16961905Y21247619D01*
X16914286Y20771429D01*
X16961905Y20819048D01*
X17057143Y20866667D01*
X17295239Y20866667D01*
X17390477Y20819048D01*
X17438096Y20771429D01*
X17485715Y20676190D01*
X17485715Y20438095D01*
X17438096Y20342857D01*
X17390477Y20295238D01*
X17295239Y20247619D01*
X17057143Y20247619D01*
X16961905Y20295238D01*
X16914286Y20342857D01*
X19133334Y18742857D02*
X19085715Y18695238D01*
X18942858Y18647619D01*
X18847620Y18647619D01*
X18704762Y18695238D01*
X18609524Y18790476D01*
X18561905Y18885714D01*
X18514286Y19076190D01*
X18514286Y19219048D01*
X18561905Y19409524D01*
X18609524Y19504762D01*
X18704762Y19600000D01*
X18847620Y19647619D01*
X18942858Y19647619D01*
X19085715Y19600000D01*
X19133334Y19552381D01*
X19990477Y19647619D02*
X19800000Y19647619D01*
X19704762Y19600000D01*
X19657143Y19552381D01*
X19561905Y19409524D01*
X19514286Y19219048D01*
X19514286Y18838095D01*
X19561905Y18742857D01*
X19609524Y18695238D01*
X19704762Y18647619D01*
X19895239Y18647619D01*
X19990477Y18695238D01*
X20038096Y18742857D01*
X20085715Y18838095D01*
X20085715Y19076190D01*
X20038096Y19171429D01*
X19990477Y19219048D01*
X19895239Y19266667D01*
X19704762Y19266667D01*
X19609524Y19219048D01*
X19561905Y19171429D01*
X19514286Y19076190D01*
X24333334Y19297619D02*
X24000000Y19773810D01*
X23761905Y19297619D02*
X23761905Y20297619D01*
X24142858Y20297619D01*
X24238096Y20250000D01*
X24285715Y20202381D01*
X24333334Y20107143D01*
X24333334Y19964286D01*
X24285715Y19869048D01*
X24238096Y19821429D01*
X24142858Y19773810D01*
X23761905Y19773810D01*
X25285715Y19297619D02*
X24714286Y19297619D01*
X25000000Y19297619D02*
X25000000Y20297619D01*
X24904762Y20154762D01*
X24809524Y20059524D01*
X24714286Y20011905D01*
X22333334Y19297619D02*
X22000000Y19773810D01*
X21761905Y19297619D02*
X21761905Y20297619D01*
X22142858Y20297619D01*
X22238096Y20250000D01*
X22285715Y20202381D01*
X22333334Y20107143D01*
X22333334Y19964286D01*
X22285715Y19869048D01*
X22238096Y19821429D01*
X22142858Y19773810D01*
X21761905Y19773810D01*
X22714286Y20202381D02*
X22761905Y20250000D01*
X22857143Y20297619D01*
X23095239Y20297619D01*
X23190477Y20250000D01*
X23238096Y20202381D01*
X23285715Y20107143D01*
X23285715Y20011905D01*
X23238096Y19869048D01*
X22666667Y19297619D01*
X23285715Y19297619D01*
X10583334Y12797619D02*
X10250000Y13273810D01*
X10011905Y12797619D02*
X10011905Y13797619D01*
X10392858Y13797619D01*
X10488096Y13750000D01*
X10535715Y13702381D01*
X10583334Y13607143D01*
X10583334Y13464286D01*
X10535715Y13369048D01*
X10488096Y13321429D01*
X10392858Y13273810D01*
X10011905Y13273810D01*
X10916667Y13797619D02*
X11535715Y13797619D01*
X11202381Y13416667D01*
X11345239Y13416667D01*
X11440477Y13369048D01*
X11488096Y13321429D01*
X11535715Y13226190D01*
X11535715Y12988095D01*
X11488096Y12892857D01*
X11440477Y12845238D01*
X11345239Y12797619D01*
X11059524Y12797619D01*
X10964286Y12845238D01*
X10916667Y12892857D01*
X2028572Y7571429D02*
X1695238Y7571429D01*
X1695238Y7047619D02*
X1695238Y8047619D01*
X2171429Y8047619D01*
X2552381Y7047619D02*
X2552381Y8047619D01*
X3028571Y7047619D02*
X3028571Y8047619D01*
X3266666Y8047619D01*
X3409524Y8000000D01*
X3504762Y7904762D01*
X3552381Y7809524D01*
X3600000Y7619048D01*
X3600000Y7476190D01*
X3552381Y7285714D01*
X3504762Y7190476D01*
X3409524Y7095238D01*
X3266666Y7047619D01*
X3028571Y7047619D01*
X4552381Y7047619D02*
X3980952Y7047619D01*
X4266666Y7047619D02*
X4266666Y8047619D01*
X4171428Y7904762D01*
X4076190Y7809524D01*
X3980952Y7761905D01*
X36928572Y25821429D02*
X36595238Y25821429D01*
X36595238Y25297619D02*
X36595238Y26297619D01*
X37071429Y26297619D01*
X37452381Y25297619D02*
X37452381Y26297619D01*
X37928571Y25297619D02*
X37928571Y26297619D01*
X38166666Y26297619D01*
X38309524Y26250000D01*
X38404762Y26154762D01*
X38452381Y26059524D01*
X38500000Y25869048D01*
X38500000Y25726190D01*
X38452381Y25535714D01*
X38404762Y25440476D01*
X38309524Y25345238D01*
X38166666Y25297619D01*
X37928571Y25297619D01*
X38880952Y26202381D02*
X38928571Y26250000D01*
X39023809Y26297619D01*
X39261905Y26297619D01*
X39357143Y26250000D01*
X39404762Y26202381D01*
X39452381Y26107143D01*
X39452381Y26011905D01*
X39404762Y25869048D01*
X38833333Y25297619D01*
X39452381Y25297619D01*
X678572Y25821429D02*
X345238Y25821429D01*
X345238Y25297619D02*
X345238Y26297619D01*
X821429Y26297619D01*
X1202381Y25297619D02*
X1202381Y26297619D01*
X1678571Y25297619D02*
X1678571Y26297619D01*
X1916666Y26297619D01*
X2059524Y26250000D01*
X2154762Y26154762D01*
X2202381Y26059524D01*
X2250000Y25869048D01*
X2250000Y25726190D01*
X2202381Y25535714D01*
X2154762Y25440476D01*
X2059524Y25345238D01*
X1916666Y25297619D01*
X1678571Y25297619D01*
X2583333Y26297619D02*
X3202381Y26297619D01*
X2869047Y25916667D01*
X3011905Y25916667D01*
X3107143Y25869048D01*
X3154762Y25821429D01*
X3202381Y25726190D01*
X3202381Y25488095D01*
X3154762Y25392857D01*
X3107143Y25345238D01*
X3011905Y25297619D01*
X2726190Y25297619D01*
X2630952Y25345238D01*
X2583333Y25392857D01*
X50166667Y10845238D02*
X50309524Y10797619D01*
X50547620Y10797619D01*
X50642858Y10845238D01*
X50690477Y10892857D01*
X50738096Y10988095D01*
X50738096Y11083333D01*
X50690477Y11178571D01*
X50642858Y11226190D01*
X50547620Y11273810D01*
X50357143Y11321429D01*
X50261905Y11369048D01*
X50214286Y11416667D01*
X50166667Y11511905D01*
X50166667Y11607143D01*
X50214286Y11702381D01*
X50261905Y11750000D01*
X50357143Y11797619D01*
X50595239Y11797619D01*
X50738096Y11750000D01*
X51071429Y11797619D02*
X51309524Y10797619D01*
X51500001Y11511905D01*
X51690477Y10797619D01*
X51928572Y11797619D01*
X52833334Y10797619D02*
X52261905Y10797619D01*
X52547619Y10797619D02*
X52547619Y11797619D01*
X52452381Y11654762D01*
X52357143Y11559524D01*
X52261905Y11511905D01*
X23488095Y12797619D02*
X23488095Y11988095D01*
X23535714Y11892857D01*
X23583333Y11845238D01*
X23678571Y11797619D01*
X23869048Y11797619D01*
X23964286Y11845238D01*
X24011905Y11892857D01*
X24059524Y11988095D01*
X24059524Y12797619D01*
X25059524Y11797619D02*
X24488095Y11797619D01*
X24773809Y11797619D02*
X24773809Y12797619D01*
X24678571Y12654762D01*
X24583333Y12559524D01*
X24488095Y12511905D01*
X23511905Y2547619D02*
X23511905Y3547619D01*
X23750000Y3547619D01*
X23892858Y3500000D01*
X23988096Y3404762D01*
X24035715Y3309524D01*
X24083334Y3119048D01*
X24083334Y2976190D01*
X24035715Y2785714D01*
X23988096Y2690476D01*
X23892858Y2595238D01*
X23750000Y2547619D01*
X23511905Y2547619D01*
X25035715Y2547619D02*
X24464286Y2547619D01*
X24750000Y2547619D02*
X24750000Y3547619D01*
X24654762Y3404762D01*
X24559524Y3309524D01*
X24464286Y3261905D01*
X36011905Y22047619D02*
X36011905Y23047619D01*
X36250000Y23047619D01*
X36392858Y23000000D01*
X36488096Y22904762D01*
X36535715Y22809524D01*
X36583334Y22619048D01*
X36583334Y22476190D01*
X36535715Y22285714D01*
X36488096Y22190476D01*
X36392858Y22095238D01*
X36250000Y22047619D01*
X36011905Y22047619D01*
X36964286Y22952381D02*
X37011905Y23000000D01*
X37107143Y23047619D01*
X37345239Y23047619D01*
X37440477Y23000000D01*
X37488096Y22952381D01*
X37535715Y22857143D01*
X37535715Y22761905D01*
X37488096Y22619048D01*
X36916667Y22047619D01*
X37535715Y22047619D01*
X14733334Y20342857D02*
X14685715Y20295238D01*
X14542858Y20247619D01*
X14447620Y20247619D01*
X14304762Y20295238D01*
X14209524Y20390476D01*
X14161905Y20485714D01*
X14114286Y20676190D01*
X14114286Y20819048D01*
X14161905Y21009524D01*
X14209524Y21104762D01*
X14304762Y21200000D01*
X14447620Y21247619D01*
X14542858Y21247619D01*
X14685715Y21200000D01*
X14733334Y21152381D01*
X15685715Y20247619D02*
X15114286Y20247619D01*
X15400000Y20247619D02*
X15400000Y21247619D01*
X15304762Y21104762D01*
X15209524Y21009524D01*
X15114286Y20961905D01*
X19504762Y22202381D02*
X19409524Y22250000D01*
X19314286Y22345238D01*
X19171429Y22488095D01*
X19076190Y22535714D01*
X18980952Y22535714D01*
X19028571Y22297619D02*
X18933333Y22345238D01*
X18838095Y22440476D01*
X18790476Y22630952D01*
X18790476Y22964286D01*
X18838095Y23154762D01*
X18933333Y23250000D01*
X19028571Y23297619D01*
X19219048Y23297619D01*
X19314286Y23250000D01*
X19409524Y23154762D01*
X19457143Y22964286D01*
X19457143Y22630952D01*
X19409524Y22440476D01*
X19314286Y22345238D01*
X19219048Y22297619D01*
X19028571Y22297619D01*
X20409524Y22297619D02*
X19838095Y22297619D01*
X20123809Y22297619D02*
X20123809Y23297619D01*
X20028571Y23154762D01*
X19933333Y23059524D01*
X19838095Y23011905D01*
X18904762Y30652381D02*
X18809524Y30700000D01*
X18714286Y30795238D01*
X18571429Y30938095D01*
X18476190Y30985714D01*
X18380952Y30985714D01*
X18428571Y30747619D02*
X18333333Y30795238D01*
X18238095Y30890476D01*
X18190476Y31080952D01*
X18190476Y31414286D01*
X18238095Y31604762D01*
X18333333Y31700000D01*
X18428571Y31747619D01*
X18619048Y31747619D01*
X18714286Y31700000D01*
X18809524Y31604762D01*
X18857143Y31414286D01*
X18857143Y31080952D01*
X18809524Y30890476D01*
X18714286Y30795238D01*
X18619048Y30747619D01*
X18428571Y30747619D01*
X19238095Y31652381D02*
X19285714Y31700000D01*
X19380952Y31747619D01*
X19619048Y31747619D01*
X19714286Y31700000D01*
X19761905Y31652381D01*
X19809524Y31557143D01*
X19809524Y31461905D01*
X19761905Y31319048D01*
X19190476Y30747619D01*
X19809524Y30747619D01*
X31193334Y8697619D02*
X30717143Y8697619D01*
X30717143Y9697619D01*
X32050477Y8697619D02*
X31479048Y8697619D01*
X31764762Y8697619D02*
X31764762Y9697619D01*
X31669524Y9554762D01*
X31574286Y9459524D01*
X31479048Y9411905D01*
X34166667Y32547619D02*
X34166667Y31833333D01*
X34119047Y31690476D01*
X34023809Y31595238D01*
X33880952Y31547619D01*
X33785714Y31547619D01*
X35166667Y31547619D02*
X34595238Y31547619D01*
X34880952Y31547619D02*
X34880952Y32547619D01*
X34785714Y32404762D01*
X34690476Y32309524D01*
X34595238Y32261905D01*
X18416667Y1797619D02*
X18416667Y1083333D01*
X18369047Y940476D01*
X18273809Y845238D01*
X18130952Y797619D01*
X18035714Y797619D01*
X18797619Y1797619D02*
X19416667Y1797619D01*
X19083333Y1416667D01*
X19226191Y1416667D01*
X19321429Y1369048D01*
X19369048Y1321429D01*
X19416667Y1226190D01*
X19416667Y988095D01*
X19369048Y892857D01*
X19321429Y845238D01*
X19226191Y797619D01*
X18940476Y797619D01*
X18845238Y845238D01*
X18797619Y892857D01*
X45166667Y10297619D02*
X45166667Y9583333D01*
X45119047Y9440476D01*
X45023809Y9345238D01*
X44880952Y9297619D01*
X44785714Y9297619D01*
X46071429Y9964286D02*
X46071429Y9297619D01*
X45833333Y10345238D02*
X45595238Y9630952D01*
X46214286Y9630952D01*
X32666667Y1797619D02*
X32666667Y1083333D01*
X32619047Y940476D01*
X32523809Y845238D01*
X32380952Y797619D01*
X32285714Y797619D01*
X33619048Y1797619D02*
X33142857Y1797619D01*
X33095238Y1321429D01*
X33142857Y1369048D01*
X33238095Y1416667D01*
X33476191Y1416667D01*
X33571429Y1369048D01*
X33619048Y1321429D01*
X33666667Y1226190D01*
X33666667Y988095D01*
X33619048Y892857D01*
X33571429Y845238D01*
X33476191Y797619D01*
X33238095Y797619D01*
X33142857Y845238D01*
X33095238Y892857D01*
X11333334Y18142857D02*
X11285715Y18095238D01*
X11142858Y18047619D01*
X11047620Y18047619D01*
X10904762Y18095238D01*
X10809524Y18190476D01*
X10761905Y18285714D01*
X10714286Y18476190D01*
X10714286Y18619048D01*
X10761905Y18809524D01*
X10809524Y18904762D01*
X10904762Y19000000D01*
X11047620Y19047619D01*
X11142858Y19047619D01*
X11285715Y19000000D01*
X11333334Y18952381D01*
X11666667Y19047619D02*
X12333334Y19047619D01*
X11904762Y18047619D01*
X16952381Y22133334D02*
X16476190Y21800000D01*
X16952381Y21561905D02*
X15952381Y21561905D01*
X15952381Y21942858D01*
X16000000Y22038096D01*
X16047619Y22085715D01*
X16142857Y22133334D01*
X16285714Y22133334D01*
X16380952Y22085715D01*
X16428571Y22038096D01*
X16476190Y21942858D01*
X16476190Y21561905D01*
X16285714Y22990477D02*
X16952381Y22990477D01*
X15904762Y22752381D02*
X16619048Y22514286D01*
X16619048Y23133334D01*
X16952381Y29933334D02*
X16476190Y29600000D01*
X16952381Y29361905D02*
X15952381Y29361905D01*
X15952381Y29742858D01*
X16000000Y29838096D01*
X16047619Y29885715D01*
X16142857Y29933334D01*
X16285714Y29933334D01*
X16380952Y29885715D01*
X16428571Y29838096D01*
X16476190Y29742858D01*
X16476190Y29361905D01*
X15952381Y30838096D02*
X15952381Y30361905D01*
X16428571Y30314286D01*
X16380952Y30361905D01*
X16333333Y30457143D01*
X16333333Y30695239D01*
X16380952Y30790477D01*
X16428571Y30838096D01*
X16523810Y30885715D01*
X16761905Y30885715D01*
X16857143Y30838096D01*
X16904762Y30790477D01*
X16952381Y30695239D01*
X16952381Y30457143D01*
X16904762Y30361905D01*
X16857143Y30314286D01*
X39033334Y18747619D02*
X38700000Y19223810D01*
X38461905Y18747619D02*
X38461905Y19747619D01*
X38842858Y19747619D01*
X38938096Y19700000D01*
X38985715Y19652381D01*
X39033334Y19557143D01*
X39033334Y19414286D01*
X38985715Y19319048D01*
X38938096Y19271429D01*
X38842858Y19223810D01*
X38461905Y19223810D01*
X39890477Y19747619D02*
X39700000Y19747619D01*
X39604762Y19700000D01*
X39557143Y19652381D01*
X39461905Y19509524D01*
X39414286Y19319048D01*
X39414286Y18938095D01*
X39461905Y18842857D01*
X39509524Y18795238D01*
X39604762Y18747619D01*
X39795239Y18747619D01*
X39890477Y18795238D01*
X39938096Y18842857D01*
X39985715Y18938095D01*
X39985715Y19176190D01*
X39938096Y19271429D01*
X39890477Y19319048D01*
X39795239Y19366667D01*
X39604762Y19366667D01*
X39509524Y19319048D01*
X39461905Y19271429D01*
X39414286Y19176190D01*
X4233334Y14747619D02*
X3900000Y15223810D01*
X3661905Y14747619D02*
X3661905Y15747619D01*
X4042858Y15747619D01*
X4138096Y15700000D01*
X4185715Y15652381D01*
X4233334Y15557143D01*
X4233334Y15414286D01*
X4185715Y15319048D01*
X4138096Y15271429D01*
X4042858Y15223810D01*
X3661905Y15223810D01*
X4566667Y15747619D02*
X5233334Y15747619D01*
X4804762Y14747619D01*
X4233334Y12647619D02*
X3900000Y13123810D01*
X3661905Y12647619D02*
X3661905Y13647619D01*
X4042858Y13647619D01*
X4138096Y13600000D01*
X4185715Y13552381D01*
X4233334Y13457143D01*
X4233334Y13314286D01*
X4185715Y13219048D01*
X4138096Y13171429D01*
X4042858Y13123810D01*
X3661905Y13123810D01*
X4804762Y13219048D02*
X4709524Y13266667D01*
X4661905Y13314286D01*
X4614286Y13409524D01*
X4614286Y13457143D01*
X4661905Y13552381D01*
X4709524Y13600000D01*
X4804762Y13647619D01*
X4995239Y13647619D01*
X5090477Y13600000D01*
X5138096Y13552381D01*
X5185715Y13457143D01*
X5185715Y13409524D01*
X5138096Y13314286D01*
X5090477Y13266667D01*
X4995239Y13219048D01*
X4804762Y13219048D01*
X4709524Y13171429D01*
X4661905Y13123810D01*
X4614286Y13028571D01*
X4614286Y12838095D01*
X4661905Y12742857D01*
X4709524Y12695238D01*
X4804762Y12647619D01*
X4995239Y12647619D01*
X5090477Y12695238D01*
X5138096Y12742857D01*
X5185715Y12838095D01*
X5185715Y13028571D01*
X5138096Y13123810D01*
X5090477Y13171429D01*
X4995239Y13219048D01*
M02*
