G04 #@! TF.FileFunction,Paste,Top*
%FSLAX46Y46*%
G04 Gerber Fmt 4.6, Leading zero omitted, Abs format (unit mm)*
G04 Created by KiCad (PCBNEW 4.0.7) date 04/07/18 18:35:28*
%MOMM*%
%LPD*%
G01*
G04 APERTURE LIST*
%ADD10C,0.100000*%
%ADD11R,0.750000X0.400000*%
%ADD12R,1.500000X1.950000*%
%ADD13R,1.000000X3.500000*%
%ADD14R,1.500000X3.400000*%
%ADD15R,0.800000X0.750000*%
%ADD16R,1.000000X1.600000*%
%ADD17R,3.000000X1.000000*%
%ADD18R,0.750000X0.800000*%
%ADD19R,0.600000X0.400000*%
%ADD20R,0.400000X0.600000*%
%ADD21R,1.050000X0.450000*%
%ADD22R,0.882000X0.537000*%
%ADD23R,1.390000X1.400000*%
%ADD24R,3.360000X4.860000*%
%ADD25R,0.800000X0.800000*%
%ADD26R,0.900000X0.800000*%
%ADD27R,3.200000X1.600000*%
%ADD28R,3.500000X1.000000*%
%ADD29R,3.400000X1.500000*%
%ADD30R,0.900000X0.500000*%
%ADD31R,0.500000X0.900000*%
G04 APERTURE END LIST*
D10*
D11*
X12950000Y15750000D03*
X11050000Y16400000D03*
X11050000Y15100000D03*
X11050000Y15750000D03*
X12950000Y15100000D03*
X12950000Y16400000D03*
D12*
X39500000Y15975000D03*
X39500000Y13225000D03*
D13*
X12500000Y24875000D03*
X10500000Y24875000D03*
X8500000Y24875000D03*
D14*
X14850000Y30625000D03*
X6150000Y30625000D03*
D15*
X15050000Y11750000D03*
X13550000Y11750000D03*
D16*
X29250000Y8750000D03*
X32250000Y8750000D03*
D17*
X19750000Y5950000D03*
X19750000Y10550000D03*
D18*
X16750000Y18000000D03*
X16750000Y19500000D03*
D15*
X21300000Y17950000D03*
X19800000Y17950000D03*
D19*
X23950000Y17850000D03*
X23950000Y18750000D03*
X22700000Y18750000D03*
X22700000Y17850000D03*
D20*
X12150000Y13000000D03*
X13050000Y13000000D03*
D21*
X22425000Y12175000D03*
X22425000Y12825000D03*
X22425000Y13475000D03*
X22425000Y14125000D03*
X22425000Y14775000D03*
X22425000Y15425000D03*
X22425000Y16075000D03*
X22425000Y16725000D03*
X16875000Y16725000D03*
X16875000Y16075000D03*
X16875000Y15425000D03*
X16875000Y14775000D03*
X16875000Y14125000D03*
X16875000Y13475000D03*
X16875000Y12825000D03*
X16875000Y12175000D03*
D22*
X18915000Y15792500D03*
X18915000Y14897500D03*
X18915000Y14002500D03*
X18915000Y13107500D03*
X20385000Y15792500D03*
X20385000Y14897500D03*
X20385000Y14002500D03*
X20385000Y13107500D03*
D23*
X24820000Y10356000D03*
D24*
X23900000Y6374000D03*
D23*
X22980000Y10356000D03*
D25*
X38300000Y22500000D03*
X39900000Y22500000D03*
D18*
X15400000Y18000000D03*
X15400000Y19500000D03*
D26*
X18000000Y26150000D03*
X18000000Y24250000D03*
X20000000Y25200000D03*
X18000000Y29650000D03*
X18000000Y27750000D03*
X20000000Y28700000D03*
D27*
X31500000Y20200000D03*
X31500000Y11300000D03*
D13*
X30250000Y24875000D03*
X28250000Y24875000D03*
X26250000Y24875000D03*
X24250000Y24875000D03*
D14*
X32600000Y30625000D03*
X21900000Y30625000D03*
D13*
X8500000Y8375000D03*
X10500000Y8375000D03*
X12500000Y8375000D03*
X14500000Y8375000D03*
D14*
X6150000Y2625000D03*
X16850000Y2625000D03*
D28*
X45375000Y4000000D03*
X45375000Y6000000D03*
D29*
X51125000Y1650000D03*
X51125000Y8350000D03*
D13*
X37250000Y8375000D03*
X39250000Y8375000D03*
D14*
X34900000Y2625000D03*
X41600000Y2625000D03*
D15*
X8500000Y18500000D03*
X10000000Y18500000D03*
D30*
X16500000Y25250000D03*
X16500000Y23750000D03*
X16500000Y28750000D03*
X16500000Y27250000D03*
D31*
X38450000Y20600000D03*
X39950000Y20600000D03*
X7250000Y15300000D03*
X5750000Y15300000D03*
X7250000Y13150000D03*
X5750000Y13150000D03*
M02*
