M48
;DRILL file {KiCad 4.0.7} date 04/07/18 18:35:34
;FORMAT={3:3/ absolute / metric / suppress leading zeros}
FMAT,2
METRIC,TZ
T1C0.300
T2C1.650
%
G90
G05
M71
T1
X1850Y22900
X1850Y22100
X1850Y21300
X1850Y20500
X1850Y11800
X1850Y11000
X1850Y10200
X1850Y9400
X2650Y22900
X2650Y22100
X2650Y21300
X2650Y20500
X2650Y11800
X2650Y11000
X2650Y10200
X2650Y9400
X3450Y22900
X3450Y22100
X3450Y21300
X3450Y20500
X3450Y11800
X3450Y11000
X3450Y10200
X3450Y9400
X4250Y22900
X4250Y22100
X4250Y21300
X4250Y20500
X4250Y11800
X4250Y11000
X4250Y10200
X4250Y9400
X7600Y16800
X9050Y13150
X9300Y31000
X9300Y30200
X9700Y4700
X9700Y3900
X9700Y3100
X9700Y2300
X9900Y15500
X10100Y31000
X10100Y30200
X10400Y19900
X10500Y4700
X10500Y3900
X10500Y3100
X10500Y2300
X10900Y31000
X10900Y30200
X11300Y4700
X11300Y3900
X11300Y3100
X11300Y2300
X11350Y14100
X11700Y31000
X11700Y30200
X12100Y4700
X12100Y3900
X12100Y3100
X12100Y2300
X12400Y19900
X13300Y17450
X14000Y13550
X14150Y14400
X14250Y18000
X15200Y15450
X15250Y27050
X15250Y26250
X15500Y22650
X15500Y21850
X15750Y9500
X16300Y22650
X16300Y21850
X16700Y11050
X16700Y10250
X17100Y22650
X17100Y21850
X17500Y11050
X17500Y10250
X17900Y22650
X17900Y21850
X18250Y19350
X18250Y18550
X18250Y17750
X18400Y16600
X18400Y15800
X18400Y15000
X18400Y14200
X18400Y13300
X18400Y12500
X19200Y16600
X19200Y15800
X19200Y15000
X19200Y14200
X19200Y13300
X19200Y12500
X19550Y4650
X19550Y3850
X20000Y16600
X20000Y15800
X20000Y15000
X20000Y14200
X20000Y13300
X20000Y12500
X20350Y4650
X20350Y3850
X20800Y16600
X20800Y15800
X20800Y15000
X20800Y14200
X20800Y13300
X20800Y12500
X21150Y4650
X21150Y3850
X21300Y19300
X22700Y20800
X24250Y21000
X25050Y21000
X26500Y15550
X27300Y16350
X27300Y15550
X27500Y31400
X27500Y30600
X27500Y29800
X27500Y29000
X28000Y9100
X28000Y8250
X28100Y16350
X28100Y15550
X28300Y31400
X28300Y30600
X28300Y29800
X28300Y29000
X29100Y31400
X29100Y30600
X29100Y29800
X29100Y29000
X29200Y13800
X29900Y31400
X29900Y30600
X29900Y29800
X29900Y29000
X30000Y13800
X30800Y13800
X31000Y7150
X31000Y6350
X31600Y13800
X31650Y21900
X31800Y7150
X31800Y6350
X32400Y21900
X32400Y13800
X32600Y7150
X32600Y6350
X33400Y7150
X33400Y6350
X33975Y20650
X33975Y19850
X33975Y19050
X33975Y18250
X34000Y17450
X34000Y16650
X34000Y15850
X34000Y15050
X34775Y20650
X34775Y19850
X34775Y19050
X34775Y18250
X34800Y17450
X34800Y16650
X34800Y15850
X34800Y15050
X37250Y13400
X37250Y12600
X37250Y11800
X37250Y11000
X38000Y4550
X38000Y3750
X38800Y4550
X38800Y3750
X41400Y11900
X41400Y11100
X41400Y10300
X41400Y9500
X42200Y11900
X42200Y11100
X42200Y10300
X42200Y9500
X48100Y30550
X48100Y29750
X48100Y28950
X48100Y28150
X48900Y30550
X48900Y29750
X48900Y28950
X48900Y28150
X49100Y6250
X49100Y5450
X49100Y4650
X49100Y3850
X49700Y30550
X49700Y29750
X49700Y28950
X49700Y28150
X49900Y6250
X49900Y5450
X49900Y4650
X49900Y3850
X50500Y30550
X50500Y29750
X50500Y28950
X50500Y28150
X50700Y6250
X50700Y5450
X50700Y4650
X50700Y3850
X51500Y6250
X51500Y5450
X51500Y4650
X51500Y3850
T2
X44000Y21850
X44000Y17250
T0
M30
