G04 #@! TF.FileFunction,Copper,L2,Bot,Signal*
%FSLAX46Y46*%
G04 Gerber Fmt 4.6, Leading zero omitted, Abs format (unit mm)*
G04 Created by KiCad (PCBNEW 4.0.7) date 04/07/18 18:35:28*
%MOMM*%
%LPD*%
G01*
G04 APERTURE LIST*
%ADD10C,0.100000*%
%ADD11C,0.600000*%
%ADD12C,2.250000*%
%ADD13C,0.300000*%
%ADD14C,0.250000*%
G04 APERTURE END LIST*
D10*
D11*
X9900000Y15500000D03*
X32400000Y13800000D03*
X28000000Y9100000D03*
X28000000Y8250000D03*
X24250000Y21000000D03*
X15250000Y26250000D03*
X15250000Y27050000D03*
X17900000Y22650000D03*
X17900000Y21850000D03*
X17100000Y21850000D03*
X17100000Y22650000D03*
X15500000Y22650000D03*
X15500000Y21850000D03*
X16300000Y21850000D03*
X16300000Y22650000D03*
X10100000Y31000000D03*
X10100000Y30200000D03*
X9300000Y30200000D03*
X9300000Y31000000D03*
X10900000Y31000000D03*
X10900000Y30200000D03*
X11700000Y30200000D03*
X11700000Y31000000D03*
X10400000Y19900000D03*
X32400000Y21900000D03*
X31650000Y21900000D03*
X37250000Y13400000D03*
X37250000Y11800000D03*
X37250000Y12600000D03*
X37250000Y11000000D03*
X21150000Y4650000D03*
X26500000Y15550000D03*
X27300000Y16350000D03*
X38000000Y3750000D03*
X38800000Y3750000D03*
X38800000Y4550000D03*
X38000000Y4550000D03*
X18250000Y19350000D03*
X7600000Y16800000D03*
X12400000Y19900000D03*
X33975000Y19050000D03*
X33975000Y18250000D03*
X34775000Y18250000D03*
X34775000Y19050000D03*
X34775000Y20650000D03*
X34775000Y19850000D03*
X33975000Y19850000D03*
X33975000Y20650000D03*
X34800000Y15850000D03*
X34800000Y15050000D03*
X34000000Y15050000D03*
X34000000Y15850000D03*
X42200000Y11100000D03*
X42200000Y11900000D03*
X41400000Y11900000D03*
X41400000Y11100000D03*
X41400000Y9500000D03*
X41400000Y10300000D03*
X42200000Y10300000D03*
X42200000Y9500000D03*
X34000000Y17450000D03*
X34000000Y16650000D03*
X34800000Y16650000D03*
X34800000Y17450000D03*
X29900000Y31400000D03*
X29900000Y30600000D03*
X29100000Y30600000D03*
X29100000Y31400000D03*
X27500000Y31400000D03*
X27500000Y30600000D03*
X28300000Y30600000D03*
X28300000Y31400000D03*
X28300000Y29800000D03*
X28300000Y29000000D03*
X27500000Y29000000D03*
X27500000Y29800000D03*
X29100000Y29800000D03*
X29100000Y29000000D03*
X29900000Y29000000D03*
X29900000Y29800000D03*
X33400000Y7150000D03*
X33400000Y6350000D03*
X32600000Y6350000D03*
X32600000Y7150000D03*
X31000000Y7150000D03*
X31000000Y6350000D03*
X31800000Y6350000D03*
X31800000Y7150000D03*
X12100000Y4700000D03*
X12100000Y3900000D03*
X11300000Y3900000D03*
X11300000Y4700000D03*
X9700000Y4700000D03*
X9700000Y3900000D03*
X10500000Y3900000D03*
X10500000Y4700000D03*
X10500000Y3100000D03*
X10500000Y2300000D03*
X9700000Y2300000D03*
X9700000Y3100000D03*
X11300000Y3100000D03*
X11300000Y2300000D03*
X12100000Y2300000D03*
X12100000Y3100000D03*
X20350000Y4650000D03*
X19550000Y4650000D03*
X19550000Y3850000D03*
X20350000Y3850000D03*
X21150000Y3850000D03*
X18250000Y17750000D03*
X18250000Y18550000D03*
X19200000Y13300000D03*
X19200000Y12500000D03*
X18400000Y12500000D03*
X18400000Y13300000D03*
X20000000Y13300000D03*
X20000000Y12500000D03*
X20800000Y12500000D03*
X20800000Y13300000D03*
X50500000Y28950000D03*
X50500000Y28150000D03*
X49700000Y28150000D03*
X49700000Y28950000D03*
X48100000Y28950000D03*
X48100000Y28150000D03*
X48900000Y28150000D03*
X48900000Y28950000D03*
X48900000Y30550000D03*
X48900000Y29750000D03*
X48100000Y29750000D03*
X48100000Y30550000D03*
X49700000Y30550000D03*
X49700000Y29750000D03*
X50500000Y29750000D03*
X50500000Y30550000D03*
X4250000Y22900000D03*
X4250000Y22100000D03*
X3450000Y22100000D03*
X3450000Y22900000D03*
X1850000Y22900000D03*
X1850000Y22100000D03*
X2650000Y22100000D03*
X2650000Y22900000D03*
X2650000Y21300000D03*
X2650000Y20500000D03*
X1850000Y20500000D03*
X1850000Y21300000D03*
X3450000Y21300000D03*
X3450000Y20500000D03*
X4250000Y20500000D03*
X4250000Y21300000D03*
X4250000Y10200000D03*
X4250000Y9400000D03*
X3450000Y9400000D03*
X3450000Y10200000D03*
X1850000Y10200000D03*
X1850000Y9400000D03*
X2650000Y9400000D03*
X2650000Y10200000D03*
X2650000Y11800000D03*
X2650000Y11000000D03*
X1850000Y11000000D03*
X1850000Y11800000D03*
X3450000Y11800000D03*
X3450000Y11000000D03*
X4250000Y11000000D03*
X4250000Y11800000D03*
X16700000Y11050000D03*
X17500000Y11050000D03*
X17500000Y10250000D03*
X25050000Y21000000D03*
X16700000Y10250000D03*
X51500000Y6250000D03*
X51500000Y5450000D03*
X50700000Y5450000D03*
X50700000Y6250000D03*
X49100000Y6250000D03*
X49100000Y5450000D03*
X49900000Y5450000D03*
X49900000Y6250000D03*
X49900000Y4650000D03*
X49900000Y3850000D03*
X49100000Y3850000D03*
X49100000Y4650000D03*
X50700000Y4650000D03*
X50700000Y3850000D03*
X51500000Y3850000D03*
X51500000Y4650000D03*
X20800000Y15000000D03*
X20800000Y14200000D03*
X20000000Y14200000D03*
X20000000Y15000000D03*
X18400000Y15000000D03*
X18400000Y14200000D03*
X19200000Y14200000D03*
X19200000Y15000000D03*
X19200000Y16600000D03*
X19200000Y15800000D03*
X18400000Y15800000D03*
X18400000Y16600000D03*
X20000000Y16600000D03*
X20000000Y15800000D03*
X20800000Y15800000D03*
X20800000Y16600000D03*
X28100000Y15550000D03*
X27300000Y15550000D03*
X28100000Y16350000D03*
X29200000Y13800000D03*
X31600000Y13800000D03*
X30000000Y13800000D03*
X30800000Y13800000D03*
D12*
X44000000Y21850000D03*
X44000000Y17250000D03*
D11*
X15750000Y9500000D03*
X14000000Y13550000D03*
X14250000Y18000000D03*
X15200000Y15450000D03*
X11350000Y14100000D03*
X9050000Y13150000D03*
X22700000Y20800000D03*
X13300000Y17450000D03*
X14150000Y14400000D03*
X21300000Y19300000D03*
D13*
X15750000Y11800000D02*
X15750000Y9500000D01*
X14000000Y13550000D02*
X15750000Y11800000D01*
X14250000Y16400000D02*
X14250000Y18000000D01*
X15200000Y15450000D02*
X14250000Y16400000D01*
X10000000Y14100000D02*
X11350000Y14100000D01*
X9050000Y13150000D02*
X10000000Y14100000D01*
X13300000Y17450000D02*
X13300000Y19200000D01*
X14900000Y20800000D02*
X22700000Y20800000D01*
X13300000Y19200000D02*
X14900000Y20800000D01*
X13300000Y15250000D02*
X13300000Y17450000D01*
X14150000Y14400000D02*
X13300000Y15250000D01*
X29200000Y10700000D02*
X29200000Y10300000D01*
X29200000Y10300000D02*
X28000000Y9100000D01*
X36950000Y10700000D02*
X29200000Y10700000D01*
X37250000Y11000000D02*
X36950000Y10700000D01*
X29200000Y10700000D02*
X29200000Y13800000D01*
X29500000Y15200000D02*
X30200000Y14500000D01*
X29500000Y17500000D02*
X29500000Y15200000D01*
X27700000Y19300000D02*
X29500000Y17500000D01*
X21300000Y19300000D02*
X27700000Y19300000D01*
X30200000Y14500000D02*
X30200000Y14400000D01*
X30200000Y14400000D02*
X30800000Y13800000D01*
X30200000Y13800000D02*
X30200000Y14500000D01*
D14*
G36*
X29975000Y17498224D02*
X29975000Y15900000D01*
X29984848Y15851368D01*
X30011612Y15811612D01*
X31611612Y14211612D01*
X31652963Y14184187D01*
X31700000Y14175000D01*
X37825000Y14175000D01*
X37825000Y10475000D01*
X30400000Y10475000D01*
X30351368Y10465152D01*
X30311612Y10438388D01*
X29811612Y9938388D01*
X29784187Y9897037D01*
X29775000Y9850000D01*
X29775000Y7975000D01*
X27575000Y7975000D01*
X27575000Y9198224D01*
X28688388Y10311612D01*
X28715813Y10352963D01*
X28725000Y10400000D01*
X28725000Y14248224D01*
X28988388Y14511612D01*
X29015813Y14552963D01*
X29025000Y14600000D01*
X29025000Y16950000D01*
X29015152Y16998632D01*
X28988388Y17038388D01*
X27088388Y18938388D01*
X27047037Y18965813D01*
X27000000Y18975000D01*
X21025000Y18975000D01*
X21025000Y19575000D01*
X27898224Y19575000D01*
X29975000Y17498224D01*
X29975000Y17498224D01*
G37*
X29975000Y17498224D02*
X29975000Y15900000D01*
X29984848Y15851368D01*
X30011612Y15811612D01*
X31611612Y14211612D01*
X31652963Y14184187D01*
X31700000Y14175000D01*
X37825000Y14175000D01*
X37825000Y10475000D01*
X30400000Y10475000D01*
X30351368Y10465152D01*
X30311612Y10438388D01*
X29811612Y9938388D01*
X29784187Y9897037D01*
X29775000Y9850000D01*
X29775000Y7975000D01*
X27575000Y7975000D01*
X27575000Y9198224D01*
X28688388Y10311612D01*
X28715813Y10352963D01*
X28725000Y10400000D01*
X28725000Y14248224D01*
X28988388Y14511612D01*
X29015813Y14552963D01*
X29025000Y14600000D01*
X29025000Y16950000D01*
X29015152Y16998632D01*
X28988388Y17038388D01*
X27088388Y18938388D01*
X27047037Y18965813D01*
X27000000Y18975000D01*
X21025000Y18975000D01*
X21025000Y19575000D01*
X27898224Y19575000D01*
X29975000Y17498224D01*
G36*
X28525000Y14901776D02*
X21811612Y8188388D01*
X21784187Y8147037D01*
X21775000Y8100000D01*
X21775000Y3475000D01*
X19075000Y3475000D01*
X19075000Y7248224D01*
X26138388Y14311612D01*
X26165813Y14352963D01*
X26175000Y14400000D01*
X26175000Y16675000D01*
X28525000Y16675000D01*
X28525000Y14901776D01*
X28525000Y14901776D01*
G37*
X28525000Y14901776D02*
X21811612Y8188388D01*
X21784187Y8147037D01*
X21775000Y8100000D01*
X21775000Y3475000D01*
X19075000Y3475000D01*
X19075000Y7248224D01*
X26138388Y14311612D01*
X26165813Y14352963D01*
X26175000Y14400000D01*
X26175000Y16675000D01*
X28525000Y16675000D01*
X28525000Y14901776D01*
G36*
X53375000Y375000D02*
X375000Y375000D01*
X375000Y2888578D01*
X674684Y2888578D01*
X951938Y2217571D01*
X1464871Y1703742D01*
X2135392Y1425317D01*
X2861422Y1424684D01*
X3532429Y1701938D01*
X4046258Y2214871D01*
X4324683Y2885392D01*
X4325316Y3611422D01*
X4048062Y4282429D01*
X3535129Y4796258D01*
X2864608Y5074683D01*
X2138578Y5075316D01*
X1467571Y4798062D01*
X953742Y4285129D01*
X675317Y3614608D01*
X674684Y2888578D01*
X375000Y2888578D01*
X375000Y7500000D01*
X18625000Y7500000D01*
X18625000Y3000000D01*
X18634848Y2951368D01*
X18662841Y2910399D01*
X18704568Y2883549D01*
X18750000Y2875000D01*
X22250000Y2875000D01*
X22298632Y2884848D01*
X22304091Y2888578D01*
X28674684Y2888578D01*
X28951938Y2217571D01*
X29464871Y1703742D01*
X30135392Y1425317D01*
X30861422Y1424684D01*
X31532429Y1701938D01*
X32046258Y2214871D01*
X32324683Y2885392D01*
X32325316Y3611422D01*
X32048062Y4282429D01*
X31535129Y4796258D01*
X30864608Y5074683D01*
X30138578Y5075316D01*
X29467571Y4798062D01*
X28953742Y4285129D01*
X28675317Y3614608D01*
X28674684Y2888578D01*
X22304091Y2888578D01*
X22339601Y2912841D01*
X22366451Y2954568D01*
X22375000Y3000000D01*
X22375000Y7948224D01*
X27801776Y13375000D01*
X28125000Y13375000D01*
X28125000Y10551776D01*
X27161612Y9588388D01*
X27134187Y9547037D01*
X27125000Y9500000D01*
X27125000Y7500000D01*
X27134848Y7451368D01*
X27162841Y7410399D01*
X27204568Y7383549D01*
X27250000Y7375000D01*
X30250000Y7375000D01*
X30298632Y7384848D01*
X30339601Y7412841D01*
X30366451Y7454568D01*
X30375000Y7500000D01*
X30375000Y9698224D01*
X30551776Y9875000D01*
X38250000Y9875000D01*
X38298632Y9884848D01*
X38339601Y9912841D01*
X38366451Y9954568D01*
X38375000Y10000000D01*
X38375000Y14500000D01*
X38365152Y14548632D01*
X38337159Y14589601D01*
X38295432Y14616451D01*
X38250000Y14625000D01*
X32051776Y14625000D01*
X30625000Y16051776D01*
X30625000Y16962843D01*
X42549749Y16962843D01*
X42770033Y16429714D01*
X43177569Y16021467D01*
X43710312Y15800252D01*
X44287157Y15799749D01*
X44820286Y16020033D01*
X45228533Y16427569D01*
X45449748Y16960312D01*
X45450251Y17537157D01*
X45229967Y18070286D01*
X44822431Y18478533D01*
X44289688Y18699748D01*
X43712843Y18700251D01*
X43179714Y18479967D01*
X42771467Y18072431D01*
X42550252Y17539688D01*
X42549749Y16962843D01*
X30625000Y16962843D01*
X30625000Y17500000D01*
X30615152Y17548632D01*
X30588388Y17588388D01*
X28088388Y20088388D01*
X28047037Y20115813D01*
X28000000Y20125000D01*
X20500000Y20125000D01*
X20451368Y20115152D01*
X20410399Y20087159D01*
X20383549Y20045432D01*
X20375000Y20000000D01*
X20375000Y18500000D01*
X20384848Y18451368D01*
X20412841Y18410399D01*
X20454568Y18383549D01*
X20500000Y18375000D01*
X25625000Y18375000D01*
X25625000Y14551776D01*
X18661612Y7588388D01*
X18634187Y7547037D01*
X18625000Y7500000D01*
X375000Y7500000D01*
X375000Y13026225D01*
X8424892Y13026225D01*
X8519842Y12796429D01*
X8695504Y12620460D01*
X8925134Y12525109D01*
X9173775Y12524892D01*
X9403571Y12619842D01*
X9579540Y12795504D01*
X9674891Y13025134D01*
X9674959Y13103207D01*
X10196752Y13625000D01*
X10941059Y13625000D01*
X10995504Y13570460D01*
X11225134Y13475109D01*
X11473775Y13474892D01*
X11703571Y13569842D01*
X11879540Y13745504D01*
X11974891Y13975134D01*
X11975108Y14223775D01*
X11880158Y14453571D01*
X11704496Y14629540D01*
X11474866Y14724891D01*
X11226225Y14725108D01*
X10996429Y14630158D01*
X10941175Y14575000D01*
X10000000Y14575000D01*
X9818225Y14538843D01*
X9664124Y14435876D01*
X9003289Y13775041D01*
X8926225Y13775108D01*
X8696429Y13680158D01*
X8520460Y13504496D01*
X8425109Y13274866D01*
X8424892Y13026225D01*
X375000Y13026225D01*
X375000Y17326225D01*
X12674892Y17326225D01*
X12769842Y17096429D01*
X12825000Y17041175D01*
X12825000Y15250000D01*
X12861157Y15068225D01*
X12964124Y14914124D01*
X13524959Y14353289D01*
X13524892Y14276225D01*
X13617739Y14051518D01*
X13470460Y13904496D01*
X13375109Y13674866D01*
X13374892Y13426225D01*
X13469842Y13196429D01*
X13645504Y13020460D01*
X13875134Y12925109D01*
X13953207Y12925041D01*
X15275000Y11603248D01*
X15275000Y9908941D01*
X15220460Y9854496D01*
X15125109Y9624866D01*
X15124892Y9376225D01*
X15219842Y9146429D01*
X15395504Y8970460D01*
X15625134Y8875109D01*
X15873775Y8874892D01*
X16103571Y8969842D01*
X16279540Y9145504D01*
X16374891Y9375134D01*
X16375108Y9623775D01*
X16280158Y9853571D01*
X16225000Y9908825D01*
X16225000Y11799995D01*
X16225001Y11800000D01*
X16188843Y11981774D01*
X16188843Y11981775D01*
X16085876Y12135876D01*
X14625041Y13596711D01*
X14625108Y13673775D01*
X14532261Y13898482D01*
X14679540Y14045504D01*
X14774891Y14275134D01*
X14775108Y14523775D01*
X14680158Y14753571D01*
X14504496Y14929540D01*
X14274866Y15024891D01*
X14196792Y15024959D01*
X13775000Y15446752D01*
X13775000Y16400000D01*
X13811157Y16218225D01*
X13914124Y16064124D01*
X14574959Y15403289D01*
X14574892Y15326225D01*
X14669842Y15096429D01*
X14845504Y14920460D01*
X15075134Y14825109D01*
X15323775Y14824892D01*
X15553571Y14919842D01*
X15729540Y15095504D01*
X15824891Y15325134D01*
X15825108Y15573775D01*
X15730158Y15803571D01*
X15554496Y15979540D01*
X15324866Y16074891D01*
X15246793Y16074959D01*
X14725000Y16596752D01*
X14725000Y17591059D01*
X14779540Y17645504D01*
X14874891Y17875134D01*
X14875108Y18123775D01*
X14780158Y18353571D01*
X14604496Y18529540D01*
X14374866Y18624891D01*
X14126225Y18625108D01*
X13896429Y18530158D01*
X13775000Y18408941D01*
X13775000Y19003248D01*
X15096752Y20325000D01*
X22291059Y20325000D01*
X22345504Y20270460D01*
X22575134Y20175109D01*
X22823775Y20174892D01*
X23053571Y20269842D01*
X23229540Y20445504D01*
X23324891Y20675134D01*
X23325108Y20923775D01*
X23230158Y21153571D01*
X23054496Y21329540D01*
X22824866Y21424891D01*
X22576225Y21425108D01*
X22346429Y21330158D01*
X22291175Y21275000D01*
X14900005Y21275000D01*
X14900000Y21275001D01*
X14748384Y21244842D01*
X14718225Y21238843D01*
X14564124Y21135876D01*
X12964124Y19535876D01*
X12861157Y19381775D01*
X12825000Y19200000D01*
X12825000Y17858941D01*
X12770460Y17804496D01*
X12675109Y17574866D01*
X12674892Y17326225D01*
X375000Y17326225D01*
X375000Y21562843D01*
X42549749Y21562843D01*
X42770033Y21029714D01*
X43177569Y20621467D01*
X43710312Y20400252D01*
X44287157Y20399749D01*
X44820286Y20620033D01*
X45228533Y21027569D01*
X45449748Y21560312D01*
X45450251Y22137157D01*
X45229967Y22670286D01*
X44822431Y23078533D01*
X44289688Y23299748D01*
X43712843Y23300251D01*
X43179714Y23079967D01*
X42771467Y22672431D01*
X42550252Y22139688D01*
X42549749Y21562843D01*
X375000Y21562843D01*
X375000Y29888578D01*
X674684Y29888578D01*
X951938Y29217571D01*
X1464871Y28703742D01*
X2135392Y28425317D01*
X2861422Y28424684D01*
X3532429Y28701938D01*
X4046258Y29214871D01*
X4324683Y29885392D01*
X4324685Y29888578D01*
X36174684Y29888578D01*
X36451938Y29217571D01*
X36964871Y28703742D01*
X37635392Y28425317D01*
X38361422Y28424684D01*
X39032429Y28701938D01*
X39546258Y29214871D01*
X39824683Y29885392D01*
X39825316Y30611422D01*
X39548062Y31282429D01*
X39035129Y31796258D01*
X38364608Y32074683D01*
X37638578Y32075316D01*
X36967571Y31798062D01*
X36453742Y31285129D01*
X36175317Y30614608D01*
X36174684Y29888578D01*
X4324685Y29888578D01*
X4325316Y30611422D01*
X4048062Y31282429D01*
X3535129Y31796258D01*
X2864608Y32074683D01*
X2138578Y32075316D01*
X1467571Y31798062D01*
X953742Y31285129D01*
X675317Y30614608D01*
X674684Y29888578D01*
X375000Y29888578D01*
X375000Y32875000D01*
X53375000Y32875000D01*
X53375000Y375000D01*
X53375000Y375000D01*
G37*
X53375000Y375000D02*
X375000Y375000D01*
X375000Y2888578D01*
X674684Y2888578D01*
X951938Y2217571D01*
X1464871Y1703742D01*
X2135392Y1425317D01*
X2861422Y1424684D01*
X3532429Y1701938D01*
X4046258Y2214871D01*
X4324683Y2885392D01*
X4325316Y3611422D01*
X4048062Y4282429D01*
X3535129Y4796258D01*
X2864608Y5074683D01*
X2138578Y5075316D01*
X1467571Y4798062D01*
X953742Y4285129D01*
X675317Y3614608D01*
X674684Y2888578D01*
X375000Y2888578D01*
X375000Y7500000D01*
X18625000Y7500000D01*
X18625000Y3000000D01*
X18634848Y2951368D01*
X18662841Y2910399D01*
X18704568Y2883549D01*
X18750000Y2875000D01*
X22250000Y2875000D01*
X22298632Y2884848D01*
X22304091Y2888578D01*
X28674684Y2888578D01*
X28951938Y2217571D01*
X29464871Y1703742D01*
X30135392Y1425317D01*
X30861422Y1424684D01*
X31532429Y1701938D01*
X32046258Y2214871D01*
X32324683Y2885392D01*
X32325316Y3611422D01*
X32048062Y4282429D01*
X31535129Y4796258D01*
X30864608Y5074683D01*
X30138578Y5075316D01*
X29467571Y4798062D01*
X28953742Y4285129D01*
X28675317Y3614608D01*
X28674684Y2888578D01*
X22304091Y2888578D01*
X22339601Y2912841D01*
X22366451Y2954568D01*
X22375000Y3000000D01*
X22375000Y7948224D01*
X27801776Y13375000D01*
X28125000Y13375000D01*
X28125000Y10551776D01*
X27161612Y9588388D01*
X27134187Y9547037D01*
X27125000Y9500000D01*
X27125000Y7500000D01*
X27134848Y7451368D01*
X27162841Y7410399D01*
X27204568Y7383549D01*
X27250000Y7375000D01*
X30250000Y7375000D01*
X30298632Y7384848D01*
X30339601Y7412841D01*
X30366451Y7454568D01*
X30375000Y7500000D01*
X30375000Y9698224D01*
X30551776Y9875000D01*
X38250000Y9875000D01*
X38298632Y9884848D01*
X38339601Y9912841D01*
X38366451Y9954568D01*
X38375000Y10000000D01*
X38375000Y14500000D01*
X38365152Y14548632D01*
X38337159Y14589601D01*
X38295432Y14616451D01*
X38250000Y14625000D01*
X32051776Y14625000D01*
X30625000Y16051776D01*
X30625000Y16962843D01*
X42549749Y16962843D01*
X42770033Y16429714D01*
X43177569Y16021467D01*
X43710312Y15800252D01*
X44287157Y15799749D01*
X44820286Y16020033D01*
X45228533Y16427569D01*
X45449748Y16960312D01*
X45450251Y17537157D01*
X45229967Y18070286D01*
X44822431Y18478533D01*
X44289688Y18699748D01*
X43712843Y18700251D01*
X43179714Y18479967D01*
X42771467Y18072431D01*
X42550252Y17539688D01*
X42549749Y16962843D01*
X30625000Y16962843D01*
X30625000Y17500000D01*
X30615152Y17548632D01*
X30588388Y17588388D01*
X28088388Y20088388D01*
X28047037Y20115813D01*
X28000000Y20125000D01*
X20500000Y20125000D01*
X20451368Y20115152D01*
X20410399Y20087159D01*
X20383549Y20045432D01*
X20375000Y20000000D01*
X20375000Y18500000D01*
X20384848Y18451368D01*
X20412841Y18410399D01*
X20454568Y18383549D01*
X20500000Y18375000D01*
X25625000Y18375000D01*
X25625000Y14551776D01*
X18661612Y7588388D01*
X18634187Y7547037D01*
X18625000Y7500000D01*
X375000Y7500000D01*
X375000Y13026225D01*
X8424892Y13026225D01*
X8519842Y12796429D01*
X8695504Y12620460D01*
X8925134Y12525109D01*
X9173775Y12524892D01*
X9403571Y12619842D01*
X9579540Y12795504D01*
X9674891Y13025134D01*
X9674959Y13103207D01*
X10196752Y13625000D01*
X10941059Y13625000D01*
X10995504Y13570460D01*
X11225134Y13475109D01*
X11473775Y13474892D01*
X11703571Y13569842D01*
X11879540Y13745504D01*
X11974891Y13975134D01*
X11975108Y14223775D01*
X11880158Y14453571D01*
X11704496Y14629540D01*
X11474866Y14724891D01*
X11226225Y14725108D01*
X10996429Y14630158D01*
X10941175Y14575000D01*
X10000000Y14575000D01*
X9818225Y14538843D01*
X9664124Y14435876D01*
X9003289Y13775041D01*
X8926225Y13775108D01*
X8696429Y13680158D01*
X8520460Y13504496D01*
X8425109Y13274866D01*
X8424892Y13026225D01*
X375000Y13026225D01*
X375000Y17326225D01*
X12674892Y17326225D01*
X12769842Y17096429D01*
X12825000Y17041175D01*
X12825000Y15250000D01*
X12861157Y15068225D01*
X12964124Y14914124D01*
X13524959Y14353289D01*
X13524892Y14276225D01*
X13617739Y14051518D01*
X13470460Y13904496D01*
X13375109Y13674866D01*
X13374892Y13426225D01*
X13469842Y13196429D01*
X13645504Y13020460D01*
X13875134Y12925109D01*
X13953207Y12925041D01*
X15275000Y11603248D01*
X15275000Y9908941D01*
X15220460Y9854496D01*
X15125109Y9624866D01*
X15124892Y9376225D01*
X15219842Y9146429D01*
X15395504Y8970460D01*
X15625134Y8875109D01*
X15873775Y8874892D01*
X16103571Y8969842D01*
X16279540Y9145504D01*
X16374891Y9375134D01*
X16375108Y9623775D01*
X16280158Y9853571D01*
X16225000Y9908825D01*
X16225000Y11799995D01*
X16225001Y11800000D01*
X16188843Y11981774D01*
X16188843Y11981775D01*
X16085876Y12135876D01*
X14625041Y13596711D01*
X14625108Y13673775D01*
X14532261Y13898482D01*
X14679540Y14045504D01*
X14774891Y14275134D01*
X14775108Y14523775D01*
X14680158Y14753571D01*
X14504496Y14929540D01*
X14274866Y15024891D01*
X14196792Y15024959D01*
X13775000Y15446752D01*
X13775000Y16400000D01*
X13811157Y16218225D01*
X13914124Y16064124D01*
X14574959Y15403289D01*
X14574892Y15326225D01*
X14669842Y15096429D01*
X14845504Y14920460D01*
X15075134Y14825109D01*
X15323775Y14824892D01*
X15553571Y14919842D01*
X15729540Y15095504D01*
X15824891Y15325134D01*
X15825108Y15573775D01*
X15730158Y15803571D01*
X15554496Y15979540D01*
X15324866Y16074891D01*
X15246793Y16074959D01*
X14725000Y16596752D01*
X14725000Y17591059D01*
X14779540Y17645504D01*
X14874891Y17875134D01*
X14875108Y18123775D01*
X14780158Y18353571D01*
X14604496Y18529540D01*
X14374866Y18624891D01*
X14126225Y18625108D01*
X13896429Y18530158D01*
X13775000Y18408941D01*
X13775000Y19003248D01*
X15096752Y20325000D01*
X22291059Y20325000D01*
X22345504Y20270460D01*
X22575134Y20175109D01*
X22823775Y20174892D01*
X23053571Y20269842D01*
X23229540Y20445504D01*
X23324891Y20675134D01*
X23325108Y20923775D01*
X23230158Y21153571D01*
X23054496Y21329540D01*
X22824866Y21424891D01*
X22576225Y21425108D01*
X22346429Y21330158D01*
X22291175Y21275000D01*
X14900005Y21275000D01*
X14900000Y21275001D01*
X14748384Y21244842D01*
X14718225Y21238843D01*
X14564124Y21135876D01*
X12964124Y19535876D01*
X12861157Y19381775D01*
X12825000Y19200000D01*
X12825000Y17858941D01*
X12770460Y17804496D01*
X12675109Y17574866D01*
X12674892Y17326225D01*
X375000Y17326225D01*
X375000Y21562843D01*
X42549749Y21562843D01*
X42770033Y21029714D01*
X43177569Y20621467D01*
X43710312Y20400252D01*
X44287157Y20399749D01*
X44820286Y20620033D01*
X45228533Y21027569D01*
X45449748Y21560312D01*
X45450251Y22137157D01*
X45229967Y22670286D01*
X44822431Y23078533D01*
X44289688Y23299748D01*
X43712843Y23300251D01*
X43179714Y23079967D01*
X42771467Y22672431D01*
X42550252Y22139688D01*
X42549749Y21562843D01*
X375000Y21562843D01*
X375000Y29888578D01*
X674684Y29888578D01*
X951938Y29217571D01*
X1464871Y28703742D01*
X2135392Y28425317D01*
X2861422Y28424684D01*
X3532429Y28701938D01*
X4046258Y29214871D01*
X4324683Y29885392D01*
X4324685Y29888578D01*
X36174684Y29888578D01*
X36451938Y29217571D01*
X36964871Y28703742D01*
X37635392Y28425317D01*
X38361422Y28424684D01*
X39032429Y28701938D01*
X39546258Y29214871D01*
X39824683Y29885392D01*
X39825316Y30611422D01*
X39548062Y31282429D01*
X39035129Y31796258D01*
X38364608Y32074683D01*
X37638578Y32075316D01*
X36967571Y31798062D01*
X36453742Y31285129D01*
X36175317Y30614608D01*
X36174684Y29888578D01*
X4324685Y29888578D01*
X4325316Y30611422D01*
X4048062Y31282429D01*
X3535129Y31796258D01*
X2864608Y32074683D01*
X2138578Y32075316D01*
X1467571Y31798062D01*
X953742Y31285129D01*
X675317Y30614608D01*
X674684Y29888578D01*
X375000Y29888578D01*
X375000Y32875000D01*
X53375000Y32875000D01*
X53375000Y375000D01*
M02*
