G04 #@! TF.FileFunction,Copper,L1,Top,Signal*
%FSLAX46Y46*%
G04 Gerber Fmt 4.6, Leading zero omitted, Abs format (unit mm)*
G04 Created by KiCad (PCBNEW 4.0.7) date 04/07/18 18:35:28*
%MOMM*%
%LPD*%
G01*
G04 APERTURE LIST*
%ADD10C,0.100000*%
%ADD11R,0.750000X0.400000*%
%ADD12C,0.600000*%
%ADD13R,1.500000X1.950000*%
%ADD14R,1.000000X3.500000*%
%ADD15R,1.500000X3.400000*%
%ADD16R,0.800000X0.750000*%
%ADD17R,1.000000X1.600000*%
%ADD18R,3.000000X1.000000*%
%ADD19R,0.750000X0.800000*%
%ADD20R,0.600000X0.400000*%
%ADD21R,0.400000X0.600000*%
%ADD22C,1.000000*%
%ADD23C,2.250000*%
%ADD24R,1.050000X0.450000*%
%ADD25R,1.470000X0.895000*%
%ADD26R,1.390000X1.400000*%
%ADD27R,3.360000X4.860000*%
%ADD28R,0.800000X0.800000*%
%ADD29R,0.900000X0.800000*%
%ADD30R,3.200000X1.600000*%
%ADD31R,3.500000X1.000000*%
%ADD32R,3.400000X1.500000*%
%ADD33R,0.900000X0.500000*%
%ADD34R,0.500000X0.900000*%
%ADD35C,0.300000*%
%ADD36C,0.500000*%
%ADD37C,0.750000*%
%ADD38C,0.250000*%
G04 APERTURE END LIST*
D10*
D11*
X12950000Y15750000D03*
X11050000Y16400000D03*
X11050000Y15100000D03*
X11050000Y15750000D03*
X12950000Y15100000D03*
X12950000Y16400000D03*
D12*
X9900000Y15500000D03*
X32400000Y13800000D03*
X28000000Y9100000D03*
X28000000Y8250000D03*
D13*
X39500000Y15975000D03*
X39500000Y13225000D03*
D12*
X24250000Y21000000D03*
X15250000Y26250000D03*
X15250000Y27050000D03*
X17900000Y22650000D03*
X17900000Y21850000D03*
X17100000Y21850000D03*
X17100000Y22650000D03*
X15500000Y22650000D03*
X15500000Y21850000D03*
X16300000Y21850000D03*
X16300000Y22650000D03*
X10100000Y31000000D03*
X10100000Y30200000D03*
X9300000Y30200000D03*
X9300000Y31000000D03*
X10900000Y31000000D03*
X10900000Y30200000D03*
X11700000Y30200000D03*
X11700000Y31000000D03*
D14*
X12500000Y24875000D03*
X10500000Y24875000D03*
X8500000Y24875000D03*
D15*
X14850000Y30625000D03*
X6150000Y30625000D03*
D12*
X10400000Y19900000D03*
X32400000Y21900000D03*
X31650000Y21900000D03*
X37250000Y13400000D03*
X37250000Y11800000D03*
X37250000Y12600000D03*
X37250000Y11000000D03*
X21150000Y4650000D03*
X26500000Y15550000D03*
X27300000Y16350000D03*
X38000000Y3750000D03*
X38800000Y3750000D03*
X38800000Y4550000D03*
X38000000Y4550000D03*
X18250000Y19350000D03*
X7600000Y16800000D03*
X12400000Y19900000D03*
X33975000Y19050000D03*
X33975000Y18250000D03*
X34775000Y18250000D03*
X34775000Y19050000D03*
X34775000Y20650000D03*
X34775000Y19850000D03*
X33975000Y19850000D03*
X33975000Y20650000D03*
X34800000Y15850000D03*
X34800000Y15050000D03*
X34000000Y15050000D03*
X34000000Y15850000D03*
X42200000Y11100000D03*
X42200000Y11900000D03*
X41400000Y11900000D03*
X41400000Y11100000D03*
X41400000Y9500000D03*
X41400000Y10300000D03*
X42200000Y10300000D03*
X42200000Y9500000D03*
X34000000Y17450000D03*
X34000000Y16650000D03*
X34800000Y16650000D03*
X34800000Y17450000D03*
X29900000Y31400000D03*
X29900000Y30600000D03*
X29100000Y30600000D03*
X29100000Y31400000D03*
X27500000Y31400000D03*
X27500000Y30600000D03*
X28300000Y30600000D03*
X28300000Y31400000D03*
X28300000Y29800000D03*
X28300000Y29000000D03*
X27500000Y29000000D03*
X27500000Y29800000D03*
X29100000Y29800000D03*
X29100000Y29000000D03*
X29900000Y29000000D03*
X29900000Y29800000D03*
X33400000Y7150000D03*
X33400000Y6350000D03*
X32600000Y6350000D03*
X32600000Y7150000D03*
X31000000Y7150000D03*
X31000000Y6350000D03*
X31800000Y6350000D03*
X31800000Y7150000D03*
X12100000Y4700000D03*
X12100000Y3900000D03*
X11300000Y3900000D03*
X11300000Y4700000D03*
X9700000Y4700000D03*
X9700000Y3900000D03*
X10500000Y3900000D03*
X10500000Y4700000D03*
X10500000Y3100000D03*
X10500000Y2300000D03*
X9700000Y2300000D03*
X9700000Y3100000D03*
X11300000Y3100000D03*
X11300000Y2300000D03*
X12100000Y2300000D03*
X12100000Y3100000D03*
X20350000Y4650000D03*
X19550000Y4650000D03*
X19550000Y3850000D03*
X20350000Y3850000D03*
X21150000Y3850000D03*
X18250000Y17750000D03*
X18250000Y18550000D03*
X19200000Y13300000D03*
X19200000Y12500000D03*
X18400000Y12500000D03*
X18400000Y13300000D03*
X20000000Y13300000D03*
X20000000Y12500000D03*
X20800000Y12500000D03*
X20800000Y13300000D03*
X50500000Y28950000D03*
X50500000Y28150000D03*
X49700000Y28150000D03*
X49700000Y28950000D03*
X48100000Y28950000D03*
X48100000Y28150000D03*
X48900000Y28150000D03*
X48900000Y28950000D03*
X48900000Y30550000D03*
X48900000Y29750000D03*
X48100000Y29750000D03*
X48100000Y30550000D03*
X49700000Y30550000D03*
X49700000Y29750000D03*
X50500000Y29750000D03*
X50500000Y30550000D03*
X4250000Y22900000D03*
X4250000Y22100000D03*
X3450000Y22100000D03*
X3450000Y22900000D03*
X1850000Y22900000D03*
X1850000Y22100000D03*
X2650000Y22100000D03*
X2650000Y22900000D03*
X2650000Y21300000D03*
X2650000Y20500000D03*
X1850000Y20500000D03*
X1850000Y21300000D03*
X3450000Y21300000D03*
X3450000Y20500000D03*
X4250000Y20500000D03*
X4250000Y21300000D03*
X4250000Y10200000D03*
X4250000Y9400000D03*
X3450000Y9400000D03*
X3450000Y10200000D03*
X1850000Y10200000D03*
X1850000Y9400000D03*
X2650000Y9400000D03*
X2650000Y10200000D03*
X2650000Y11800000D03*
X2650000Y11000000D03*
X1850000Y11000000D03*
X1850000Y11800000D03*
X3450000Y11800000D03*
X3450000Y11000000D03*
X4250000Y11000000D03*
X4250000Y11800000D03*
X16700000Y11050000D03*
X17500000Y11050000D03*
X17500000Y10250000D03*
X25050000Y21000000D03*
X16700000Y10250000D03*
X51500000Y6250000D03*
X51500000Y5450000D03*
X50700000Y5450000D03*
X50700000Y6250000D03*
X49100000Y6250000D03*
X49100000Y5450000D03*
X49900000Y5450000D03*
X49900000Y6250000D03*
X49900000Y4650000D03*
X49900000Y3850000D03*
X49100000Y3850000D03*
X49100000Y4650000D03*
X50700000Y4650000D03*
X50700000Y3850000D03*
X51500000Y3850000D03*
X51500000Y4650000D03*
X20800000Y15000000D03*
X20800000Y14200000D03*
X20000000Y14200000D03*
X20000000Y15000000D03*
X18400000Y15000000D03*
X18400000Y14200000D03*
X19200000Y14200000D03*
X19200000Y15000000D03*
X19200000Y16600000D03*
X19200000Y15800000D03*
X18400000Y15800000D03*
X18400000Y16600000D03*
X20000000Y16600000D03*
X20000000Y15800000D03*
X20800000Y15800000D03*
X20800000Y16600000D03*
X28100000Y15550000D03*
X27300000Y15550000D03*
X28100000Y16350000D03*
X29200000Y13800000D03*
X31600000Y13800000D03*
X30000000Y13800000D03*
X30800000Y13800000D03*
D16*
X15050000Y11750000D03*
X13550000Y11750000D03*
D17*
X29250000Y8750000D03*
X32250000Y8750000D03*
D18*
X19750000Y5950000D03*
X19750000Y10550000D03*
D19*
X16750000Y18000000D03*
X16750000Y19500000D03*
D16*
X21300000Y17950000D03*
X19800000Y17950000D03*
D20*
X23950000Y17850000D03*
X23950000Y18750000D03*
X22700000Y18750000D03*
X22700000Y17850000D03*
D21*
X12150000Y13000000D03*
X13050000Y13000000D03*
D22*
X2500000Y6000000D03*
X38000000Y27500000D03*
X2500000Y27500000D03*
D23*
X44000000Y21850000D03*
X44000000Y17250000D03*
D24*
X22425000Y12175000D03*
X22425000Y12825000D03*
X22425000Y13475000D03*
X22425000Y14125000D03*
X22425000Y14775000D03*
X22425000Y15425000D03*
X22425000Y16075000D03*
X22425000Y16725000D03*
X16875000Y16725000D03*
X16875000Y16075000D03*
X16875000Y15425000D03*
X16875000Y14775000D03*
X16875000Y14125000D03*
X16875000Y13475000D03*
X16875000Y12825000D03*
X16875000Y12175000D03*
D25*
X18915000Y15792500D03*
X18915000Y14897500D03*
X18915000Y14002500D03*
X18915000Y13107500D03*
X20385000Y15792500D03*
X20385000Y14897500D03*
X20385000Y14002500D03*
X20385000Y13107500D03*
D26*
X24820000Y10356000D03*
D27*
X23900000Y6374000D03*
D26*
X22980000Y10356000D03*
D28*
X38300000Y22500000D03*
X39900000Y22500000D03*
D19*
X15400000Y18000000D03*
X15400000Y19500000D03*
D29*
X18000000Y26150000D03*
X18000000Y24250000D03*
X20000000Y25200000D03*
X18000000Y29650000D03*
X18000000Y27750000D03*
X20000000Y28700000D03*
D30*
X31500000Y20200000D03*
X31500000Y11300000D03*
D14*
X30250000Y24875000D03*
X28250000Y24875000D03*
X26250000Y24875000D03*
X24250000Y24875000D03*
D15*
X32600000Y30625000D03*
X21900000Y30625000D03*
D14*
X8500000Y8375000D03*
X10500000Y8375000D03*
X12500000Y8375000D03*
X14500000Y8375000D03*
D15*
X6150000Y2625000D03*
X16850000Y2625000D03*
D31*
X45375000Y4000000D03*
X45375000Y6000000D03*
D32*
X51125000Y1650000D03*
X51125000Y8350000D03*
D14*
X37250000Y8375000D03*
X39250000Y8375000D03*
D15*
X34900000Y2625000D03*
X41600000Y2625000D03*
D16*
X8500000Y18500000D03*
X10000000Y18500000D03*
D33*
X16500000Y25250000D03*
X16500000Y23750000D03*
X16500000Y28750000D03*
X16500000Y27250000D03*
D34*
X38450000Y20600000D03*
X39950000Y20600000D03*
X7250000Y15300000D03*
X5750000Y15300000D03*
X7250000Y13150000D03*
X5750000Y13150000D03*
D12*
X15750000Y9500000D03*
X14000000Y13550000D03*
X14250000Y18000000D03*
X15200000Y15450000D03*
X11350000Y14100000D03*
X9050000Y13150000D03*
X22700000Y20800000D03*
X13300000Y17450000D03*
X14150000Y14400000D03*
X21300000Y19300000D03*
D35*
X17900000Y27750000D02*
X17500000Y27750000D01*
X17500000Y27750000D02*
X17300000Y27550000D01*
X17300000Y27550000D02*
X16500000Y27550000D01*
X17900000Y24250000D02*
X17500000Y24250000D01*
X17500000Y24250000D02*
X17300000Y24050000D01*
X17300000Y24050000D02*
X16500000Y24050000D01*
X23950000Y18750000D02*
X23950000Y20700000D01*
X23950000Y20700000D02*
X24250000Y21000000D01*
X39250000Y8375000D02*
X39250000Y10750000D01*
X39500000Y11000000D02*
X39500000Y13225000D01*
X39250000Y10750000D02*
X39500000Y11000000D01*
X45375000Y4000000D02*
X43750000Y4000000D01*
X43750000Y4000000D02*
X41750000Y6000000D01*
X41750000Y6000000D02*
X41750000Y7000000D01*
X41750000Y7000000D02*
X40375000Y8375000D01*
X40375000Y8375000D02*
X39250000Y8375000D01*
X18915000Y14092500D02*
X18915000Y13197500D01*
X18915000Y13197500D02*
X18915000Y12302500D01*
X18915000Y12302500D02*
X20385000Y12302500D01*
X20385000Y14092500D02*
X20385000Y13197500D01*
X20385000Y13197500D02*
X20385000Y12302500D01*
X15400000Y19500000D02*
X15150000Y19500000D01*
X13550000Y11750000D02*
X12600000Y11750000D01*
X12150000Y12200000D02*
X12400000Y11950000D01*
X12150000Y12200000D02*
X12150000Y13000000D01*
X12600000Y11750000D02*
X12400000Y11950000D01*
X18915000Y14002500D02*
X18915000Y13107500D01*
X20385000Y10935000D02*
X20000000Y10550000D01*
X20385000Y14002500D02*
X20385000Y13107500D01*
X20385000Y14897500D02*
X20385000Y14002500D01*
X20385000Y15792500D02*
X20385000Y14897500D01*
X18915000Y14002500D02*
X20385000Y14002500D01*
X18915000Y14897500D02*
X18915000Y14002500D01*
X18915000Y15792500D02*
X18915000Y14897500D01*
X20385000Y15792500D02*
X18915000Y15792500D01*
X19800000Y16377500D02*
X20385000Y15792500D01*
X11050000Y15750000D02*
X10000000Y15750000D01*
X10000000Y15750000D02*
X9900000Y15650000D01*
X39800000Y22600000D02*
X39950000Y22750000D01*
X20000000Y5950000D02*
X23424000Y5950000D01*
X23424000Y5950000D02*
X24250000Y5124000D01*
X15050000Y11750000D02*
X16450000Y11750000D01*
X16450000Y11750000D02*
X16875000Y12175000D01*
X22425000Y12175000D02*
X23330000Y12175000D01*
X23200000Y12200000D02*
X23330000Y12200000D01*
X23305000Y12200000D02*
X23200000Y12200000D01*
X23330000Y12175000D02*
X23305000Y12200000D01*
X22425000Y12825000D02*
X22425000Y12175000D01*
X23330000Y12200000D02*
X23330000Y12420000D01*
X23330000Y12420000D02*
X22925000Y12825000D01*
X22925000Y12825000D02*
X22425000Y12825000D01*
X22700000Y17850000D02*
X23950000Y17850000D01*
X13050000Y13000000D02*
X13500000Y13000000D01*
X13675000Y12825000D02*
X16875000Y12825000D01*
X13500000Y13000000D02*
X13675000Y12825000D01*
D36*
X45375000Y6000000D02*
X45375000Y15875000D01*
X45375000Y15875000D02*
X44000000Y17250000D01*
D35*
X16750000Y18000000D02*
X16750000Y16850000D01*
X16750000Y16850000D02*
X16875000Y16725000D01*
X38300000Y22500000D02*
X38300000Y20750000D01*
X38300000Y20750000D02*
X38450000Y20600000D01*
X38250000Y22450000D02*
X38300000Y22500000D01*
X16875000Y13475000D02*
X14075000Y13475000D01*
X15275000Y9025000D02*
X14500000Y9025000D01*
X15750000Y9500000D02*
X15275000Y9025000D01*
X14075000Y13475000D02*
X14000000Y13550000D01*
X14500000Y9150000D02*
X14500000Y9025000D01*
X8500000Y24875000D02*
X8500000Y23250000D01*
X8500000Y23250000D02*
X11000000Y20750000D01*
X11000000Y20750000D02*
X12800000Y20750000D01*
X12800000Y20750000D02*
X14250000Y19300000D01*
X14250000Y19300000D02*
X14250000Y18000000D01*
X16875000Y15425000D02*
X15225000Y15425000D01*
X14250000Y18000000D02*
X15400000Y18000000D01*
X15225000Y15425000D02*
X15200000Y15450000D01*
X5750000Y15300000D02*
X5750000Y16550000D01*
X7700000Y18500000D02*
X8500000Y18500000D01*
X5750000Y16550000D02*
X7700000Y18500000D01*
X5750000Y13150000D02*
X5750000Y15300000D01*
X8500000Y8375000D02*
X8500000Y11000000D01*
X5750000Y12350000D02*
X5750000Y13150000D01*
X6600000Y11500000D02*
X5750000Y12350000D01*
X8000000Y11500000D02*
X6600000Y11500000D01*
X8500000Y11000000D02*
X8000000Y11500000D01*
X9750000Y16400000D02*
X11050000Y16400000D01*
X8625000Y17525000D02*
X9750000Y16400000D01*
X8625000Y18500000D02*
X8625000Y17525000D01*
X12500000Y9025000D02*
X12500000Y10750000D01*
X12500000Y10750000D02*
X11350000Y11900000D01*
X11350000Y11900000D02*
X11350000Y14100000D01*
X7450000Y13150000D02*
X9050000Y13150000D01*
X12950000Y14850000D02*
X12950000Y15100000D01*
X12200000Y14100000D02*
X12950000Y14850000D01*
X11350000Y14100000D02*
X12200000Y14100000D01*
X7450000Y15300000D02*
X8800000Y15300000D01*
X9600000Y14500000D02*
X10500000Y14500000D01*
X8800000Y15300000D02*
X9600000Y14500000D01*
X10500000Y9025000D02*
X10500000Y14500000D01*
X10500000Y14500000D02*
X10500000Y14550000D01*
X10500000Y14550000D02*
X11050000Y15100000D01*
X22700000Y20800000D02*
X22700000Y18750000D01*
X16875000Y14125000D02*
X14425000Y14125000D01*
X12950000Y17100000D02*
X12950000Y16400000D01*
X13300000Y17450000D02*
X12950000Y17100000D01*
X14425000Y14125000D02*
X14150000Y14400000D01*
X12950000Y16400000D02*
X15200000Y16400000D01*
X15525000Y16075000D02*
X16875000Y16075000D01*
X15200000Y16400000D02*
X15525000Y16075000D01*
X12950000Y15750000D02*
X13750000Y15750000D01*
X14725000Y14775000D02*
X16875000Y14775000D01*
X13750000Y15750000D02*
X14725000Y14775000D01*
X29250000Y8750000D02*
X28350000Y8750000D01*
X28350000Y8750000D02*
X28000000Y9100000D01*
X37250000Y8375000D02*
X37250000Y11000000D01*
X39500000Y15975000D02*
X38725000Y15975000D01*
X37250000Y14500000D02*
X37250000Y8375000D01*
X38725000Y15975000D02*
X37250000Y14500000D01*
X39500000Y15975000D02*
X39500000Y17750000D01*
X40150000Y18400000D02*
X40150000Y20600000D01*
X39500000Y17750000D02*
X40150000Y18400000D01*
X40150000Y20600000D02*
X41100000Y20600000D01*
X42350000Y21850000D02*
X44000000Y21850000D01*
X41100000Y20600000D02*
X42350000Y21850000D01*
X29250000Y8750000D02*
X28750000Y8750000D01*
X21300000Y17950000D02*
X21300000Y19300000D01*
D37*
X26250000Y24875000D02*
X26250000Y23250000D01*
X26250000Y23250000D02*
X25250000Y22250000D01*
X25250000Y22250000D02*
X23250000Y22250000D01*
X23250000Y22250000D02*
X20300000Y25200000D01*
X20300000Y25200000D02*
X19900000Y25200000D01*
X24250000Y24875000D02*
X23725000Y24875000D01*
X23725000Y24875000D02*
X19900000Y28700000D01*
D35*
X12500000Y24875000D02*
X16425000Y24875000D01*
X16425000Y24875000D02*
X16500000Y24950000D01*
X16500000Y24950000D02*
X16500000Y25500000D01*
X17150000Y26150000D02*
X17900000Y26150000D01*
X16500000Y25500000D02*
X17150000Y26150000D01*
X10500000Y24875000D02*
X10500000Y26250000D01*
X10500000Y26250000D02*
X12500000Y28250000D01*
X16000000Y28250000D02*
X16200000Y28450000D01*
X12500000Y28250000D02*
X16000000Y28250000D01*
X16200000Y28450000D02*
X16500000Y28450000D01*
X16500000Y28450000D02*
X16500000Y29000000D01*
X17150000Y29650000D02*
X17900000Y29650000D01*
X16500000Y29000000D02*
X17150000Y29650000D01*
X10500000Y24875000D02*
X10500000Y26500000D01*
D38*
G36*
X25475000Y3475000D02*
X18375000Y3475000D01*
X18375000Y8675000D01*
X25475000Y8675000D01*
X25475000Y3475000D01*
X25475000Y3475000D01*
G37*
X25475000Y3475000D02*
X18375000Y3475000D01*
X18375000Y8675000D01*
X25475000Y8675000D01*
X25475000Y3475000D01*
G36*
X32975000Y10525000D02*
X26300000Y10525000D01*
X26251368Y10515152D01*
X26211612Y10488388D01*
X25448224Y9725000D01*
X22425000Y9725000D01*
X22425000Y11550000D01*
X22415152Y11598632D01*
X22388388Y11638388D01*
X22025000Y12001776D01*
X22025000Y12918633D01*
X22950000Y12918633D01*
X22983838Y12925000D01*
X32975000Y12925000D01*
X32975000Y10525000D01*
X32975000Y10525000D01*
G37*
X32975000Y10525000D02*
X26300000Y10525000D01*
X26251368Y10515152D01*
X26211612Y10488388D01*
X25448224Y9725000D01*
X22425000Y9725000D01*
X22425000Y11550000D01*
X22415152Y11598632D01*
X22388388Y11638388D01*
X22025000Y12001776D01*
X22025000Y12918633D01*
X22950000Y12918633D01*
X22983838Y12925000D01*
X32975000Y12925000D01*
X32975000Y10525000D01*
G36*
X33025000Y13375000D02*
X22981441Y13375000D01*
X22950000Y13381367D01*
X22025000Y13381367D01*
X22025000Y14218633D01*
X22950000Y14218633D01*
X22983838Y14225000D01*
X33025000Y14225000D01*
X33025000Y13375000D01*
X33025000Y13375000D01*
G37*
X33025000Y13375000D02*
X22981441Y13375000D01*
X22950000Y13381367D01*
X22025000Y13381367D01*
X22025000Y14218633D01*
X22950000Y14218633D01*
X22983838Y14225000D01*
X33025000Y14225000D01*
X33025000Y13375000D01*
G36*
X33025000Y14675000D02*
X22981441Y14675000D01*
X22950000Y14681367D01*
X22025000Y14681367D01*
X22025000Y14868633D01*
X22950000Y14868633D01*
X22983838Y14875000D01*
X28350000Y14875000D01*
X28398632Y14884848D01*
X28438388Y14911612D01*
X29088388Y15561612D01*
X29115813Y15602963D01*
X29125000Y15650000D01*
X29125000Y17448224D01*
X29988388Y18311612D01*
X30015813Y18352963D01*
X30025000Y18400000D01*
X30025000Y20335466D01*
X30042026Y20334005D01*
X30089219Y20349329D01*
X30126732Y20381808D01*
X30148654Y20426322D01*
X30149447Y20486885D01*
X30057911Y20875000D01*
X33025000Y20875000D01*
X33025000Y14675000D01*
X33025000Y14675000D01*
G37*
X33025000Y14675000D02*
X22981441Y14675000D01*
X22950000Y14681367D01*
X22025000Y14681367D01*
X22025000Y14868633D01*
X22950000Y14868633D01*
X22983838Y14875000D01*
X28350000Y14875000D01*
X28398632Y14884848D01*
X28438388Y14911612D01*
X29088388Y15561612D01*
X29115813Y15602963D01*
X29125000Y15650000D01*
X29125000Y17448224D01*
X29988388Y18311612D01*
X30015813Y18352963D01*
X30025000Y18400000D01*
X30025000Y20335466D01*
X30042026Y20334005D01*
X30089219Y20349329D01*
X30126732Y20381808D01*
X30148654Y20426322D01*
X30149447Y20486885D01*
X30057911Y20875000D01*
X33025000Y20875000D01*
X33025000Y14675000D01*
G36*
X28525000Y15601776D02*
X28248224Y15325000D01*
X22981441Y15325000D01*
X22950000Y15331367D01*
X22025000Y15331367D01*
X22025000Y15518633D01*
X22950000Y15518633D01*
X22983838Y15525000D01*
X26100000Y15525000D01*
X26148632Y15534848D01*
X26188388Y15561612D01*
X27301776Y16675000D01*
X28525000Y16675000D01*
X28525000Y15601776D01*
X28525000Y15601776D01*
G37*
X28525000Y15601776D02*
X28248224Y15325000D01*
X22981441Y15325000D01*
X22950000Y15331367D01*
X22025000Y15331367D01*
X22025000Y15518633D01*
X22950000Y15518633D01*
X22983838Y15525000D01*
X26100000Y15525000D01*
X26148632Y15534848D01*
X26188388Y15561612D01*
X27301776Y16675000D01*
X28525000Y16675000D01*
X28525000Y15601776D01*
G36*
X20475000Y27275000D02*
X19475000Y27275000D01*
X19475000Y30025000D01*
X20475000Y30025000D01*
X20475000Y27275000D01*
X20475000Y27275000D01*
G37*
X20475000Y27275000D02*
X19475000Y27275000D01*
X19475000Y30025000D01*
X20475000Y30025000D01*
X20475000Y27275000D01*
G36*
X20475000Y23875000D02*
X19475000Y23875000D01*
X19475000Y26625000D01*
X20475000Y26625000D01*
X20475000Y23875000D01*
X20475000Y23875000D01*
G37*
X20475000Y23875000D02*
X19475000Y23875000D01*
X19475000Y26625000D01*
X20475000Y26625000D01*
X20475000Y23875000D01*
G36*
X30625000Y22401776D02*
X29411612Y21188388D01*
X29384187Y21147037D01*
X29375000Y21100000D01*
X29375000Y18801776D01*
X27948224Y17375000D01*
X27150000Y17375000D01*
X27101368Y17365152D01*
X27061612Y17338388D01*
X25698224Y15975000D01*
X22981441Y15975000D01*
X22950000Y15981367D01*
X22025000Y15981367D01*
X22025000Y16168633D01*
X22950000Y16168633D01*
X22983838Y16175000D01*
X23400000Y16175000D01*
X23448632Y16184848D01*
X23488388Y16211612D01*
X27838388Y20561612D01*
X27865813Y20602963D01*
X27875000Y20650000D01*
X27875000Y26525000D01*
X30625000Y26525000D01*
X30625000Y22401776D01*
X30625000Y22401776D01*
G37*
X30625000Y22401776D02*
X29411612Y21188388D01*
X29384187Y21147037D01*
X29375000Y21100000D01*
X29375000Y18801776D01*
X27948224Y17375000D01*
X27150000Y17375000D01*
X27101368Y17365152D01*
X27061612Y17338388D01*
X25698224Y15975000D01*
X22981441Y15975000D01*
X22950000Y15981367D01*
X22025000Y15981367D01*
X22025000Y16168633D01*
X22950000Y16168633D01*
X22983838Y16175000D01*
X23400000Y16175000D01*
X23448632Y16184848D01*
X23488388Y16211612D01*
X27838388Y20561612D01*
X27865813Y20602963D01*
X27875000Y20650000D01*
X27875000Y26525000D01*
X30625000Y26525000D01*
X30625000Y22401776D01*
G36*
X45375000Y19925000D02*
X42200000Y19925000D01*
X42151368Y19915152D01*
X42111612Y19888388D01*
X40811612Y18588388D01*
X40784187Y18547037D01*
X40775000Y18500000D01*
X40775000Y15125000D01*
X38800000Y15125000D01*
X38751368Y15115152D01*
X38711612Y15088388D01*
X37911612Y14288388D01*
X37884187Y14247037D01*
X37875000Y14200000D01*
X37875000Y6725000D01*
X36575000Y6725000D01*
X36575000Y16298224D01*
X39688388Y19411612D01*
X39715813Y19452963D01*
X39725000Y19500000D01*
X39725000Y20898969D01*
X43084324Y20898969D01*
X43211303Y20721919D01*
X43703037Y20505967D01*
X44239981Y20494633D01*
X44740390Y20689641D01*
X44788697Y20721919D01*
X44915676Y20898969D01*
X44000000Y21814645D01*
X43084324Y20898969D01*
X39725000Y20898969D01*
X39725000Y21375000D01*
X40700000Y21375000D01*
X40748632Y21384848D01*
X40788388Y21411612D01*
X40986795Y21610019D01*
X42644633Y21610019D01*
X42839641Y21109610D01*
X42871919Y21061303D01*
X43048969Y20934324D01*
X43964645Y21850000D01*
X44035355Y21850000D01*
X44951031Y20934324D01*
X45128081Y21061303D01*
X45344033Y21553037D01*
X45355367Y22089981D01*
X45160359Y22590390D01*
X45128081Y22638697D01*
X44951031Y22765676D01*
X44035355Y21850000D01*
X43964645Y21850000D01*
X43048969Y22765676D01*
X42871919Y22638697D01*
X42655967Y22146963D01*
X42644633Y21610019D01*
X40986795Y21610019D01*
X42177807Y22801031D01*
X43084324Y22801031D01*
X44000000Y21885355D01*
X44915676Y22801031D01*
X44788697Y22978081D01*
X44296963Y23194033D01*
X43760019Y23205367D01*
X43259610Y23010359D01*
X43211303Y22978081D01*
X43084324Y22801031D01*
X42177807Y22801031D01*
X42951776Y23575000D01*
X45375000Y23575000D01*
X45375000Y19925000D01*
X45375000Y19925000D01*
G37*
X45375000Y19925000D02*
X42200000Y19925000D01*
X42151368Y19915152D01*
X42111612Y19888388D01*
X40811612Y18588388D01*
X40784187Y18547037D01*
X40775000Y18500000D01*
X40775000Y15125000D01*
X38800000Y15125000D01*
X38751368Y15115152D01*
X38711612Y15088388D01*
X37911612Y14288388D01*
X37884187Y14247037D01*
X37875000Y14200000D01*
X37875000Y6725000D01*
X36575000Y6725000D01*
X36575000Y16298224D01*
X39688388Y19411612D01*
X39715813Y19452963D01*
X39725000Y19500000D01*
X39725000Y20898969D01*
X43084324Y20898969D01*
X43211303Y20721919D01*
X43703037Y20505967D01*
X44239981Y20494633D01*
X44740390Y20689641D01*
X44788697Y20721919D01*
X44915676Y20898969D01*
X44000000Y21814645D01*
X43084324Y20898969D01*
X39725000Y20898969D01*
X39725000Y21375000D01*
X40700000Y21375000D01*
X40748632Y21384848D01*
X40788388Y21411612D01*
X40986795Y21610019D01*
X42644633Y21610019D01*
X42839641Y21109610D01*
X42871919Y21061303D01*
X43048969Y20934324D01*
X43964645Y21850000D01*
X44035355Y21850000D01*
X44951031Y20934324D01*
X45128081Y21061303D01*
X45344033Y21553037D01*
X45355367Y22089981D01*
X45160359Y22590390D01*
X45128081Y22638697D01*
X44951031Y22765676D01*
X44035355Y21850000D01*
X43964645Y21850000D01*
X43048969Y22765676D01*
X42871919Y22638697D01*
X42655967Y22146963D01*
X42644633Y21610019D01*
X40986795Y21610019D01*
X42177807Y22801031D01*
X43084324Y22801031D01*
X44000000Y21885355D01*
X44915676Y22801031D01*
X44788697Y22978081D01*
X44296963Y23194033D01*
X43760019Y23205367D01*
X43259610Y23010359D01*
X43211303Y22978081D01*
X43084324Y22801031D01*
X42177807Y22801031D01*
X42951776Y23575000D01*
X45375000Y23575000D01*
X45375000Y19925000D01*
G36*
X46975000Y5625000D02*
X43825000Y5625000D01*
X43825000Y14700000D01*
X43815152Y14748632D01*
X43788388Y14788388D01*
X42525000Y16051776D01*
X42525000Y16298969D01*
X43084324Y16298969D01*
X43211303Y16121919D01*
X43703037Y15905967D01*
X44239981Y15894633D01*
X44740390Y16089641D01*
X44788697Y16121919D01*
X44915676Y16298969D01*
X44000000Y17214645D01*
X43084324Y16298969D01*
X42525000Y16298969D01*
X42525000Y17010019D01*
X42644633Y17010019D01*
X42839641Y16509610D01*
X42871919Y16461303D01*
X43048969Y16334324D01*
X43964645Y17250000D01*
X44035355Y17250000D01*
X44951031Y16334324D01*
X45128081Y16461303D01*
X45344033Y16953037D01*
X45355367Y17489981D01*
X45160359Y17990390D01*
X45128081Y18038697D01*
X44951031Y18165676D01*
X44035355Y17250000D01*
X43964645Y17250000D01*
X43048969Y18165676D01*
X42871919Y18038697D01*
X42655967Y17546963D01*
X42644633Y17010019D01*
X42525000Y17010019D01*
X42525000Y18201031D01*
X43084324Y18201031D01*
X44000000Y17285355D01*
X44915676Y18201031D01*
X44788697Y18378081D01*
X44296963Y18594033D01*
X43760019Y18605367D01*
X43259610Y18410359D01*
X43211303Y18378081D01*
X43084324Y18201031D01*
X42525000Y18201031D01*
X42525000Y19175000D01*
X46975000Y19175000D01*
X46975000Y5625000D01*
X46975000Y5625000D01*
G37*
X46975000Y5625000D02*
X43825000Y5625000D01*
X43825000Y14700000D01*
X43815152Y14748632D01*
X43788388Y14788388D01*
X42525000Y16051776D01*
X42525000Y16298969D01*
X43084324Y16298969D01*
X43211303Y16121919D01*
X43703037Y15905967D01*
X44239981Y15894633D01*
X44740390Y16089641D01*
X44788697Y16121919D01*
X44915676Y16298969D01*
X44000000Y17214645D01*
X43084324Y16298969D01*
X42525000Y16298969D01*
X42525000Y17010019D01*
X42644633Y17010019D01*
X42839641Y16509610D01*
X42871919Y16461303D01*
X43048969Y16334324D01*
X43964645Y17250000D01*
X44035355Y17250000D01*
X44951031Y16334324D01*
X45128081Y16461303D01*
X45344033Y16953037D01*
X45355367Y17489981D01*
X45160359Y17990390D01*
X45128081Y18038697D01*
X44951031Y18165676D01*
X44035355Y17250000D01*
X43964645Y17250000D01*
X43048969Y18165676D01*
X42871919Y18038697D01*
X42655967Y17546963D01*
X42644633Y17010019D01*
X42525000Y17010019D01*
X42525000Y18201031D01*
X43084324Y18201031D01*
X44000000Y17285355D01*
X44915676Y18201031D01*
X44788697Y18378081D01*
X44296963Y18594033D01*
X43760019Y18605367D01*
X43259610Y18410359D01*
X43211303Y18378081D01*
X43084324Y18201031D01*
X42525000Y18201031D01*
X42525000Y19175000D01*
X46975000Y19175000D01*
X46975000Y5625000D01*
G36*
X29625000Y7925000D02*
X27625000Y7925000D01*
X27625000Y9575000D01*
X29625000Y9575000D01*
X29625000Y7925000D01*
X29625000Y7925000D01*
G37*
X29625000Y7925000D02*
X27625000Y7925000D01*
X27625000Y9575000D01*
X29625000Y9575000D01*
X29625000Y7925000D01*
G36*
X53350000Y400000D02*
X400000Y400000D01*
X400000Y2888578D01*
X674684Y2888578D01*
X951938Y2217571D01*
X1464871Y1703742D01*
X2135392Y1425317D01*
X2861422Y1424684D01*
X3532429Y1701938D01*
X4046258Y2214871D01*
X4324683Y2885392D01*
X4325316Y3611422D01*
X4048062Y4282429D01*
X4005566Y4325000D01*
X5068633Y4325000D01*
X5068633Y925000D01*
X5091295Y804562D01*
X5162474Y693947D01*
X5271080Y619740D01*
X5400000Y593633D01*
X6900000Y593633D01*
X7020438Y616295D01*
X7131053Y687474D01*
X7205260Y796080D01*
X7231367Y925000D01*
X7231367Y4325000D01*
X15768633Y4325000D01*
X15768633Y925000D01*
X15791295Y804562D01*
X15862474Y693947D01*
X15971080Y619740D01*
X16100000Y593633D01*
X17600000Y593633D01*
X17720438Y616295D01*
X17831053Y687474D01*
X17905260Y796080D01*
X17931367Y925000D01*
X17931367Y2898478D01*
X17954568Y2883549D01*
X18000000Y2875000D01*
X26000000Y2875000D01*
X26048632Y2884848D01*
X26054091Y2888578D01*
X28674684Y2888578D01*
X28951938Y2217571D01*
X29464871Y1703742D01*
X30135392Y1425317D01*
X30861422Y1424684D01*
X31532429Y1701938D01*
X32046258Y2214871D01*
X32324683Y2885392D01*
X32325316Y3611422D01*
X32048062Y4282429D01*
X32005566Y4325000D01*
X33818633Y4325000D01*
X33818633Y925000D01*
X33841295Y804562D01*
X33912474Y693947D01*
X34021080Y619740D01*
X34150000Y593633D01*
X35650000Y593633D01*
X35770438Y616295D01*
X35881053Y687474D01*
X35955260Y796080D01*
X35981367Y925000D01*
X35981367Y4325000D01*
X40518633Y4325000D01*
X40518633Y925000D01*
X40541295Y804562D01*
X40612474Y693947D01*
X40721080Y619740D01*
X40850000Y593633D01*
X42350000Y593633D01*
X42470438Y616295D01*
X42581053Y687474D01*
X42655260Y796080D01*
X42681367Y925000D01*
X42681367Y2400000D01*
X49093633Y2400000D01*
X49093633Y900000D01*
X49116295Y779562D01*
X49187474Y668947D01*
X49296080Y594740D01*
X49425000Y568633D01*
X52825000Y568633D01*
X52945438Y591295D01*
X53056053Y662474D01*
X53130260Y771080D01*
X53156367Y900000D01*
X53156367Y2400000D01*
X53133705Y2520438D01*
X53062526Y2631053D01*
X52953920Y2705260D01*
X52825000Y2731367D01*
X49425000Y2731367D01*
X49304562Y2708705D01*
X49193947Y2637526D01*
X49119740Y2528920D01*
X49093633Y2400000D01*
X42681367Y2400000D01*
X42681367Y4325000D01*
X42658705Y4445438D01*
X42587526Y4556053D01*
X42478920Y4630260D01*
X42350000Y4656367D01*
X40850000Y4656367D01*
X40729562Y4633705D01*
X40618947Y4562526D01*
X40544740Y4453920D01*
X40518633Y4325000D01*
X35981367Y4325000D01*
X35958705Y4445438D01*
X35887526Y4556053D01*
X35778920Y4630260D01*
X35650000Y4656367D01*
X34150000Y4656367D01*
X34029562Y4633705D01*
X33918947Y4562526D01*
X33844740Y4453920D01*
X33818633Y4325000D01*
X32005566Y4325000D01*
X31535129Y4796258D01*
X30864608Y5074683D01*
X30138578Y5075316D01*
X29467571Y4798062D01*
X28953742Y4285129D01*
X28675317Y3614608D01*
X28674684Y2888578D01*
X26054091Y2888578D01*
X26089601Y2912841D01*
X26116451Y2954568D01*
X26125000Y3000000D01*
X26125000Y7375000D01*
X30500000Y7375000D01*
X30548632Y7384848D01*
X30589601Y7412841D01*
X30616451Y7454568D01*
X30625000Y7500000D01*
X30625000Y9875000D01*
X33500000Y9875000D01*
X33548632Y9884848D01*
X33589601Y9912841D01*
X33616451Y9954568D01*
X33625000Y10000000D01*
X33625000Y16750000D01*
X36125000Y16750000D01*
X36125000Y6250000D01*
X36134848Y6201368D01*
X36162841Y6160399D01*
X36204568Y6133549D01*
X36250000Y6125000D01*
X38250000Y6125000D01*
X38298632Y6134848D01*
X38339601Y6162841D01*
X38366451Y6204568D01*
X38375000Y6250000D01*
X38375000Y13948224D01*
X38801776Y14375000D01*
X43125000Y14375000D01*
X43125000Y5000000D01*
X43134848Y4951368D01*
X43162841Y4910399D01*
X43204568Y4883549D01*
X43250000Y4875000D01*
X47500000Y4875000D01*
X47548632Y4884848D01*
X47589601Y4912841D01*
X47616451Y4954568D01*
X47625000Y5000000D01*
X47625000Y9100000D01*
X49093633Y9100000D01*
X49093633Y7600000D01*
X49116295Y7479562D01*
X49187474Y7368947D01*
X49296080Y7294740D01*
X49425000Y7268633D01*
X52825000Y7268633D01*
X52945438Y7291295D01*
X53056053Y7362474D01*
X53130260Y7471080D01*
X53156367Y7600000D01*
X53156367Y9100000D01*
X53133705Y9220438D01*
X53062526Y9331053D01*
X52953920Y9405260D01*
X52825000Y9431367D01*
X49425000Y9431367D01*
X49304562Y9408705D01*
X49193947Y9337526D01*
X49119740Y9228920D01*
X49093633Y9100000D01*
X47625000Y9100000D01*
X47625000Y19500000D01*
X47615152Y19548632D01*
X47587159Y19589601D01*
X47545432Y19616451D01*
X47500000Y19625000D01*
X45875000Y19625000D01*
X45875000Y24000000D01*
X45865152Y24048632D01*
X45837159Y24089601D01*
X45795432Y24116451D01*
X45750000Y24125000D01*
X42750000Y24125000D01*
X42701368Y24115152D01*
X42661612Y24088388D01*
X40448224Y21875000D01*
X39250000Y21875000D01*
X39201368Y21865152D01*
X39160399Y21837159D01*
X39133549Y21795432D01*
X39125000Y21750000D01*
X39125000Y19801776D01*
X36161612Y16838388D01*
X36134187Y16797037D01*
X36125000Y16750000D01*
X33625000Y16750000D01*
X33625000Y21500000D01*
X33615152Y21548632D01*
X33587159Y21589601D01*
X33545432Y21616451D01*
X33500000Y21625000D01*
X31375000Y21625000D01*
X31375000Y22900000D01*
X37568633Y22900000D01*
X37568633Y22100000D01*
X37591295Y21979562D01*
X37662474Y21868947D01*
X37771080Y21794740D01*
X37825000Y21783821D01*
X37825000Y20750000D01*
X37861157Y20568225D01*
X37868633Y20557036D01*
X37868633Y20150000D01*
X37891295Y20029562D01*
X37962474Y19918947D01*
X38071080Y19844740D01*
X38200000Y19818633D01*
X38700000Y19818633D01*
X38820438Y19841295D01*
X38931053Y19912474D01*
X39005260Y20021080D01*
X39031367Y20150000D01*
X39031367Y21050000D01*
X39008705Y21170438D01*
X38937526Y21281053D01*
X38828920Y21355260D01*
X38775000Y21366179D01*
X38775000Y21782745D01*
X38820438Y21791295D01*
X38931053Y21862474D01*
X39005260Y21971080D01*
X39031367Y22100000D01*
X39031367Y22900000D01*
X39008705Y23020438D01*
X38937526Y23131053D01*
X38828920Y23205260D01*
X38700000Y23231367D01*
X37900000Y23231367D01*
X37779562Y23208705D01*
X37668947Y23137526D01*
X37594740Y23028920D01*
X37568633Y22900000D01*
X31375000Y22900000D01*
X31375000Y27000000D01*
X31365152Y27048632D01*
X31337159Y27089601D01*
X31295432Y27116451D01*
X31250000Y27125000D01*
X22801776Y27125000D01*
X21333143Y28593633D01*
X22650000Y28593633D01*
X22770438Y28616295D01*
X22881053Y28687474D01*
X22955260Y28796080D01*
X22981367Y28925000D01*
X22981367Y32325000D01*
X31518633Y32325000D01*
X31518633Y28925000D01*
X31541295Y28804562D01*
X31612474Y28693947D01*
X31721080Y28619740D01*
X31850000Y28593633D01*
X33350000Y28593633D01*
X33470438Y28616295D01*
X33581053Y28687474D01*
X33655260Y28796080D01*
X33681367Y28925000D01*
X33681367Y29888578D01*
X36174684Y29888578D01*
X36451938Y29217571D01*
X36964871Y28703742D01*
X37464850Y28496132D01*
X37363571Y28454285D01*
X37046828Y28138093D01*
X36875196Y27724758D01*
X36874805Y27277205D01*
X37045715Y26863571D01*
X37361907Y26546828D01*
X37775242Y26375196D01*
X38222795Y26374805D01*
X38636429Y26545715D01*
X38953172Y26861907D01*
X39124804Y27275242D01*
X39125195Y27722795D01*
X38954285Y28136429D01*
X38638093Y28453172D01*
X38534487Y28496193D01*
X39032429Y28701938D01*
X39546258Y29214871D01*
X39824683Y29885392D01*
X39825316Y30611422D01*
X39548062Y31282429D01*
X39035129Y31796258D01*
X38364608Y32074683D01*
X37638578Y32075316D01*
X36967571Y31798062D01*
X36453742Y31285129D01*
X36175317Y30614608D01*
X36174684Y29888578D01*
X33681367Y29888578D01*
X33681367Y32325000D01*
X33658705Y32445438D01*
X33587526Y32556053D01*
X33478920Y32630260D01*
X33350000Y32656367D01*
X31850000Y32656367D01*
X31729562Y32633705D01*
X31618947Y32562526D01*
X31544740Y32453920D01*
X31518633Y32325000D01*
X22981367Y32325000D01*
X22958705Y32445438D01*
X22887526Y32556053D01*
X22778920Y32630260D01*
X22650000Y32656367D01*
X21150000Y32656367D01*
X21029562Y32633705D01*
X20918947Y32562526D01*
X20844740Y32453920D01*
X20818633Y32325000D01*
X20818633Y30625000D01*
X19000000Y30625000D01*
X18951368Y30615152D01*
X18910399Y30587159D01*
X18883549Y30545432D01*
X18875000Y30500000D01*
X18875000Y23500000D01*
X18884848Y23451368D01*
X18912841Y23410399D01*
X18954568Y23383549D01*
X19000000Y23375000D01*
X21135050Y23375000D01*
X22755025Y21755025D01*
X22982121Y21603284D01*
X23250000Y21550000D01*
X25250000Y21550000D01*
X25517879Y21603284D01*
X25744975Y21755025D01*
X26744972Y22755023D01*
X26744975Y22755025D01*
X26773759Y22798104D01*
X26870438Y22816295D01*
X26981053Y22887474D01*
X27055260Y22996080D01*
X27081367Y23125000D01*
X27081367Y23375000D01*
X27375000Y23375000D01*
X27375000Y20801776D01*
X25198224Y18625000D01*
X23331367Y18625000D01*
X23331367Y18950000D01*
X23308705Y19070438D01*
X23237526Y19181053D01*
X23175000Y19223775D01*
X23175000Y20391059D01*
X23229540Y20445504D01*
X23324891Y20675134D01*
X23325108Y20923775D01*
X23230158Y21153571D01*
X23054496Y21329540D01*
X22824866Y21424891D01*
X22576225Y21425108D01*
X22346429Y21330158D01*
X22170460Y21154496D01*
X22075109Y20924866D01*
X22074892Y20676225D01*
X22169842Y20446429D01*
X22225000Y20391175D01*
X22225000Y19223595D01*
X22168947Y19187526D01*
X22094740Y19078920D01*
X22068633Y18950000D01*
X22068633Y18625000D01*
X21836618Y18625000D01*
X21828920Y18630260D01*
X21775000Y18641179D01*
X21775000Y18891059D01*
X21829540Y18945504D01*
X21924891Y19175134D01*
X21925108Y19423775D01*
X21830158Y19653571D01*
X21654496Y19829540D01*
X21424866Y19924891D01*
X21176225Y19925108D01*
X20946429Y19830158D01*
X20770460Y19654496D01*
X20675109Y19424866D01*
X20674892Y19176225D01*
X20769842Y18946429D01*
X20825000Y18891175D01*
X20825000Y18642255D01*
X20779562Y18633705D01*
X20668947Y18562526D01*
X20594740Y18453920D01*
X20568633Y18325000D01*
X20568633Y17575000D01*
X20591295Y17454562D01*
X20662474Y17343947D01*
X20771080Y17269740D01*
X20900000Y17243633D01*
X21375000Y17243633D01*
X21375000Y9625000D01*
X18000000Y9625000D01*
X17951368Y9615152D01*
X17910399Y9587159D01*
X17883549Y9545432D01*
X17875000Y9500000D01*
X17875000Y4497817D01*
X17837526Y4556053D01*
X17728920Y4630260D01*
X17600000Y4656367D01*
X16100000Y4656367D01*
X15979562Y4633705D01*
X15868947Y4562526D01*
X15794740Y4453920D01*
X15768633Y4325000D01*
X7231367Y4325000D01*
X7208705Y4445438D01*
X7137526Y4556053D01*
X7028920Y4630260D01*
X6900000Y4656367D01*
X5400000Y4656367D01*
X5279562Y4633705D01*
X5168947Y4562526D01*
X5094740Y4453920D01*
X5068633Y4325000D01*
X4005566Y4325000D01*
X3535129Y4796258D01*
X3035150Y5003868D01*
X3136429Y5045715D01*
X3453172Y5361907D01*
X3624804Y5775242D01*
X3625195Y6222795D01*
X3454285Y6636429D01*
X3138093Y6953172D01*
X2724758Y7124804D01*
X2277205Y7125195D01*
X1863571Y6954285D01*
X1546828Y6638093D01*
X1375196Y6224758D01*
X1374805Y5777205D01*
X1545715Y5363571D01*
X1861907Y5046828D01*
X1965513Y5003807D01*
X1467571Y4798062D01*
X953742Y4285129D01*
X675317Y3614608D01*
X674684Y2888578D01*
X400000Y2888578D01*
X400000Y15750000D01*
X5168633Y15750000D01*
X5168633Y14850000D01*
X5191295Y14729562D01*
X5262474Y14618947D01*
X5275000Y14610388D01*
X5275000Y13841421D01*
X5268947Y13837526D01*
X5194740Y13728920D01*
X5168633Y13600000D01*
X5168633Y12700000D01*
X5191295Y12579562D01*
X5262474Y12468947D01*
X5275000Y12460388D01*
X5275000Y12350000D01*
X5311157Y12168225D01*
X5414124Y12014124D01*
X6264122Y11164127D01*
X6264124Y11164124D01*
X6304009Y11137474D01*
X6418226Y11061156D01*
X6600000Y11024999D01*
X6600005Y11025000D01*
X7803248Y11025000D01*
X8025000Y10803248D01*
X8025000Y10456367D01*
X8000000Y10456367D01*
X7879562Y10433705D01*
X7768947Y10362526D01*
X7694740Y10253920D01*
X7668633Y10125000D01*
X7668633Y6625000D01*
X7691295Y6504562D01*
X7762474Y6393947D01*
X7871080Y6319740D01*
X8000000Y6293633D01*
X9000000Y6293633D01*
X9120438Y6316295D01*
X9231053Y6387474D01*
X9305260Y6496080D01*
X9331367Y6625000D01*
X9331367Y10125000D01*
X9308705Y10245438D01*
X9237526Y10356053D01*
X9128920Y10430260D01*
X9000000Y10456367D01*
X8975000Y10456367D01*
X8975000Y10999995D01*
X8975001Y11000000D01*
X8940169Y11175109D01*
X8938843Y11181775D01*
X8835876Y11335876D01*
X8335876Y11835876D01*
X8181775Y11938843D01*
X8000000Y11975000D01*
X6796751Y11975000D01*
X6262806Y12508946D01*
X6305260Y12571080D01*
X6331367Y12700000D01*
X6331367Y13600000D01*
X6668633Y13600000D01*
X6668633Y12700000D01*
X6691295Y12579562D01*
X6762474Y12468947D01*
X6871080Y12394740D01*
X7000000Y12368633D01*
X7500000Y12368633D01*
X7620438Y12391295D01*
X7731053Y12462474D01*
X7805260Y12571080D01*
X7826304Y12675000D01*
X8641059Y12675000D01*
X8695504Y12620460D01*
X8925134Y12525109D01*
X9173775Y12524892D01*
X9403571Y12619842D01*
X9579540Y12795504D01*
X9674891Y13025134D01*
X9675108Y13273775D01*
X9580158Y13503571D01*
X9404496Y13679540D01*
X9174866Y13774891D01*
X8926225Y13775108D01*
X8696429Y13680158D01*
X8641175Y13625000D01*
X7826663Y13625000D01*
X7808705Y13720438D01*
X7737526Y13831053D01*
X7628920Y13905260D01*
X7500000Y13931367D01*
X7000000Y13931367D01*
X6879562Y13908705D01*
X6768947Y13837526D01*
X6694740Y13728920D01*
X6668633Y13600000D01*
X6331367Y13600000D01*
X6308705Y13720438D01*
X6237526Y13831053D01*
X6225000Y13839612D01*
X6225000Y14608579D01*
X6231053Y14612474D01*
X6305260Y14721080D01*
X6331367Y14850000D01*
X6331367Y15750000D01*
X6668633Y15750000D01*
X6668633Y14850000D01*
X6691295Y14729562D01*
X6762474Y14618947D01*
X6871080Y14544740D01*
X7000000Y14518633D01*
X7500000Y14518633D01*
X7620438Y14541295D01*
X7731053Y14612474D01*
X7805260Y14721080D01*
X7826304Y14825000D01*
X8603248Y14825000D01*
X9264124Y14164124D01*
X9418225Y14061157D01*
X9448384Y14055158D01*
X9600000Y14024999D01*
X9600005Y14025000D01*
X10025000Y14025000D01*
X10025000Y10456367D01*
X10000000Y10456367D01*
X9879562Y10433705D01*
X9768947Y10362526D01*
X9694740Y10253920D01*
X9668633Y10125000D01*
X9668633Y6625000D01*
X9691295Y6504562D01*
X9762474Y6393947D01*
X9871080Y6319740D01*
X10000000Y6293633D01*
X11000000Y6293633D01*
X11120438Y6316295D01*
X11231053Y6387474D01*
X11305260Y6496080D01*
X11331367Y6625000D01*
X11331367Y10125000D01*
X11308705Y10245438D01*
X11237526Y10356053D01*
X11128920Y10430260D01*
X11000000Y10456367D01*
X10975000Y10456367D01*
X10975000Y11622677D01*
X11014124Y11564124D01*
X12025000Y10553249D01*
X12025000Y10456367D01*
X12000000Y10456367D01*
X11879562Y10433705D01*
X11768947Y10362526D01*
X11694740Y10253920D01*
X11668633Y10125000D01*
X11668633Y6625000D01*
X11691295Y6504562D01*
X11762474Y6393947D01*
X11871080Y6319740D01*
X12000000Y6293633D01*
X13000000Y6293633D01*
X13120438Y6316295D01*
X13231053Y6387474D01*
X13305260Y6496080D01*
X13331367Y6625000D01*
X13331367Y10125000D01*
X13668633Y10125000D01*
X13668633Y6625000D01*
X13691295Y6504562D01*
X13762474Y6393947D01*
X13871080Y6319740D01*
X14000000Y6293633D01*
X15000000Y6293633D01*
X15120438Y6316295D01*
X15231053Y6387474D01*
X15305260Y6496080D01*
X15331367Y6625000D01*
X15331367Y8561212D01*
X15456775Y8586157D01*
X15610876Y8689124D01*
X15796711Y8874959D01*
X15873775Y8874892D01*
X16103571Y8969842D01*
X16279540Y9145504D01*
X16374891Y9375134D01*
X16375108Y9623775D01*
X16280158Y9853571D01*
X16104496Y10029540D01*
X15874866Y10124891D01*
X15626225Y10125108D01*
X15396429Y10030158D01*
X15331367Y9965210D01*
X15331367Y10125000D01*
X15308705Y10245438D01*
X15237526Y10356053D01*
X15128920Y10430260D01*
X15000000Y10456367D01*
X14000000Y10456367D01*
X13879562Y10433705D01*
X13768947Y10362526D01*
X13694740Y10253920D01*
X13668633Y10125000D01*
X13331367Y10125000D01*
X13308705Y10245438D01*
X13237526Y10356053D01*
X13128920Y10430260D01*
X13000000Y10456367D01*
X12975000Y10456367D01*
X12975000Y10749995D01*
X12975001Y10750000D01*
X12938843Y10931774D01*
X12938843Y10931775D01*
X12835876Y11085876D01*
X12835873Y11085878D01*
X11825000Y12096752D01*
X11825000Y13625000D01*
X12200000Y13625000D01*
X12381775Y13661157D01*
X12535876Y13764124D01*
X13285876Y14514124D01*
X13322298Y14568633D01*
X13325000Y14568633D01*
X13445438Y14591295D01*
X13556053Y14662474D01*
X13630260Y14771080D01*
X13656367Y14900000D01*
X13656367Y15171881D01*
X13868366Y14959882D01*
X13796429Y14930158D01*
X13620460Y14754496D01*
X13525109Y14524866D01*
X13524892Y14276225D01*
X13617739Y14051518D01*
X13470460Y13904496D01*
X13375109Y13674866D01*
X13375049Y13606044D01*
X13250000Y13631367D01*
X12850000Y13631367D01*
X12729562Y13608705D01*
X12618947Y13537526D01*
X12544740Y13428920D01*
X12518633Y13300000D01*
X12518633Y12700000D01*
X12541295Y12579562D01*
X12612474Y12468947D01*
X12721080Y12394740D01*
X12850000Y12368633D01*
X13250000Y12368633D01*
X13370438Y12391295D01*
X13429070Y12429024D01*
X13493225Y12386157D01*
X13675000Y12350000D01*
X14410388Y12350000D01*
X14344740Y12253920D01*
X14318633Y12125000D01*
X14318633Y11375000D01*
X14341295Y11254562D01*
X14412474Y11143947D01*
X14521080Y11069740D01*
X14650000Y11043633D01*
X15450000Y11043633D01*
X15570438Y11066295D01*
X15681053Y11137474D01*
X15755260Y11246080D01*
X15761116Y11275000D01*
X16450000Y11275000D01*
X16631775Y11311157D01*
X16785876Y11414124D01*
X16990385Y11618633D01*
X17400000Y11618633D01*
X17520438Y11641295D01*
X17631053Y11712474D01*
X17705260Y11821080D01*
X17731367Y11950000D01*
X17731367Y12400000D01*
X17711860Y12503671D01*
X17731367Y12600000D01*
X17731367Y13050000D01*
X17711860Y13153671D01*
X17731367Y13250000D01*
X17731367Y13700000D01*
X17711860Y13803671D01*
X17731367Y13900000D01*
X17731367Y14350000D01*
X17711860Y14453671D01*
X17731367Y14550000D01*
X17731367Y15000000D01*
X17711860Y15103671D01*
X17731367Y15200000D01*
X17731367Y15650000D01*
X17711860Y15753671D01*
X17731367Y15850000D01*
X17731367Y16300000D01*
X17711860Y16403671D01*
X17731367Y16500000D01*
X17731367Y16950000D01*
X17708705Y17070438D01*
X17637526Y17181053D01*
X17528920Y17255260D01*
X17400000Y17281367D01*
X17225000Y17281367D01*
X17225000Y17287449D01*
X17245438Y17291295D01*
X17356053Y17362474D01*
X17430260Y17471080D01*
X17456367Y17600000D01*
X17456367Y18400000D01*
X17433705Y18520438D01*
X17362526Y18631053D01*
X17253920Y18705260D01*
X17125000Y18731367D01*
X16375000Y18731367D01*
X16254562Y18708705D01*
X16143947Y18637526D01*
X16074121Y18535332D01*
X16012526Y18631053D01*
X15903920Y18705260D01*
X15775000Y18731367D01*
X15025000Y18731367D01*
X14904562Y18708705D01*
X14793947Y18637526D01*
X14725000Y18536618D01*
X14725000Y19299995D01*
X14725001Y19300000D01*
X14688843Y19481774D01*
X14688843Y19481775D01*
X14585876Y19635876D01*
X14585873Y19635878D01*
X13135876Y21085876D01*
X12981775Y21188843D01*
X12800000Y21225000D01*
X11196752Y21225000D01*
X9325538Y23096214D01*
X9331367Y23125000D01*
X9331367Y26625000D01*
X9668633Y26625000D01*
X9668633Y23125000D01*
X9691295Y23004562D01*
X9762474Y22893947D01*
X9871080Y22819740D01*
X10000000Y22793633D01*
X11000000Y22793633D01*
X11120438Y22816295D01*
X11231053Y22887474D01*
X11305260Y22996080D01*
X11331367Y23125000D01*
X11331367Y26409615D01*
X11735874Y26814122D01*
X11694740Y26753920D01*
X11668633Y26625000D01*
X11668633Y23125000D01*
X11691295Y23004562D01*
X11762474Y22893947D01*
X11871080Y22819740D01*
X12000000Y22793633D01*
X13000000Y22793633D01*
X13120438Y22816295D01*
X13231053Y22887474D01*
X13305260Y22996080D01*
X13331367Y23125000D01*
X13331367Y24400000D01*
X16425000Y24400000D01*
X16606775Y24436157D01*
X16760876Y24539124D01*
X16835876Y24614124D01*
X16872298Y24668633D01*
X16950000Y24668633D01*
X17070438Y24691295D01*
X17181053Y24762474D01*
X17255260Y24871080D01*
X17281367Y25000000D01*
X17281367Y25500000D01*
X17264008Y25592256D01*
X17264795Y25593043D01*
X17312474Y25518947D01*
X17421080Y25444740D01*
X17550000Y25418633D01*
X18450000Y25418633D01*
X18570438Y25441295D01*
X18681053Y25512474D01*
X18755260Y25621080D01*
X18781367Y25750000D01*
X18781367Y26550000D01*
X18758705Y26670438D01*
X18687526Y26781053D01*
X18578920Y26855260D01*
X18450000Y26881367D01*
X17550000Y26881367D01*
X17429562Y26858705D01*
X17318947Y26787526D01*
X17244740Y26678920D01*
X17233821Y26625000D01*
X17150005Y26625000D01*
X17150000Y26625001D01*
X16998384Y26594842D01*
X16968225Y26588843D01*
X16835262Y26500000D01*
X16814124Y26485876D01*
X16164124Y25835876D01*
X16161111Y25831367D01*
X16050000Y25831367D01*
X15929562Y25808705D01*
X15818947Y25737526D01*
X15744740Y25628920D01*
X15718633Y25500000D01*
X15718633Y25350000D01*
X13331367Y25350000D01*
X13331367Y26625000D01*
X13308705Y26745438D01*
X13237526Y26856053D01*
X13128920Y26930260D01*
X13000000Y26956367D01*
X12000000Y26956367D01*
X11879562Y26933705D01*
X11811949Y26890197D01*
X12696752Y27775000D01*
X16000000Y27775000D01*
X16181775Y27811157D01*
X16335876Y27914124D01*
X16396752Y27975000D01*
X16500000Y27975000D01*
X16681775Y28011157D01*
X16835876Y28114124D01*
X16872298Y28168633D01*
X16950000Y28168633D01*
X17070438Y28191295D01*
X17181053Y28262474D01*
X17255260Y28371080D01*
X17281367Y28500000D01*
X17281367Y29000000D01*
X17264008Y29092256D01*
X17264795Y29093043D01*
X17312474Y29018947D01*
X17421080Y28944740D01*
X17550000Y28918633D01*
X18450000Y28918633D01*
X18570438Y28941295D01*
X18681053Y29012474D01*
X18755260Y29121080D01*
X18781367Y29250000D01*
X18781367Y30050000D01*
X18758705Y30170438D01*
X18687526Y30281053D01*
X18578920Y30355260D01*
X18450000Y30381367D01*
X17550000Y30381367D01*
X17429562Y30358705D01*
X17318947Y30287526D01*
X17244740Y30178920D01*
X17233821Y30125000D01*
X17150005Y30125000D01*
X17150000Y30125001D01*
X16998384Y30094842D01*
X16968225Y30088843D01*
X16814124Y29985876D01*
X16164124Y29335876D01*
X16161111Y29331367D01*
X16050000Y29331367D01*
X15931367Y29309045D01*
X15931367Y32325000D01*
X15908705Y32445438D01*
X15837526Y32556053D01*
X15728920Y32630260D01*
X15600000Y32656367D01*
X14100000Y32656367D01*
X13979562Y32633705D01*
X13868947Y32562526D01*
X13794740Y32453920D01*
X13768633Y32325000D01*
X13768633Y28925000D01*
X13791295Y28804562D01*
X13842492Y28725000D01*
X12500000Y28725000D01*
X12318225Y28688843D01*
X12164124Y28585876D01*
X10544414Y26966166D01*
X10500000Y26975000D01*
X10406325Y26956367D01*
X10000000Y26956367D01*
X9879562Y26933705D01*
X9768947Y26862526D01*
X9694740Y26753920D01*
X9668633Y26625000D01*
X9331367Y26625000D01*
X9308705Y26745438D01*
X9237526Y26856053D01*
X9128920Y26930260D01*
X9000000Y26956367D01*
X8000000Y26956367D01*
X7879562Y26933705D01*
X7768947Y26862526D01*
X7694740Y26753920D01*
X7668633Y26625000D01*
X7668633Y23125000D01*
X7691295Y23004562D01*
X7762474Y22893947D01*
X7871080Y22819740D01*
X8000000Y22793633D01*
X8284615Y22793633D01*
X10664124Y20414124D01*
X10818225Y20311157D01*
X11000000Y20275000D01*
X12603248Y20275000D01*
X13775000Y19103249D01*
X13775000Y18408941D01*
X13720460Y18354496D01*
X13625109Y18124866D01*
X13624993Y17991791D01*
X13424866Y18074891D01*
X13176225Y18075108D01*
X12946429Y17980158D01*
X12770460Y17804496D01*
X12675109Y17574866D01*
X12675041Y17496793D01*
X12614124Y17435876D01*
X12511157Y17281775D01*
X12475000Y17100000D01*
X12475000Y16912551D01*
X12454562Y16908705D01*
X12343947Y16837526D01*
X12269740Y16728920D01*
X12243633Y16600000D01*
X12243633Y16200000D01*
X12266295Y16079562D01*
X12269014Y16075336D01*
X12243633Y15950000D01*
X12243633Y15550000D01*
X12266295Y15429562D01*
X12269014Y15425336D01*
X12243633Y15300000D01*
X12243633Y14900000D01*
X12257033Y14828785D01*
X12003248Y14575000D01*
X11758941Y14575000D01*
X11704496Y14629540D01*
X11643945Y14654683D01*
X11656053Y14662474D01*
X11730260Y14771080D01*
X11756367Y14900000D01*
X11756367Y15300000D01*
X11733705Y15420438D01*
X11662526Y15531053D01*
X11553920Y15605260D01*
X11425000Y15631367D01*
X10675000Y15631367D01*
X10554562Y15608705D01*
X10443947Y15537526D01*
X10369740Y15428920D01*
X10343633Y15300000D01*
X10343633Y15065385D01*
X10253248Y14975000D01*
X9796752Y14975000D01*
X9135876Y15635876D01*
X8981775Y15738843D01*
X8800000Y15775000D01*
X7826663Y15775000D01*
X7808705Y15870438D01*
X7737526Y15981053D01*
X7628920Y16055260D01*
X7500000Y16081367D01*
X7000000Y16081367D01*
X6879562Y16058705D01*
X6768947Y15987526D01*
X6694740Y15878920D01*
X6668633Y15750000D01*
X6331367Y15750000D01*
X6308705Y15870438D01*
X6237526Y15981053D01*
X6225000Y15989612D01*
X6225000Y16353248D01*
X7824583Y17952832D01*
X7862474Y17893947D01*
X7971080Y17819740D01*
X8100000Y17793633D01*
X8150000Y17793633D01*
X8150000Y17525000D01*
X8186157Y17343225D01*
X8289124Y17189124D01*
X9414124Y16064124D01*
X9568225Y15961157D01*
X9750000Y15925000D01*
X10501793Y15925000D01*
X10546080Y15894740D01*
X10675000Y15868633D01*
X11425000Y15868633D01*
X11545438Y15891295D01*
X11656053Y15962474D01*
X11730260Y16071080D01*
X11756367Y16200000D01*
X11756367Y16600000D01*
X11733705Y16720438D01*
X11662526Y16831053D01*
X11553920Y16905260D01*
X11425000Y16931367D01*
X10675000Y16931367D01*
X10554562Y16908705D01*
X10502183Y16875000D01*
X9946752Y16875000D01*
X9100000Y17721752D01*
X9100000Y17867492D01*
X9131053Y17887474D01*
X9205260Y17996080D01*
X9231367Y18125000D01*
X9231367Y18875000D01*
X9208705Y18995438D01*
X9137526Y19106053D01*
X9028920Y19180260D01*
X8900000Y19206367D01*
X8100000Y19206367D01*
X7979562Y19183705D01*
X7868947Y19112526D01*
X7794740Y19003920D01*
X7788884Y18975000D01*
X7700000Y18975000D01*
X7518225Y18938843D01*
X7364124Y18835876D01*
X7364122Y18835873D01*
X5414124Y16885876D01*
X5311157Y16731775D01*
X5275000Y16550000D01*
X5275000Y15991421D01*
X5268947Y15987526D01*
X5194740Y15878920D01*
X5168633Y15750000D01*
X400000Y15750000D01*
X400000Y29888578D01*
X674684Y29888578D01*
X951938Y29217571D01*
X1464871Y28703742D01*
X1964850Y28496132D01*
X1863571Y28454285D01*
X1546828Y28138093D01*
X1375196Y27724758D01*
X1374805Y27277205D01*
X1545715Y26863571D01*
X1861907Y26546828D01*
X2275242Y26375196D01*
X2722795Y26374805D01*
X3136429Y26545715D01*
X3453172Y26861907D01*
X3624804Y27275242D01*
X3625195Y27722795D01*
X3454285Y28136429D01*
X3138093Y28453172D01*
X3034487Y28496193D01*
X3532429Y28701938D01*
X4046258Y29214871D01*
X4324683Y29885392D01*
X4325316Y30611422D01*
X4048062Y31282429D01*
X3535129Y31796258D01*
X2864608Y32074683D01*
X2138578Y32075316D01*
X1467571Y31798062D01*
X953742Y31285129D01*
X675317Y30614608D01*
X674684Y29888578D01*
X400000Y29888578D01*
X400000Y32325000D01*
X5068633Y32325000D01*
X5068633Y28925000D01*
X5091295Y28804562D01*
X5162474Y28693947D01*
X5271080Y28619740D01*
X5400000Y28593633D01*
X6900000Y28593633D01*
X7020438Y28616295D01*
X7131053Y28687474D01*
X7205260Y28796080D01*
X7231367Y28925000D01*
X7231367Y32325000D01*
X7208705Y32445438D01*
X7137526Y32556053D01*
X7028920Y32630260D01*
X6900000Y32656367D01*
X5400000Y32656367D01*
X5279562Y32633705D01*
X5168947Y32562526D01*
X5094740Y32453920D01*
X5068633Y32325000D01*
X400000Y32325000D01*
X400000Y32850000D01*
X53350000Y32850000D01*
X53350000Y400000D01*
X53350000Y400000D01*
G37*
X53350000Y400000D02*
X400000Y400000D01*
X400000Y2888578D01*
X674684Y2888578D01*
X951938Y2217571D01*
X1464871Y1703742D01*
X2135392Y1425317D01*
X2861422Y1424684D01*
X3532429Y1701938D01*
X4046258Y2214871D01*
X4324683Y2885392D01*
X4325316Y3611422D01*
X4048062Y4282429D01*
X4005566Y4325000D01*
X5068633Y4325000D01*
X5068633Y925000D01*
X5091295Y804562D01*
X5162474Y693947D01*
X5271080Y619740D01*
X5400000Y593633D01*
X6900000Y593633D01*
X7020438Y616295D01*
X7131053Y687474D01*
X7205260Y796080D01*
X7231367Y925000D01*
X7231367Y4325000D01*
X15768633Y4325000D01*
X15768633Y925000D01*
X15791295Y804562D01*
X15862474Y693947D01*
X15971080Y619740D01*
X16100000Y593633D01*
X17600000Y593633D01*
X17720438Y616295D01*
X17831053Y687474D01*
X17905260Y796080D01*
X17931367Y925000D01*
X17931367Y2898478D01*
X17954568Y2883549D01*
X18000000Y2875000D01*
X26000000Y2875000D01*
X26048632Y2884848D01*
X26054091Y2888578D01*
X28674684Y2888578D01*
X28951938Y2217571D01*
X29464871Y1703742D01*
X30135392Y1425317D01*
X30861422Y1424684D01*
X31532429Y1701938D01*
X32046258Y2214871D01*
X32324683Y2885392D01*
X32325316Y3611422D01*
X32048062Y4282429D01*
X32005566Y4325000D01*
X33818633Y4325000D01*
X33818633Y925000D01*
X33841295Y804562D01*
X33912474Y693947D01*
X34021080Y619740D01*
X34150000Y593633D01*
X35650000Y593633D01*
X35770438Y616295D01*
X35881053Y687474D01*
X35955260Y796080D01*
X35981367Y925000D01*
X35981367Y4325000D01*
X40518633Y4325000D01*
X40518633Y925000D01*
X40541295Y804562D01*
X40612474Y693947D01*
X40721080Y619740D01*
X40850000Y593633D01*
X42350000Y593633D01*
X42470438Y616295D01*
X42581053Y687474D01*
X42655260Y796080D01*
X42681367Y925000D01*
X42681367Y2400000D01*
X49093633Y2400000D01*
X49093633Y900000D01*
X49116295Y779562D01*
X49187474Y668947D01*
X49296080Y594740D01*
X49425000Y568633D01*
X52825000Y568633D01*
X52945438Y591295D01*
X53056053Y662474D01*
X53130260Y771080D01*
X53156367Y900000D01*
X53156367Y2400000D01*
X53133705Y2520438D01*
X53062526Y2631053D01*
X52953920Y2705260D01*
X52825000Y2731367D01*
X49425000Y2731367D01*
X49304562Y2708705D01*
X49193947Y2637526D01*
X49119740Y2528920D01*
X49093633Y2400000D01*
X42681367Y2400000D01*
X42681367Y4325000D01*
X42658705Y4445438D01*
X42587526Y4556053D01*
X42478920Y4630260D01*
X42350000Y4656367D01*
X40850000Y4656367D01*
X40729562Y4633705D01*
X40618947Y4562526D01*
X40544740Y4453920D01*
X40518633Y4325000D01*
X35981367Y4325000D01*
X35958705Y4445438D01*
X35887526Y4556053D01*
X35778920Y4630260D01*
X35650000Y4656367D01*
X34150000Y4656367D01*
X34029562Y4633705D01*
X33918947Y4562526D01*
X33844740Y4453920D01*
X33818633Y4325000D01*
X32005566Y4325000D01*
X31535129Y4796258D01*
X30864608Y5074683D01*
X30138578Y5075316D01*
X29467571Y4798062D01*
X28953742Y4285129D01*
X28675317Y3614608D01*
X28674684Y2888578D01*
X26054091Y2888578D01*
X26089601Y2912841D01*
X26116451Y2954568D01*
X26125000Y3000000D01*
X26125000Y7375000D01*
X30500000Y7375000D01*
X30548632Y7384848D01*
X30589601Y7412841D01*
X30616451Y7454568D01*
X30625000Y7500000D01*
X30625000Y9875000D01*
X33500000Y9875000D01*
X33548632Y9884848D01*
X33589601Y9912841D01*
X33616451Y9954568D01*
X33625000Y10000000D01*
X33625000Y16750000D01*
X36125000Y16750000D01*
X36125000Y6250000D01*
X36134848Y6201368D01*
X36162841Y6160399D01*
X36204568Y6133549D01*
X36250000Y6125000D01*
X38250000Y6125000D01*
X38298632Y6134848D01*
X38339601Y6162841D01*
X38366451Y6204568D01*
X38375000Y6250000D01*
X38375000Y13948224D01*
X38801776Y14375000D01*
X43125000Y14375000D01*
X43125000Y5000000D01*
X43134848Y4951368D01*
X43162841Y4910399D01*
X43204568Y4883549D01*
X43250000Y4875000D01*
X47500000Y4875000D01*
X47548632Y4884848D01*
X47589601Y4912841D01*
X47616451Y4954568D01*
X47625000Y5000000D01*
X47625000Y9100000D01*
X49093633Y9100000D01*
X49093633Y7600000D01*
X49116295Y7479562D01*
X49187474Y7368947D01*
X49296080Y7294740D01*
X49425000Y7268633D01*
X52825000Y7268633D01*
X52945438Y7291295D01*
X53056053Y7362474D01*
X53130260Y7471080D01*
X53156367Y7600000D01*
X53156367Y9100000D01*
X53133705Y9220438D01*
X53062526Y9331053D01*
X52953920Y9405260D01*
X52825000Y9431367D01*
X49425000Y9431367D01*
X49304562Y9408705D01*
X49193947Y9337526D01*
X49119740Y9228920D01*
X49093633Y9100000D01*
X47625000Y9100000D01*
X47625000Y19500000D01*
X47615152Y19548632D01*
X47587159Y19589601D01*
X47545432Y19616451D01*
X47500000Y19625000D01*
X45875000Y19625000D01*
X45875000Y24000000D01*
X45865152Y24048632D01*
X45837159Y24089601D01*
X45795432Y24116451D01*
X45750000Y24125000D01*
X42750000Y24125000D01*
X42701368Y24115152D01*
X42661612Y24088388D01*
X40448224Y21875000D01*
X39250000Y21875000D01*
X39201368Y21865152D01*
X39160399Y21837159D01*
X39133549Y21795432D01*
X39125000Y21750000D01*
X39125000Y19801776D01*
X36161612Y16838388D01*
X36134187Y16797037D01*
X36125000Y16750000D01*
X33625000Y16750000D01*
X33625000Y21500000D01*
X33615152Y21548632D01*
X33587159Y21589601D01*
X33545432Y21616451D01*
X33500000Y21625000D01*
X31375000Y21625000D01*
X31375000Y22900000D01*
X37568633Y22900000D01*
X37568633Y22100000D01*
X37591295Y21979562D01*
X37662474Y21868947D01*
X37771080Y21794740D01*
X37825000Y21783821D01*
X37825000Y20750000D01*
X37861157Y20568225D01*
X37868633Y20557036D01*
X37868633Y20150000D01*
X37891295Y20029562D01*
X37962474Y19918947D01*
X38071080Y19844740D01*
X38200000Y19818633D01*
X38700000Y19818633D01*
X38820438Y19841295D01*
X38931053Y19912474D01*
X39005260Y20021080D01*
X39031367Y20150000D01*
X39031367Y21050000D01*
X39008705Y21170438D01*
X38937526Y21281053D01*
X38828920Y21355260D01*
X38775000Y21366179D01*
X38775000Y21782745D01*
X38820438Y21791295D01*
X38931053Y21862474D01*
X39005260Y21971080D01*
X39031367Y22100000D01*
X39031367Y22900000D01*
X39008705Y23020438D01*
X38937526Y23131053D01*
X38828920Y23205260D01*
X38700000Y23231367D01*
X37900000Y23231367D01*
X37779562Y23208705D01*
X37668947Y23137526D01*
X37594740Y23028920D01*
X37568633Y22900000D01*
X31375000Y22900000D01*
X31375000Y27000000D01*
X31365152Y27048632D01*
X31337159Y27089601D01*
X31295432Y27116451D01*
X31250000Y27125000D01*
X22801776Y27125000D01*
X21333143Y28593633D01*
X22650000Y28593633D01*
X22770438Y28616295D01*
X22881053Y28687474D01*
X22955260Y28796080D01*
X22981367Y28925000D01*
X22981367Y32325000D01*
X31518633Y32325000D01*
X31518633Y28925000D01*
X31541295Y28804562D01*
X31612474Y28693947D01*
X31721080Y28619740D01*
X31850000Y28593633D01*
X33350000Y28593633D01*
X33470438Y28616295D01*
X33581053Y28687474D01*
X33655260Y28796080D01*
X33681367Y28925000D01*
X33681367Y29888578D01*
X36174684Y29888578D01*
X36451938Y29217571D01*
X36964871Y28703742D01*
X37464850Y28496132D01*
X37363571Y28454285D01*
X37046828Y28138093D01*
X36875196Y27724758D01*
X36874805Y27277205D01*
X37045715Y26863571D01*
X37361907Y26546828D01*
X37775242Y26375196D01*
X38222795Y26374805D01*
X38636429Y26545715D01*
X38953172Y26861907D01*
X39124804Y27275242D01*
X39125195Y27722795D01*
X38954285Y28136429D01*
X38638093Y28453172D01*
X38534487Y28496193D01*
X39032429Y28701938D01*
X39546258Y29214871D01*
X39824683Y29885392D01*
X39825316Y30611422D01*
X39548062Y31282429D01*
X39035129Y31796258D01*
X38364608Y32074683D01*
X37638578Y32075316D01*
X36967571Y31798062D01*
X36453742Y31285129D01*
X36175317Y30614608D01*
X36174684Y29888578D01*
X33681367Y29888578D01*
X33681367Y32325000D01*
X33658705Y32445438D01*
X33587526Y32556053D01*
X33478920Y32630260D01*
X33350000Y32656367D01*
X31850000Y32656367D01*
X31729562Y32633705D01*
X31618947Y32562526D01*
X31544740Y32453920D01*
X31518633Y32325000D01*
X22981367Y32325000D01*
X22958705Y32445438D01*
X22887526Y32556053D01*
X22778920Y32630260D01*
X22650000Y32656367D01*
X21150000Y32656367D01*
X21029562Y32633705D01*
X20918947Y32562526D01*
X20844740Y32453920D01*
X20818633Y32325000D01*
X20818633Y30625000D01*
X19000000Y30625000D01*
X18951368Y30615152D01*
X18910399Y30587159D01*
X18883549Y30545432D01*
X18875000Y30500000D01*
X18875000Y23500000D01*
X18884848Y23451368D01*
X18912841Y23410399D01*
X18954568Y23383549D01*
X19000000Y23375000D01*
X21135050Y23375000D01*
X22755025Y21755025D01*
X22982121Y21603284D01*
X23250000Y21550000D01*
X25250000Y21550000D01*
X25517879Y21603284D01*
X25744975Y21755025D01*
X26744972Y22755023D01*
X26744975Y22755025D01*
X26773759Y22798104D01*
X26870438Y22816295D01*
X26981053Y22887474D01*
X27055260Y22996080D01*
X27081367Y23125000D01*
X27081367Y23375000D01*
X27375000Y23375000D01*
X27375000Y20801776D01*
X25198224Y18625000D01*
X23331367Y18625000D01*
X23331367Y18950000D01*
X23308705Y19070438D01*
X23237526Y19181053D01*
X23175000Y19223775D01*
X23175000Y20391059D01*
X23229540Y20445504D01*
X23324891Y20675134D01*
X23325108Y20923775D01*
X23230158Y21153571D01*
X23054496Y21329540D01*
X22824866Y21424891D01*
X22576225Y21425108D01*
X22346429Y21330158D01*
X22170460Y21154496D01*
X22075109Y20924866D01*
X22074892Y20676225D01*
X22169842Y20446429D01*
X22225000Y20391175D01*
X22225000Y19223595D01*
X22168947Y19187526D01*
X22094740Y19078920D01*
X22068633Y18950000D01*
X22068633Y18625000D01*
X21836618Y18625000D01*
X21828920Y18630260D01*
X21775000Y18641179D01*
X21775000Y18891059D01*
X21829540Y18945504D01*
X21924891Y19175134D01*
X21925108Y19423775D01*
X21830158Y19653571D01*
X21654496Y19829540D01*
X21424866Y19924891D01*
X21176225Y19925108D01*
X20946429Y19830158D01*
X20770460Y19654496D01*
X20675109Y19424866D01*
X20674892Y19176225D01*
X20769842Y18946429D01*
X20825000Y18891175D01*
X20825000Y18642255D01*
X20779562Y18633705D01*
X20668947Y18562526D01*
X20594740Y18453920D01*
X20568633Y18325000D01*
X20568633Y17575000D01*
X20591295Y17454562D01*
X20662474Y17343947D01*
X20771080Y17269740D01*
X20900000Y17243633D01*
X21375000Y17243633D01*
X21375000Y9625000D01*
X18000000Y9625000D01*
X17951368Y9615152D01*
X17910399Y9587159D01*
X17883549Y9545432D01*
X17875000Y9500000D01*
X17875000Y4497817D01*
X17837526Y4556053D01*
X17728920Y4630260D01*
X17600000Y4656367D01*
X16100000Y4656367D01*
X15979562Y4633705D01*
X15868947Y4562526D01*
X15794740Y4453920D01*
X15768633Y4325000D01*
X7231367Y4325000D01*
X7208705Y4445438D01*
X7137526Y4556053D01*
X7028920Y4630260D01*
X6900000Y4656367D01*
X5400000Y4656367D01*
X5279562Y4633705D01*
X5168947Y4562526D01*
X5094740Y4453920D01*
X5068633Y4325000D01*
X4005566Y4325000D01*
X3535129Y4796258D01*
X3035150Y5003868D01*
X3136429Y5045715D01*
X3453172Y5361907D01*
X3624804Y5775242D01*
X3625195Y6222795D01*
X3454285Y6636429D01*
X3138093Y6953172D01*
X2724758Y7124804D01*
X2277205Y7125195D01*
X1863571Y6954285D01*
X1546828Y6638093D01*
X1375196Y6224758D01*
X1374805Y5777205D01*
X1545715Y5363571D01*
X1861907Y5046828D01*
X1965513Y5003807D01*
X1467571Y4798062D01*
X953742Y4285129D01*
X675317Y3614608D01*
X674684Y2888578D01*
X400000Y2888578D01*
X400000Y15750000D01*
X5168633Y15750000D01*
X5168633Y14850000D01*
X5191295Y14729562D01*
X5262474Y14618947D01*
X5275000Y14610388D01*
X5275000Y13841421D01*
X5268947Y13837526D01*
X5194740Y13728920D01*
X5168633Y13600000D01*
X5168633Y12700000D01*
X5191295Y12579562D01*
X5262474Y12468947D01*
X5275000Y12460388D01*
X5275000Y12350000D01*
X5311157Y12168225D01*
X5414124Y12014124D01*
X6264122Y11164127D01*
X6264124Y11164124D01*
X6304009Y11137474D01*
X6418226Y11061156D01*
X6600000Y11024999D01*
X6600005Y11025000D01*
X7803248Y11025000D01*
X8025000Y10803248D01*
X8025000Y10456367D01*
X8000000Y10456367D01*
X7879562Y10433705D01*
X7768947Y10362526D01*
X7694740Y10253920D01*
X7668633Y10125000D01*
X7668633Y6625000D01*
X7691295Y6504562D01*
X7762474Y6393947D01*
X7871080Y6319740D01*
X8000000Y6293633D01*
X9000000Y6293633D01*
X9120438Y6316295D01*
X9231053Y6387474D01*
X9305260Y6496080D01*
X9331367Y6625000D01*
X9331367Y10125000D01*
X9308705Y10245438D01*
X9237526Y10356053D01*
X9128920Y10430260D01*
X9000000Y10456367D01*
X8975000Y10456367D01*
X8975000Y10999995D01*
X8975001Y11000000D01*
X8940169Y11175109D01*
X8938843Y11181775D01*
X8835876Y11335876D01*
X8335876Y11835876D01*
X8181775Y11938843D01*
X8000000Y11975000D01*
X6796751Y11975000D01*
X6262806Y12508946D01*
X6305260Y12571080D01*
X6331367Y12700000D01*
X6331367Y13600000D01*
X6668633Y13600000D01*
X6668633Y12700000D01*
X6691295Y12579562D01*
X6762474Y12468947D01*
X6871080Y12394740D01*
X7000000Y12368633D01*
X7500000Y12368633D01*
X7620438Y12391295D01*
X7731053Y12462474D01*
X7805260Y12571080D01*
X7826304Y12675000D01*
X8641059Y12675000D01*
X8695504Y12620460D01*
X8925134Y12525109D01*
X9173775Y12524892D01*
X9403571Y12619842D01*
X9579540Y12795504D01*
X9674891Y13025134D01*
X9675108Y13273775D01*
X9580158Y13503571D01*
X9404496Y13679540D01*
X9174866Y13774891D01*
X8926225Y13775108D01*
X8696429Y13680158D01*
X8641175Y13625000D01*
X7826663Y13625000D01*
X7808705Y13720438D01*
X7737526Y13831053D01*
X7628920Y13905260D01*
X7500000Y13931367D01*
X7000000Y13931367D01*
X6879562Y13908705D01*
X6768947Y13837526D01*
X6694740Y13728920D01*
X6668633Y13600000D01*
X6331367Y13600000D01*
X6308705Y13720438D01*
X6237526Y13831053D01*
X6225000Y13839612D01*
X6225000Y14608579D01*
X6231053Y14612474D01*
X6305260Y14721080D01*
X6331367Y14850000D01*
X6331367Y15750000D01*
X6668633Y15750000D01*
X6668633Y14850000D01*
X6691295Y14729562D01*
X6762474Y14618947D01*
X6871080Y14544740D01*
X7000000Y14518633D01*
X7500000Y14518633D01*
X7620438Y14541295D01*
X7731053Y14612474D01*
X7805260Y14721080D01*
X7826304Y14825000D01*
X8603248Y14825000D01*
X9264124Y14164124D01*
X9418225Y14061157D01*
X9448384Y14055158D01*
X9600000Y14024999D01*
X9600005Y14025000D01*
X10025000Y14025000D01*
X10025000Y10456367D01*
X10000000Y10456367D01*
X9879562Y10433705D01*
X9768947Y10362526D01*
X9694740Y10253920D01*
X9668633Y10125000D01*
X9668633Y6625000D01*
X9691295Y6504562D01*
X9762474Y6393947D01*
X9871080Y6319740D01*
X10000000Y6293633D01*
X11000000Y6293633D01*
X11120438Y6316295D01*
X11231053Y6387474D01*
X11305260Y6496080D01*
X11331367Y6625000D01*
X11331367Y10125000D01*
X11308705Y10245438D01*
X11237526Y10356053D01*
X11128920Y10430260D01*
X11000000Y10456367D01*
X10975000Y10456367D01*
X10975000Y11622677D01*
X11014124Y11564124D01*
X12025000Y10553249D01*
X12025000Y10456367D01*
X12000000Y10456367D01*
X11879562Y10433705D01*
X11768947Y10362526D01*
X11694740Y10253920D01*
X11668633Y10125000D01*
X11668633Y6625000D01*
X11691295Y6504562D01*
X11762474Y6393947D01*
X11871080Y6319740D01*
X12000000Y6293633D01*
X13000000Y6293633D01*
X13120438Y6316295D01*
X13231053Y6387474D01*
X13305260Y6496080D01*
X13331367Y6625000D01*
X13331367Y10125000D01*
X13668633Y10125000D01*
X13668633Y6625000D01*
X13691295Y6504562D01*
X13762474Y6393947D01*
X13871080Y6319740D01*
X14000000Y6293633D01*
X15000000Y6293633D01*
X15120438Y6316295D01*
X15231053Y6387474D01*
X15305260Y6496080D01*
X15331367Y6625000D01*
X15331367Y8561212D01*
X15456775Y8586157D01*
X15610876Y8689124D01*
X15796711Y8874959D01*
X15873775Y8874892D01*
X16103571Y8969842D01*
X16279540Y9145504D01*
X16374891Y9375134D01*
X16375108Y9623775D01*
X16280158Y9853571D01*
X16104496Y10029540D01*
X15874866Y10124891D01*
X15626225Y10125108D01*
X15396429Y10030158D01*
X15331367Y9965210D01*
X15331367Y10125000D01*
X15308705Y10245438D01*
X15237526Y10356053D01*
X15128920Y10430260D01*
X15000000Y10456367D01*
X14000000Y10456367D01*
X13879562Y10433705D01*
X13768947Y10362526D01*
X13694740Y10253920D01*
X13668633Y10125000D01*
X13331367Y10125000D01*
X13308705Y10245438D01*
X13237526Y10356053D01*
X13128920Y10430260D01*
X13000000Y10456367D01*
X12975000Y10456367D01*
X12975000Y10749995D01*
X12975001Y10750000D01*
X12938843Y10931774D01*
X12938843Y10931775D01*
X12835876Y11085876D01*
X12835873Y11085878D01*
X11825000Y12096752D01*
X11825000Y13625000D01*
X12200000Y13625000D01*
X12381775Y13661157D01*
X12535876Y13764124D01*
X13285876Y14514124D01*
X13322298Y14568633D01*
X13325000Y14568633D01*
X13445438Y14591295D01*
X13556053Y14662474D01*
X13630260Y14771080D01*
X13656367Y14900000D01*
X13656367Y15171881D01*
X13868366Y14959882D01*
X13796429Y14930158D01*
X13620460Y14754496D01*
X13525109Y14524866D01*
X13524892Y14276225D01*
X13617739Y14051518D01*
X13470460Y13904496D01*
X13375109Y13674866D01*
X13375049Y13606044D01*
X13250000Y13631367D01*
X12850000Y13631367D01*
X12729562Y13608705D01*
X12618947Y13537526D01*
X12544740Y13428920D01*
X12518633Y13300000D01*
X12518633Y12700000D01*
X12541295Y12579562D01*
X12612474Y12468947D01*
X12721080Y12394740D01*
X12850000Y12368633D01*
X13250000Y12368633D01*
X13370438Y12391295D01*
X13429070Y12429024D01*
X13493225Y12386157D01*
X13675000Y12350000D01*
X14410388Y12350000D01*
X14344740Y12253920D01*
X14318633Y12125000D01*
X14318633Y11375000D01*
X14341295Y11254562D01*
X14412474Y11143947D01*
X14521080Y11069740D01*
X14650000Y11043633D01*
X15450000Y11043633D01*
X15570438Y11066295D01*
X15681053Y11137474D01*
X15755260Y11246080D01*
X15761116Y11275000D01*
X16450000Y11275000D01*
X16631775Y11311157D01*
X16785876Y11414124D01*
X16990385Y11618633D01*
X17400000Y11618633D01*
X17520438Y11641295D01*
X17631053Y11712474D01*
X17705260Y11821080D01*
X17731367Y11950000D01*
X17731367Y12400000D01*
X17711860Y12503671D01*
X17731367Y12600000D01*
X17731367Y13050000D01*
X17711860Y13153671D01*
X17731367Y13250000D01*
X17731367Y13700000D01*
X17711860Y13803671D01*
X17731367Y13900000D01*
X17731367Y14350000D01*
X17711860Y14453671D01*
X17731367Y14550000D01*
X17731367Y15000000D01*
X17711860Y15103671D01*
X17731367Y15200000D01*
X17731367Y15650000D01*
X17711860Y15753671D01*
X17731367Y15850000D01*
X17731367Y16300000D01*
X17711860Y16403671D01*
X17731367Y16500000D01*
X17731367Y16950000D01*
X17708705Y17070438D01*
X17637526Y17181053D01*
X17528920Y17255260D01*
X17400000Y17281367D01*
X17225000Y17281367D01*
X17225000Y17287449D01*
X17245438Y17291295D01*
X17356053Y17362474D01*
X17430260Y17471080D01*
X17456367Y17600000D01*
X17456367Y18400000D01*
X17433705Y18520438D01*
X17362526Y18631053D01*
X17253920Y18705260D01*
X17125000Y18731367D01*
X16375000Y18731367D01*
X16254562Y18708705D01*
X16143947Y18637526D01*
X16074121Y18535332D01*
X16012526Y18631053D01*
X15903920Y18705260D01*
X15775000Y18731367D01*
X15025000Y18731367D01*
X14904562Y18708705D01*
X14793947Y18637526D01*
X14725000Y18536618D01*
X14725000Y19299995D01*
X14725001Y19300000D01*
X14688843Y19481774D01*
X14688843Y19481775D01*
X14585876Y19635876D01*
X14585873Y19635878D01*
X13135876Y21085876D01*
X12981775Y21188843D01*
X12800000Y21225000D01*
X11196752Y21225000D01*
X9325538Y23096214D01*
X9331367Y23125000D01*
X9331367Y26625000D01*
X9668633Y26625000D01*
X9668633Y23125000D01*
X9691295Y23004562D01*
X9762474Y22893947D01*
X9871080Y22819740D01*
X10000000Y22793633D01*
X11000000Y22793633D01*
X11120438Y22816295D01*
X11231053Y22887474D01*
X11305260Y22996080D01*
X11331367Y23125000D01*
X11331367Y26409615D01*
X11735874Y26814122D01*
X11694740Y26753920D01*
X11668633Y26625000D01*
X11668633Y23125000D01*
X11691295Y23004562D01*
X11762474Y22893947D01*
X11871080Y22819740D01*
X12000000Y22793633D01*
X13000000Y22793633D01*
X13120438Y22816295D01*
X13231053Y22887474D01*
X13305260Y22996080D01*
X13331367Y23125000D01*
X13331367Y24400000D01*
X16425000Y24400000D01*
X16606775Y24436157D01*
X16760876Y24539124D01*
X16835876Y24614124D01*
X16872298Y24668633D01*
X16950000Y24668633D01*
X17070438Y24691295D01*
X17181053Y24762474D01*
X17255260Y24871080D01*
X17281367Y25000000D01*
X17281367Y25500000D01*
X17264008Y25592256D01*
X17264795Y25593043D01*
X17312474Y25518947D01*
X17421080Y25444740D01*
X17550000Y25418633D01*
X18450000Y25418633D01*
X18570438Y25441295D01*
X18681053Y25512474D01*
X18755260Y25621080D01*
X18781367Y25750000D01*
X18781367Y26550000D01*
X18758705Y26670438D01*
X18687526Y26781053D01*
X18578920Y26855260D01*
X18450000Y26881367D01*
X17550000Y26881367D01*
X17429562Y26858705D01*
X17318947Y26787526D01*
X17244740Y26678920D01*
X17233821Y26625000D01*
X17150005Y26625000D01*
X17150000Y26625001D01*
X16998384Y26594842D01*
X16968225Y26588843D01*
X16835262Y26500000D01*
X16814124Y26485876D01*
X16164124Y25835876D01*
X16161111Y25831367D01*
X16050000Y25831367D01*
X15929562Y25808705D01*
X15818947Y25737526D01*
X15744740Y25628920D01*
X15718633Y25500000D01*
X15718633Y25350000D01*
X13331367Y25350000D01*
X13331367Y26625000D01*
X13308705Y26745438D01*
X13237526Y26856053D01*
X13128920Y26930260D01*
X13000000Y26956367D01*
X12000000Y26956367D01*
X11879562Y26933705D01*
X11811949Y26890197D01*
X12696752Y27775000D01*
X16000000Y27775000D01*
X16181775Y27811157D01*
X16335876Y27914124D01*
X16396752Y27975000D01*
X16500000Y27975000D01*
X16681775Y28011157D01*
X16835876Y28114124D01*
X16872298Y28168633D01*
X16950000Y28168633D01*
X17070438Y28191295D01*
X17181053Y28262474D01*
X17255260Y28371080D01*
X17281367Y28500000D01*
X17281367Y29000000D01*
X17264008Y29092256D01*
X17264795Y29093043D01*
X17312474Y29018947D01*
X17421080Y28944740D01*
X17550000Y28918633D01*
X18450000Y28918633D01*
X18570438Y28941295D01*
X18681053Y29012474D01*
X18755260Y29121080D01*
X18781367Y29250000D01*
X18781367Y30050000D01*
X18758705Y30170438D01*
X18687526Y30281053D01*
X18578920Y30355260D01*
X18450000Y30381367D01*
X17550000Y30381367D01*
X17429562Y30358705D01*
X17318947Y30287526D01*
X17244740Y30178920D01*
X17233821Y30125000D01*
X17150005Y30125000D01*
X17150000Y30125001D01*
X16998384Y30094842D01*
X16968225Y30088843D01*
X16814124Y29985876D01*
X16164124Y29335876D01*
X16161111Y29331367D01*
X16050000Y29331367D01*
X15931367Y29309045D01*
X15931367Y32325000D01*
X15908705Y32445438D01*
X15837526Y32556053D01*
X15728920Y32630260D01*
X15600000Y32656367D01*
X14100000Y32656367D01*
X13979562Y32633705D01*
X13868947Y32562526D01*
X13794740Y32453920D01*
X13768633Y32325000D01*
X13768633Y28925000D01*
X13791295Y28804562D01*
X13842492Y28725000D01*
X12500000Y28725000D01*
X12318225Y28688843D01*
X12164124Y28585876D01*
X10544414Y26966166D01*
X10500000Y26975000D01*
X10406325Y26956367D01*
X10000000Y26956367D01*
X9879562Y26933705D01*
X9768947Y26862526D01*
X9694740Y26753920D01*
X9668633Y26625000D01*
X9331367Y26625000D01*
X9308705Y26745438D01*
X9237526Y26856053D01*
X9128920Y26930260D01*
X9000000Y26956367D01*
X8000000Y26956367D01*
X7879562Y26933705D01*
X7768947Y26862526D01*
X7694740Y26753920D01*
X7668633Y26625000D01*
X7668633Y23125000D01*
X7691295Y23004562D01*
X7762474Y22893947D01*
X7871080Y22819740D01*
X8000000Y22793633D01*
X8284615Y22793633D01*
X10664124Y20414124D01*
X10818225Y20311157D01*
X11000000Y20275000D01*
X12603248Y20275000D01*
X13775000Y19103249D01*
X13775000Y18408941D01*
X13720460Y18354496D01*
X13625109Y18124866D01*
X13624993Y17991791D01*
X13424866Y18074891D01*
X13176225Y18075108D01*
X12946429Y17980158D01*
X12770460Y17804496D01*
X12675109Y17574866D01*
X12675041Y17496793D01*
X12614124Y17435876D01*
X12511157Y17281775D01*
X12475000Y17100000D01*
X12475000Y16912551D01*
X12454562Y16908705D01*
X12343947Y16837526D01*
X12269740Y16728920D01*
X12243633Y16600000D01*
X12243633Y16200000D01*
X12266295Y16079562D01*
X12269014Y16075336D01*
X12243633Y15950000D01*
X12243633Y15550000D01*
X12266295Y15429562D01*
X12269014Y15425336D01*
X12243633Y15300000D01*
X12243633Y14900000D01*
X12257033Y14828785D01*
X12003248Y14575000D01*
X11758941Y14575000D01*
X11704496Y14629540D01*
X11643945Y14654683D01*
X11656053Y14662474D01*
X11730260Y14771080D01*
X11756367Y14900000D01*
X11756367Y15300000D01*
X11733705Y15420438D01*
X11662526Y15531053D01*
X11553920Y15605260D01*
X11425000Y15631367D01*
X10675000Y15631367D01*
X10554562Y15608705D01*
X10443947Y15537526D01*
X10369740Y15428920D01*
X10343633Y15300000D01*
X10343633Y15065385D01*
X10253248Y14975000D01*
X9796752Y14975000D01*
X9135876Y15635876D01*
X8981775Y15738843D01*
X8800000Y15775000D01*
X7826663Y15775000D01*
X7808705Y15870438D01*
X7737526Y15981053D01*
X7628920Y16055260D01*
X7500000Y16081367D01*
X7000000Y16081367D01*
X6879562Y16058705D01*
X6768947Y15987526D01*
X6694740Y15878920D01*
X6668633Y15750000D01*
X6331367Y15750000D01*
X6308705Y15870438D01*
X6237526Y15981053D01*
X6225000Y15989612D01*
X6225000Y16353248D01*
X7824583Y17952832D01*
X7862474Y17893947D01*
X7971080Y17819740D01*
X8100000Y17793633D01*
X8150000Y17793633D01*
X8150000Y17525000D01*
X8186157Y17343225D01*
X8289124Y17189124D01*
X9414124Y16064124D01*
X9568225Y15961157D01*
X9750000Y15925000D01*
X10501793Y15925000D01*
X10546080Y15894740D01*
X10675000Y15868633D01*
X11425000Y15868633D01*
X11545438Y15891295D01*
X11656053Y15962474D01*
X11730260Y16071080D01*
X11756367Y16200000D01*
X11756367Y16600000D01*
X11733705Y16720438D01*
X11662526Y16831053D01*
X11553920Y16905260D01*
X11425000Y16931367D01*
X10675000Y16931367D01*
X10554562Y16908705D01*
X10502183Y16875000D01*
X9946752Y16875000D01*
X9100000Y17721752D01*
X9100000Y17867492D01*
X9131053Y17887474D01*
X9205260Y17996080D01*
X9231367Y18125000D01*
X9231367Y18875000D01*
X9208705Y18995438D01*
X9137526Y19106053D01*
X9028920Y19180260D01*
X8900000Y19206367D01*
X8100000Y19206367D01*
X7979562Y19183705D01*
X7868947Y19112526D01*
X7794740Y19003920D01*
X7788884Y18975000D01*
X7700000Y18975000D01*
X7518225Y18938843D01*
X7364124Y18835876D01*
X7364122Y18835873D01*
X5414124Y16885876D01*
X5311157Y16731775D01*
X5275000Y16550000D01*
X5275000Y15991421D01*
X5268947Y15987526D01*
X5194740Y15878920D01*
X5168633Y15750000D01*
X400000Y15750000D01*
X400000Y29888578D01*
X674684Y29888578D01*
X951938Y29217571D01*
X1464871Y28703742D01*
X1964850Y28496132D01*
X1863571Y28454285D01*
X1546828Y28138093D01*
X1375196Y27724758D01*
X1374805Y27277205D01*
X1545715Y26863571D01*
X1861907Y26546828D01*
X2275242Y26375196D01*
X2722795Y26374805D01*
X3136429Y26545715D01*
X3453172Y26861907D01*
X3624804Y27275242D01*
X3625195Y27722795D01*
X3454285Y28136429D01*
X3138093Y28453172D01*
X3034487Y28496193D01*
X3532429Y28701938D01*
X4046258Y29214871D01*
X4324683Y29885392D01*
X4325316Y30611422D01*
X4048062Y31282429D01*
X3535129Y31796258D01*
X2864608Y32074683D01*
X2138578Y32075316D01*
X1467571Y31798062D01*
X953742Y31285129D01*
X675317Y30614608D01*
X674684Y29888578D01*
X400000Y29888578D01*
X400000Y32325000D01*
X5068633Y32325000D01*
X5068633Y28925000D01*
X5091295Y28804562D01*
X5162474Y28693947D01*
X5271080Y28619740D01*
X5400000Y28593633D01*
X6900000Y28593633D01*
X7020438Y28616295D01*
X7131053Y28687474D01*
X7205260Y28796080D01*
X7231367Y28925000D01*
X7231367Y32325000D01*
X7208705Y32445438D01*
X7137526Y32556053D01*
X7028920Y32630260D01*
X6900000Y32656367D01*
X5400000Y32656367D01*
X5279562Y32633705D01*
X5168947Y32562526D01*
X5094740Y32453920D01*
X5068633Y32325000D01*
X400000Y32325000D01*
X400000Y32850000D01*
X53350000Y32850000D01*
X53350000Y400000D01*
G36*
X24125000Y17651776D02*
X23098224Y16625000D01*
X22981441Y16625000D01*
X22950000Y16631367D01*
X22025000Y16631367D01*
X22025000Y16825000D01*
X22350000Y16825000D01*
X22398632Y16834848D01*
X22439601Y16862841D01*
X22466451Y16904568D01*
X22475000Y16950000D01*
X22475000Y17925000D01*
X24125000Y17925000D01*
X24125000Y17651776D01*
X24125000Y17651776D01*
G37*
X24125000Y17651776D02*
X23098224Y16625000D01*
X22981441Y16625000D01*
X22950000Y16631367D01*
X22025000Y16631367D01*
X22025000Y16825000D01*
X22350000Y16825000D01*
X22398632Y16834848D01*
X22439601Y16862841D01*
X22466451Y16904568D01*
X22475000Y16950000D01*
X22475000Y17925000D01*
X24125000Y17925000D01*
X24125000Y17651776D01*
M02*
