G04 #@! TF.FileFunction,Other,Fab,Top*
%FSLAX46Y46*%
G04 Gerber Fmt 4.6, Leading zero omitted, Abs format (unit mm)*
G04 Created by KiCad (PCBNEW 4.0.6) date 06/06/17 12:12:10*
%MOMM*%
%LPD*%
G01*
G04 APERTURE LIST*
%ADD10C,0.100000*%
%ADD11C,0.150000*%
%ADD12C,0.500000*%
%ADD13C,0.075000*%
G04 APERTURE END LIST*
D10*
D11*
X11500000Y17000000D02*
X11500000Y16500000D01*
X11500000Y16500000D02*
X10500000Y16500000D01*
X10500000Y17000000D02*
X10500000Y14500000D01*
X10500000Y14500000D02*
X13500000Y14500000D01*
X13500000Y14500000D02*
X13500000Y17000000D01*
X13500000Y17000000D02*
X10500000Y17000000D01*
D10*
X40300000Y16200000D02*
X38700000Y16200000D01*
X38700000Y16200000D02*
X38700000Y13000000D01*
X38700000Y13000000D02*
X40300000Y13000000D01*
X40300000Y13000000D02*
X40300000Y16200000D01*
X40300000Y15880000D02*
X38700000Y15880000D01*
X40300000Y15720000D02*
X38700000Y15720000D01*
X14650000Y26125000D02*
X14650000Y24525000D01*
X14650000Y24525000D02*
X15450000Y24525000D01*
X15450000Y24525000D02*
X15450000Y32125000D01*
X15450000Y32125000D02*
X5550000Y32125000D01*
X5550000Y32125000D02*
X5550000Y24525000D01*
X5550000Y24525000D02*
X6350000Y24525000D01*
X6350000Y24525000D02*
X6350000Y26125000D01*
X6350000Y26125000D02*
X14650000Y26125000D01*
X13500000Y26125000D02*
X12500000Y27125000D01*
X12500000Y27125000D02*
X11500000Y26125000D01*
X32824000Y3250000D02*
G75*
G03X32824000Y3250000I-2324000J0D01*
G01*
X4824000Y30250000D02*
G75*
G03X4824000Y30250000I-2324000J0D01*
G01*
X4824000Y3250000D02*
G75*
G03X4824000Y3250000I-2324000J0D01*
G01*
X15100000Y12150000D02*
X15100000Y11350000D01*
X13500000Y12150000D02*
X15100000Y12150000D01*
X13500000Y11350000D02*
X13500000Y12150000D01*
X15100000Y11350000D02*
X13500000Y11350000D01*
X29150000Y7950000D02*
X29150000Y9550000D01*
X32350000Y7950000D02*
X29150000Y7950000D01*
X32350000Y9550000D02*
X32350000Y7950000D01*
X29150000Y9550000D02*
X32350000Y9550000D01*
X21350000Y6000000D02*
X18150000Y6000000D01*
X21350000Y10500000D02*
X21350000Y6000000D01*
X18150000Y10500000D02*
X21350000Y10500000D01*
X18150000Y6000000D02*
X18150000Y10500000D01*
X17150000Y17950000D02*
X16350000Y17950000D01*
X17150000Y19550000D02*
X17150000Y17950000D01*
X16350000Y19550000D02*
X17150000Y19550000D01*
X16350000Y17950000D02*
X16350000Y19550000D01*
X21350000Y18350000D02*
X21350000Y17550000D01*
X19750000Y18350000D02*
X21350000Y18350000D01*
X19750000Y17550000D02*
X19750000Y18350000D01*
X21350000Y17550000D02*
X19750000Y17550000D01*
X24200000Y17800000D02*
X23700000Y17800000D01*
X24200000Y18800000D02*
X24200000Y17800000D01*
X23700000Y18800000D02*
X24200000Y18800000D01*
X23700000Y17800000D02*
X23700000Y18800000D01*
X22450000Y18800000D02*
X22950000Y18800000D01*
X22450000Y17800000D02*
X22450000Y18800000D01*
X22950000Y17800000D02*
X22450000Y17800000D01*
X22950000Y18800000D02*
X22950000Y17800000D01*
X12100000Y12750000D02*
X12100000Y13250000D01*
X13100000Y12750000D02*
X12100000Y12750000D01*
X13100000Y13250000D02*
X13100000Y12750000D01*
X12100000Y13250000D02*
X13100000Y13250000D01*
D11*
X45500000Y17250000D02*
G75*
G03X45500000Y17250000I-1500000J0D01*
G01*
X45500000Y21850000D02*
G75*
G03X45500000Y21850000I-1500000J0D01*
G01*
D12*
X52250000Y31380000D02*
X52250000Y12280000D01*
X41460000Y31380000D02*
X41460000Y12280000D01*
D11*
X20850000Y11950000D02*
X17450000Y11950000D01*
X17450000Y11950000D02*
X17450000Y16950000D01*
X17450000Y16950000D02*
X21850000Y16950000D01*
X21850000Y16950000D02*
X21850000Y12950000D01*
X21850000Y12950000D02*
X20850000Y11950000D01*
X21850000Y3860000D02*
X25950000Y3860000D01*
X25950000Y3860000D02*
X25950000Y11130000D01*
X25950000Y11130000D02*
X21850000Y11130000D01*
X21850000Y11130000D02*
X21850000Y3860000D01*
D10*
X25240000Y8820000D02*
X25240000Y9220000D01*
X24730000Y8810000D02*
X25230000Y8010000D01*
X25730000Y8810000D02*
X24730000Y8810000D01*
X25230000Y8010000D02*
X25730000Y8810000D01*
X25230000Y8010000D02*
X25730000Y8010000D01*
X25230000Y8010000D02*
X24730000Y8010000D01*
X25230000Y7710000D02*
X25230000Y8010000D01*
D11*
X40500000Y21900000D02*
X37700000Y21900000D01*
X37700000Y21900000D02*
X37700000Y23100000D01*
X37700000Y23100000D02*
X40500000Y23100000D01*
X40500000Y23100000D02*
X40500000Y21900000D01*
D10*
X39290000Y21430000D02*
X39290000Y21830000D01*
X39240000Y21630000D02*
X38940000Y21430000D01*
X38940000Y21830000D02*
X39240000Y21630000D01*
X38940000Y21430000D02*
X38940000Y21830000D01*
X15800000Y17950000D02*
X15000000Y17950000D01*
X15800000Y19550000D02*
X15800000Y17950000D01*
X15000000Y19550000D02*
X15800000Y19550000D01*
X15000000Y17950000D02*
X15000000Y19550000D01*
X40324000Y30250000D02*
G75*
G03X40324000Y30250000I-2324000J0D01*
G01*
X18300000Y26150000D02*
X18300000Y23700000D01*
X18850000Y26720000D02*
X19700000Y26720000D01*
X18300000Y26150000D02*
X18850000Y26720000D01*
X19700000Y26720000D02*
X19700000Y23680000D01*
X18300000Y23680000D02*
X19700000Y23680000D01*
X18300000Y29650000D02*
X18300000Y27200000D01*
X18850000Y30220000D02*
X19700000Y30220000D01*
X18300000Y29650000D02*
X18850000Y30220000D01*
X19700000Y30220000D02*
X19700000Y27180000D01*
X18300000Y27180000D02*
X19700000Y27180000D01*
D11*
X27500000Y21150000D02*
X26100000Y21150000D01*
X26100000Y21150000D02*
X26100000Y10250000D01*
X35900000Y10350000D02*
X36900000Y11350000D01*
X36900000Y11350000D02*
X36900000Y21250000D01*
D10*
X32400000Y26125000D02*
X32400000Y24525000D01*
X32400000Y24525000D02*
X33200000Y24525000D01*
X33200000Y24525000D02*
X33200000Y32125000D01*
X33200000Y32125000D02*
X21300000Y32125000D01*
X21300000Y32125000D02*
X21300000Y24525000D01*
X21300000Y24525000D02*
X22100000Y24525000D01*
X22100000Y24525000D02*
X22100000Y26125000D01*
X22100000Y26125000D02*
X32400000Y26125000D01*
X31250000Y26125000D02*
X30250000Y27125000D01*
X30250000Y27125000D02*
X29250000Y26125000D01*
X6350000Y7125000D02*
X6350000Y8725000D01*
X6350000Y8725000D02*
X5550000Y8725000D01*
X5550000Y8725000D02*
X5550000Y1125000D01*
X5550000Y1125000D02*
X17450000Y1125000D01*
X17450000Y1125000D02*
X17450000Y8725000D01*
X17450000Y8725000D02*
X16650000Y8725000D01*
X16650000Y8725000D02*
X16650000Y7125000D01*
X16650000Y7125000D02*
X6350000Y7125000D01*
X7500000Y7125000D02*
X8500000Y6125000D01*
X8500000Y6125000D02*
X9500000Y7125000D01*
X46625000Y1850000D02*
X45025000Y1850000D01*
X45025000Y1850000D02*
X45025000Y1050000D01*
X45025000Y1050000D02*
X52625000Y1050000D01*
X52625000Y1050000D02*
X52625000Y8950000D01*
X52625000Y8950000D02*
X45025000Y8950000D01*
X45025000Y8950000D02*
X45025000Y8150000D01*
X45025000Y8150000D02*
X46625000Y8150000D01*
X46625000Y8150000D02*
X46625000Y1850000D01*
X46625000Y3000000D02*
X47625000Y4000000D01*
X47625000Y4000000D02*
X46625000Y5000000D01*
X35100000Y7125000D02*
X35100000Y8725000D01*
X35100000Y8725000D02*
X34300000Y8725000D01*
X34300000Y8725000D02*
X34300000Y1125000D01*
X34300000Y1125000D02*
X42200000Y1125000D01*
X42200000Y1125000D02*
X42200000Y8725000D01*
X42200000Y8725000D02*
X41400000Y8725000D01*
X41400000Y8725000D02*
X41400000Y7125000D01*
X41400000Y7125000D02*
X35100000Y7125000D01*
X36250000Y7125000D02*
X37250000Y6125000D01*
X37250000Y6125000D02*
X38250000Y7125000D01*
X8450000Y18100000D02*
X8450000Y18900000D01*
X10050000Y18100000D02*
X8450000Y18100000D01*
X10050000Y18900000D02*
X10050000Y18100000D01*
X8450000Y18900000D02*
X10050000Y18900000D01*
X16100000Y25300000D02*
X16900000Y25300000D01*
X16100000Y23700000D02*
X16100000Y25300000D01*
X16900000Y23700000D02*
X16100000Y23700000D01*
X16900000Y25300000D02*
X16900000Y23700000D01*
X16100000Y28800000D02*
X16900000Y28800000D01*
X16100000Y27200000D02*
X16100000Y28800000D01*
X16900000Y27200000D02*
X16100000Y27200000D01*
X16900000Y28800000D02*
X16900000Y27200000D01*
X38400000Y20200000D02*
X38400000Y21000000D01*
X40000000Y20200000D02*
X38400000Y20200000D01*
X40000000Y21000000D02*
X40000000Y20200000D01*
X38400000Y21000000D02*
X40000000Y21000000D01*
X7300000Y15700000D02*
X7300000Y14900000D01*
X5700000Y15700000D02*
X7300000Y15700000D01*
X5700000Y14900000D02*
X5700000Y15700000D01*
X7300000Y14900000D02*
X5700000Y14900000D01*
X7300000Y13550000D02*
X7300000Y12750000D01*
X5700000Y13550000D02*
X7300000Y13550000D01*
X5700000Y12750000D02*
X5700000Y13550000D01*
X7300000Y12750000D02*
X5700000Y12750000D01*
D11*
X9885714Y15616667D02*
X10266666Y15616667D01*
X9809523Y15388095D02*
X10076190Y16188095D01*
X10342857Y15388095D01*
X10609523Y15388095D02*
X10609523Y16188095D01*
X10799999Y16188095D01*
X10914285Y16150000D01*
X10990476Y16073810D01*
X11028571Y15997619D01*
X11066666Y15845238D01*
X11066666Y15730952D01*
X11028571Y15578571D01*
X10990476Y15502381D01*
X10914285Y15426190D01*
X10799999Y15388095D01*
X10609523Y15388095D01*
X11790476Y16188095D02*
X11409523Y16188095D01*
X11371428Y15807143D01*
X11409523Y15845238D01*
X11485714Y15883333D01*
X11676190Y15883333D01*
X11752380Y15845238D01*
X11790476Y15807143D01*
X11828571Y15730952D01*
X11828571Y15540476D01*
X11790476Y15464286D01*
X11752380Y15426190D01*
X11676190Y15388095D01*
X11485714Y15388095D01*
X11409523Y15426190D01*
X11371428Y15464286D01*
X12133333Y16111905D02*
X12171428Y16150000D01*
X12247619Y16188095D01*
X12438095Y16188095D01*
X12514285Y16150000D01*
X12552381Y16111905D01*
X12590476Y16035714D01*
X12590476Y15959524D01*
X12552381Y15845238D01*
X12095238Y15388095D01*
X12590476Y15388095D01*
X13276190Y15921429D02*
X13276190Y15388095D01*
X13085714Y16226190D02*
X12895238Y15654762D01*
X13390476Y15654762D01*
X13619048Y16188095D02*
X14152381Y16188095D01*
X13809524Y15388095D01*
X37402381Y13957143D02*
X37402381Y13385714D01*
X37402381Y13671428D02*
X36402381Y13671428D01*
X36545238Y13576190D01*
X36640476Y13480952D01*
X36688095Y13385714D01*
X36402381Y14576190D02*
X36402381Y14671429D01*
X36450000Y14766667D01*
X36497619Y14814286D01*
X36592857Y14861905D01*
X36783333Y14909524D01*
X37021429Y14909524D01*
X37211905Y14861905D01*
X37307143Y14814286D01*
X37354762Y14766667D01*
X37402381Y14671429D01*
X37402381Y14576190D01*
X37354762Y14480952D01*
X37307143Y14433333D01*
X37211905Y14385714D01*
X37021429Y14338095D01*
X36783333Y14338095D01*
X36592857Y14385714D01*
X36497619Y14433333D01*
X36450000Y14480952D01*
X36402381Y14576190D01*
X36735714Y15766667D02*
X37402381Y15766667D01*
X36735714Y15338095D02*
X37259524Y15338095D01*
X37354762Y15385714D01*
X37402381Y15480952D01*
X37402381Y15623810D01*
X37354762Y15719048D01*
X37307143Y15766667D01*
X6476191Y32767857D02*
X6428572Y32720238D01*
X6285715Y32672619D01*
X6190477Y32672619D01*
X6047619Y32720238D01*
X5952381Y32815476D01*
X5904762Y32910714D01*
X5857143Y33101190D01*
X5857143Y33244048D01*
X5904762Y33434524D01*
X5952381Y33529762D01*
X6047619Y33625000D01*
X6190477Y33672619D01*
X6285715Y33672619D01*
X6428572Y33625000D01*
X6476191Y33577381D01*
X7095238Y33672619D02*
X7285715Y33672619D01*
X7380953Y33625000D01*
X7476191Y33529762D01*
X7523810Y33339286D01*
X7523810Y33005952D01*
X7476191Y32815476D01*
X7380953Y32720238D01*
X7285715Y32672619D01*
X7095238Y32672619D01*
X7000000Y32720238D01*
X6904762Y32815476D01*
X6857143Y33005952D01*
X6857143Y33339286D01*
X6904762Y33529762D01*
X7000000Y33625000D01*
X7095238Y33672619D01*
X7952381Y32672619D02*
X7952381Y33672619D01*
X8523810Y32672619D01*
X8523810Y33672619D01*
X9000000Y32672619D02*
X9000000Y33672619D01*
X9571429Y32672619D01*
X9571429Y33672619D01*
X9809524Y32577381D02*
X10571429Y32577381D01*
X11000000Y33672619D02*
X11095239Y33672619D01*
X11190477Y33625000D01*
X11238096Y33577381D01*
X11285715Y33482143D01*
X11333334Y33291667D01*
X11333334Y33053571D01*
X11285715Y32863095D01*
X11238096Y32767857D01*
X11190477Y32720238D01*
X11095239Y32672619D01*
X11000000Y32672619D01*
X10904762Y32720238D01*
X10857143Y32767857D01*
X10809524Y32863095D01*
X10761905Y33053571D01*
X10761905Y33291667D01*
X10809524Y33482143D01*
X10857143Y33577381D01*
X10904762Y33625000D01*
X11000000Y33672619D01*
X12285715Y32672619D02*
X11714286Y32672619D01*
X12000000Y32672619D02*
X12000000Y33672619D01*
X11904762Y33529762D01*
X11809524Y33434524D01*
X11714286Y33386905D01*
X12619048Y33672619D02*
X13285715Y32672619D01*
X13285715Y33672619D02*
X12619048Y32672619D01*
X13857143Y33672619D02*
X13952382Y33672619D01*
X14047620Y33625000D01*
X14095239Y33577381D01*
X14142858Y33482143D01*
X14190477Y33291667D01*
X14190477Y33053571D01*
X14142858Y32863095D01*
X14095239Y32767857D01*
X14047620Y32720238D01*
X13952382Y32672619D01*
X13857143Y32672619D01*
X13761905Y32720238D01*
X13714286Y32767857D01*
X13666667Y32863095D01*
X13619048Y33053571D01*
X13619048Y33291667D01*
X13666667Y33482143D01*
X13714286Y33577381D01*
X13761905Y33625000D01*
X13857143Y33672619D01*
X14523810Y33672619D02*
X15142858Y33672619D01*
X14809524Y33291667D01*
X14952382Y33291667D01*
X15047620Y33244048D01*
X15095239Y33196429D01*
X15142858Y33101190D01*
X15142858Y32863095D01*
X15095239Y32767857D01*
X15047620Y32720238D01*
X14952382Y32672619D01*
X14666667Y32672619D01*
X14571429Y32720238D01*
X14523810Y32767857D01*
X10166667Y29797619D02*
X10166667Y29083333D01*
X10119047Y28940476D01*
X10023809Y28845238D01*
X9880952Y28797619D01*
X9785714Y28797619D01*
X10595238Y29702381D02*
X10642857Y29750000D01*
X10738095Y29797619D01*
X10976191Y29797619D01*
X11071429Y29750000D01*
X11119048Y29702381D01*
X11166667Y29607143D01*
X11166667Y29511905D01*
X11119048Y29369048D01*
X10547619Y28797619D01*
X11166667Y28797619D01*
X13704762Y12797619D02*
X13133333Y12797619D01*
X13419047Y12797619D02*
X13419047Y13797619D01*
X13323809Y13654762D01*
X13228571Y13559524D01*
X13133333Y13511905D01*
X14561905Y13464286D02*
X14561905Y12797619D01*
X14133333Y13464286D02*
X14133333Y12940476D01*
X14180952Y12845238D01*
X14276190Y12797619D01*
X14419048Y12797619D01*
X14514286Y12845238D01*
X14561905Y12892857D01*
X15371429Y13321429D02*
X15038095Y13321429D01*
X15038095Y12797619D02*
X15038095Y13797619D01*
X15514286Y13797619D01*
X14213334Y11352857D02*
X14165715Y11305238D01*
X14022858Y11257619D01*
X13927620Y11257619D01*
X13784762Y11305238D01*
X13689524Y11400476D01*
X13641905Y11495714D01*
X13594286Y11686190D01*
X13594286Y11829048D01*
X13641905Y12019524D01*
X13689524Y12114762D01*
X13784762Y12210000D01*
X13927620Y12257619D01*
X14022858Y12257619D01*
X14165715Y12210000D01*
X14213334Y12162381D01*
X15070477Y11924286D02*
X15070477Y11257619D01*
X14832381Y12305238D02*
X14594286Y11590952D01*
X15213334Y11590952D01*
X29345239Y6964286D02*
X29345239Y6297619D01*
X29107143Y7345238D02*
X28869048Y6630952D01*
X29488096Y6630952D01*
X29869048Y6392857D02*
X29916667Y6345238D01*
X29869048Y6297619D01*
X29821429Y6345238D01*
X29869048Y6392857D01*
X29869048Y6297619D01*
X30250000Y7297619D02*
X30916667Y7297619D01*
X30488095Y6297619D01*
X31726191Y6964286D02*
X31726191Y6297619D01*
X31297619Y6964286D02*
X31297619Y6440476D01*
X31345238Y6345238D01*
X31440476Y6297619D01*
X31583334Y6297619D01*
X31678572Y6345238D01*
X31726191Y6392857D01*
X32535715Y6821429D02*
X32202381Y6821429D01*
X32202381Y6297619D02*
X32202381Y7297619D01*
X32678572Y7297619D01*
X30613334Y8337857D02*
X30565715Y8290238D01*
X30422858Y8242619D01*
X30327620Y8242619D01*
X30184762Y8290238D01*
X30089524Y8385476D01*
X30041905Y8480714D01*
X29994286Y8671190D01*
X29994286Y8814048D01*
X30041905Y9004524D01*
X30089524Y9099762D01*
X30184762Y9195000D01*
X30327620Y9242619D01*
X30422858Y9242619D01*
X30565715Y9195000D01*
X30613334Y9147381D01*
X30994286Y9147381D02*
X31041905Y9195000D01*
X31137143Y9242619D01*
X31375239Y9242619D01*
X31470477Y9195000D01*
X31518096Y9147381D01*
X31565715Y9052143D01*
X31565715Y8956905D01*
X31518096Y8814048D01*
X30946667Y8242619D01*
X31565715Y8242619D01*
X22952381Y7178572D02*
X22952381Y6607143D01*
X22952381Y6892857D02*
X21952381Y6892857D01*
X22095238Y6797619D01*
X22190476Y6702381D01*
X22238095Y6607143D01*
X21952381Y7797619D02*
X21952381Y7892858D01*
X22000000Y7988096D01*
X22047619Y8035715D01*
X22142857Y8083334D01*
X22333333Y8130953D01*
X22571429Y8130953D01*
X22761905Y8083334D01*
X22857143Y8035715D01*
X22904762Y7988096D01*
X22952381Y7892858D01*
X22952381Y7797619D01*
X22904762Y7702381D01*
X22857143Y7654762D01*
X22761905Y7607143D01*
X22571429Y7559524D01*
X22333333Y7559524D01*
X22142857Y7607143D01*
X22047619Y7654762D01*
X22000000Y7702381D01*
X21952381Y7797619D01*
X22285714Y8988096D02*
X22952381Y8988096D01*
X22285714Y8559524D02*
X22809524Y8559524D01*
X22904762Y8607143D01*
X22952381Y8702381D01*
X22952381Y8845239D01*
X22904762Y8940477D01*
X22857143Y8988096D01*
X22428571Y9797620D02*
X22428571Y9464286D01*
X22952381Y9464286D02*
X21952381Y9464286D01*
X21952381Y9940477D01*
X19927143Y8103334D02*
X19974762Y8055715D01*
X20022381Y7912858D01*
X20022381Y7817620D01*
X19974762Y7674762D01*
X19879524Y7579524D01*
X19784286Y7531905D01*
X19593810Y7484286D01*
X19450952Y7484286D01*
X19260476Y7531905D01*
X19165238Y7579524D01*
X19070000Y7674762D01*
X19022381Y7817620D01*
X19022381Y7912858D01*
X19070000Y8055715D01*
X19117619Y8103334D01*
X19022381Y8436667D02*
X19022381Y9055715D01*
X19403333Y8722381D01*
X19403333Y8865239D01*
X19450952Y8960477D01*
X19498571Y9008096D01*
X19593810Y9055715D01*
X19831905Y9055715D01*
X19927143Y9008096D01*
X19974762Y8960477D01*
X20022381Y8865239D01*
X20022381Y8579524D01*
X19974762Y8484286D01*
X19927143Y8436667D01*
X17702381Y17107143D02*
X17702381Y17202382D01*
X17750000Y17297620D01*
X17797619Y17345239D01*
X17892857Y17392858D01*
X18083333Y17440477D01*
X18321429Y17440477D01*
X18511905Y17392858D01*
X18607143Y17345239D01*
X18654762Y17297620D01*
X18702381Y17202382D01*
X18702381Y17107143D01*
X18654762Y17011905D01*
X18607143Y16964286D01*
X18511905Y16916667D01*
X18321429Y16869048D01*
X18083333Y16869048D01*
X17892857Y16916667D01*
X17797619Y16964286D01*
X17750000Y17011905D01*
X17702381Y17107143D01*
X18607143Y17869048D02*
X18654762Y17916667D01*
X18702381Y17869048D01*
X18654762Y17821429D01*
X18607143Y17869048D01*
X18702381Y17869048D01*
X18702381Y18869048D02*
X18702381Y18297619D01*
X18702381Y18583333D02*
X17702381Y18583333D01*
X17845238Y18488095D01*
X17940476Y18392857D01*
X17988095Y18297619D01*
X18035714Y19726191D02*
X18702381Y19726191D01*
X18035714Y19297619D02*
X18559524Y19297619D01*
X18654762Y19345238D01*
X18702381Y19440476D01*
X18702381Y19583334D01*
X18654762Y19678572D01*
X18607143Y19726191D01*
X18178571Y20535715D02*
X18178571Y20202381D01*
X18702381Y20202381D02*
X17702381Y20202381D01*
X17702381Y20678572D01*
X17052143Y18578334D02*
X17099762Y18530715D01*
X17147381Y18387858D01*
X17147381Y18292620D01*
X17099762Y18149762D01*
X17004524Y18054524D01*
X16909286Y18006905D01*
X16718810Y17959286D01*
X16575952Y17959286D01*
X16385476Y18006905D01*
X16290238Y18054524D01*
X16195000Y18149762D01*
X16147381Y18292620D01*
X16147381Y18387858D01*
X16195000Y18530715D01*
X16242619Y18578334D01*
X16147381Y19483096D02*
X16147381Y19006905D01*
X16623571Y18959286D01*
X16575952Y19006905D01*
X16528333Y19102143D01*
X16528333Y19340239D01*
X16575952Y19435477D01*
X16623571Y19483096D01*
X16718810Y19530715D01*
X16956905Y19530715D01*
X17052143Y19483096D01*
X17099762Y19435477D01*
X17147381Y19340239D01*
X17147381Y19102143D01*
X17099762Y19006905D01*
X17052143Y18959286D01*
X19954762Y18997619D02*
X19383333Y18997619D01*
X19669047Y18997619D02*
X19669047Y19997619D01*
X19573809Y19854762D01*
X19478571Y19759524D01*
X19383333Y19711905D01*
X20811905Y19664286D02*
X20811905Y18997619D01*
X20383333Y19664286D02*
X20383333Y19140476D01*
X20430952Y19045238D01*
X20526190Y18997619D01*
X20669048Y18997619D01*
X20764286Y19045238D01*
X20811905Y19092857D01*
X21621429Y19521429D02*
X21288095Y19521429D01*
X21288095Y18997619D02*
X21288095Y19997619D01*
X21764286Y19997619D01*
X20443334Y17562857D02*
X20395715Y17515238D01*
X20252858Y17467619D01*
X20157620Y17467619D01*
X20014762Y17515238D01*
X19919524Y17610476D01*
X19871905Y17705714D01*
X19824286Y17896190D01*
X19824286Y18039048D01*
X19871905Y18229524D01*
X19919524Y18324762D01*
X20014762Y18420000D01*
X20157620Y18467619D01*
X20252858Y18467619D01*
X20395715Y18420000D01*
X20443334Y18372381D01*
X21300477Y18467619D02*
X21110000Y18467619D01*
X21014762Y18420000D01*
X20967143Y18372381D01*
X20871905Y18229524D01*
X20824286Y18039048D01*
X20824286Y17658095D01*
X20871905Y17562857D01*
X20919524Y17515238D01*
X21014762Y17467619D01*
X21205239Y17467619D01*
X21300477Y17515238D01*
X21348096Y17562857D01*
X21395715Y17658095D01*
X21395715Y17896190D01*
X21348096Y17991429D01*
X21300477Y18039048D01*
X21205239Y18086667D01*
X21014762Y18086667D01*
X20919524Y18039048D01*
X20871905Y17991429D01*
X20824286Y17896190D01*
X25852381Y17228572D02*
X25852381Y16657143D01*
X25852381Y16942857D02*
X24852381Y16942857D01*
X24995238Y16847619D01*
X25090476Y16752381D01*
X25138095Y16657143D01*
X24852381Y17847619D02*
X24852381Y17942858D01*
X24900000Y18038096D01*
X24947619Y18085715D01*
X25042857Y18133334D01*
X25233333Y18180953D01*
X25471429Y18180953D01*
X25661905Y18133334D01*
X25757143Y18085715D01*
X25804762Y18038096D01*
X25852381Y17942858D01*
X25852381Y17847619D01*
X25804762Y17752381D01*
X25757143Y17704762D01*
X25661905Y17657143D01*
X25471429Y17609524D01*
X25233333Y17609524D01*
X25042857Y17657143D01*
X24947619Y17704762D01*
X24900000Y17752381D01*
X24852381Y17847619D01*
X24852381Y18800000D02*
X24852381Y18895239D01*
X24900000Y18990477D01*
X24947619Y19038096D01*
X25042857Y19085715D01*
X25233333Y19133334D01*
X25471429Y19133334D01*
X25661905Y19085715D01*
X25757143Y19038096D01*
X25804762Y18990477D01*
X25852381Y18895239D01*
X25852381Y18800000D01*
X25804762Y18704762D01*
X25757143Y18657143D01*
X25661905Y18609524D01*
X25471429Y18561905D01*
X25233333Y18561905D01*
X25042857Y18609524D01*
X24947619Y18657143D01*
X24900000Y18704762D01*
X24852381Y18800000D01*
X25852381Y19561905D02*
X24852381Y19561905D01*
X25471429Y19657143D02*
X25852381Y19942858D01*
X25185714Y19942858D02*
X25566667Y19561905D01*
X23052381Y18133334D02*
X22576190Y17800000D01*
X23052381Y17561905D02*
X22052381Y17561905D01*
X22052381Y17942858D01*
X22100000Y18038096D01*
X22147619Y18085715D01*
X22242857Y18133334D01*
X22385714Y18133334D01*
X22480952Y18085715D01*
X22528571Y18038096D01*
X22576190Y17942858D01*
X22576190Y17561905D01*
X23052381Y19085715D02*
X23052381Y18514286D01*
X23052381Y18800000D02*
X22052381Y18800000D01*
X22195238Y18704762D01*
X22290476Y18609524D01*
X22338095Y18514286D01*
X20797619Y17133333D02*
X20750000Y17180952D01*
X20702381Y17276190D01*
X20702381Y17514286D01*
X20750000Y17609524D01*
X20797619Y17657143D01*
X20892857Y17704762D01*
X20988095Y17704762D01*
X21130952Y17657143D01*
X21702381Y17085714D01*
X21702381Y17704762D01*
X21035714Y18561905D02*
X21702381Y18561905D01*
X20654762Y18323809D02*
X21369048Y18085714D01*
X21369048Y18704762D01*
X21702381Y19085714D02*
X20702381Y19085714D01*
X21321429Y19180952D02*
X21702381Y19466667D01*
X21035714Y19466667D02*
X21416667Y19085714D01*
X24502381Y18133334D02*
X24026190Y17800000D01*
X24502381Y17561905D02*
X23502381Y17561905D01*
X23502381Y17942858D01*
X23550000Y18038096D01*
X23597619Y18085715D01*
X23692857Y18133334D01*
X23835714Y18133334D01*
X23930952Y18085715D01*
X23978571Y18038096D01*
X24026190Y17942858D01*
X24026190Y17561905D01*
X23597619Y18514286D02*
X23550000Y18561905D01*
X23502381Y18657143D01*
X23502381Y18895239D01*
X23550000Y18990477D01*
X23597619Y19038096D01*
X23692857Y19085715D01*
X23788095Y19085715D01*
X23930952Y19038096D01*
X24502381Y18466667D01*
X24502381Y19085715D01*
X11195239Y12097619D02*
X11004762Y12097619D01*
X10909524Y12050000D01*
X10861905Y12002381D01*
X10766667Y11859524D01*
X10719048Y11669048D01*
X10719048Y11288095D01*
X10766667Y11192857D01*
X10814286Y11145238D01*
X10909524Y11097619D01*
X11100001Y11097619D01*
X11195239Y11145238D01*
X11242858Y11192857D01*
X11290477Y11288095D01*
X11290477Y11526190D01*
X11242858Y11621429D01*
X11195239Y11669048D01*
X11100001Y11716667D01*
X10909524Y11716667D01*
X10814286Y11669048D01*
X10766667Y11621429D01*
X10719048Y11526190D01*
X11766667Y11097619D02*
X11957143Y11097619D01*
X12052382Y11145238D01*
X12100001Y11192857D01*
X12195239Y11335714D01*
X12242858Y11526190D01*
X12242858Y11907143D01*
X12195239Y12002381D01*
X12147620Y12050000D01*
X12052382Y12097619D01*
X11861905Y12097619D01*
X11766667Y12050000D01*
X11719048Y12002381D01*
X11671429Y11907143D01*
X11671429Y11669048D01*
X11719048Y11573810D01*
X11766667Y11526190D01*
X11861905Y11478571D01*
X12052382Y11478571D01*
X12147620Y11526190D01*
X12195239Y11573810D01*
X12242858Y11669048D01*
X12671429Y11192857D02*
X12719048Y11145238D01*
X12671429Y11097619D01*
X12623810Y11145238D01*
X12671429Y11192857D01*
X12671429Y11097619D01*
X13290476Y11669048D02*
X13195238Y11716667D01*
X13147619Y11764286D01*
X13100000Y11859524D01*
X13100000Y11907143D01*
X13147619Y12002381D01*
X13195238Y12050000D01*
X13290476Y12097619D01*
X13480953Y12097619D01*
X13576191Y12050000D01*
X13623810Y12002381D01*
X13671429Y11907143D01*
X13671429Y11859524D01*
X13623810Y11764286D01*
X13576191Y11716667D01*
X13480953Y11669048D01*
X13290476Y11669048D01*
X13195238Y11621429D01*
X13147619Y11573810D01*
X13100000Y11478571D01*
X13100000Y11288095D01*
X13147619Y11192857D01*
X13195238Y11145238D01*
X13290476Y11097619D01*
X13480953Y11097619D01*
X13576191Y11145238D01*
X13623810Y11192857D01*
X13671429Y11288095D01*
X13671429Y11478571D01*
X13623810Y11573810D01*
X13576191Y11621429D01*
X13480953Y11669048D01*
X14100000Y11097619D02*
X14100000Y12097619D01*
X14195238Y11478571D02*
X14480953Y11097619D01*
X14480953Y11764286D02*
X14100000Y11383333D01*
X12443334Y12637619D02*
X12110000Y13113810D01*
X11871905Y12637619D02*
X11871905Y13637619D01*
X12252858Y13637619D01*
X12348096Y13590000D01*
X12395715Y13542381D01*
X12443334Y13447143D01*
X12443334Y13304286D01*
X12395715Y13209048D01*
X12348096Y13161429D01*
X12252858Y13113810D01*
X11871905Y13113810D01*
X12776667Y13637619D02*
X13395715Y13637619D01*
X13062381Y13256667D01*
X13205239Y13256667D01*
X13300477Y13209048D01*
X13348096Y13161429D01*
X13395715Y13066190D01*
X13395715Y12828095D01*
X13348096Y12732857D01*
X13300477Y12685238D01*
X13205239Y12637619D01*
X12919524Y12637619D01*
X12824286Y12685238D01*
X12776667Y12732857D01*
X452382Y7871429D02*
X119048Y7871429D01*
X119048Y7347619D02*
X119048Y8347619D01*
X595239Y8347619D01*
X738096Y7252381D02*
X1500001Y7252381D01*
X2261906Y7347619D02*
X1690477Y7347619D01*
X1976191Y7347619D02*
X1976191Y8347619D01*
X1880953Y8204762D01*
X1785715Y8109524D01*
X1690477Y8061905D01*
X2690477Y7347619D02*
X2690477Y8014286D01*
X2690477Y7919048D02*
X2738096Y7966667D01*
X2833334Y8014286D01*
X2976192Y8014286D01*
X3071430Y7966667D01*
X3119049Y7871429D01*
X3119049Y7347619D01*
X3119049Y7871429D02*
X3166668Y7966667D01*
X3261906Y8014286D01*
X3404763Y8014286D01*
X3500001Y7966667D01*
X3547620Y7871429D01*
X3547620Y7347619D01*
X4023810Y7347619D02*
X4023810Y8014286D01*
X4023810Y7919048D02*
X4071429Y7966667D01*
X4166667Y8014286D01*
X4309525Y8014286D01*
X4404763Y7966667D01*
X4452382Y7871429D01*
X4452382Y7347619D01*
X4452382Y7871429D02*
X4500001Y7966667D01*
X4595239Y8014286D01*
X4738096Y8014286D01*
X4833334Y7966667D01*
X4880953Y7871429D01*
X4880953Y7347619D01*
X35952382Y29371429D02*
X35619048Y29371429D01*
X35619048Y28847619D02*
X35619048Y29847619D01*
X36095239Y29847619D01*
X36238096Y28752381D02*
X37000001Y28752381D01*
X37761906Y28847619D02*
X37190477Y28847619D01*
X37476191Y28847619D02*
X37476191Y29847619D01*
X37380953Y29704762D01*
X37285715Y29609524D01*
X37190477Y29561905D01*
X38190477Y28847619D02*
X38190477Y29514286D01*
X38190477Y29419048D02*
X38238096Y29466667D01*
X38333334Y29514286D01*
X38476192Y29514286D01*
X38571430Y29466667D01*
X38619049Y29371429D01*
X38619049Y28847619D01*
X38619049Y29371429D02*
X38666668Y29466667D01*
X38761906Y29514286D01*
X38904763Y29514286D01*
X39000001Y29466667D01*
X39047620Y29371429D01*
X39047620Y28847619D01*
X39523810Y28847619D02*
X39523810Y29514286D01*
X39523810Y29419048D02*
X39571429Y29466667D01*
X39666667Y29514286D01*
X39809525Y29514286D01*
X39904763Y29466667D01*
X39952382Y29371429D01*
X39952382Y28847619D01*
X39952382Y29371429D02*
X40000001Y29466667D01*
X40095239Y29514286D01*
X40238096Y29514286D01*
X40333334Y29466667D01*
X40380953Y29371429D01*
X40380953Y28847619D01*
X452382Y29371429D02*
X119048Y29371429D01*
X119048Y28847619D02*
X119048Y29847619D01*
X595239Y29847619D01*
X738096Y28752381D02*
X1500001Y28752381D01*
X2261906Y28847619D02*
X1690477Y28847619D01*
X1976191Y28847619D02*
X1976191Y29847619D01*
X1880953Y29704762D01*
X1785715Y29609524D01*
X1690477Y29561905D01*
X2690477Y28847619D02*
X2690477Y29514286D01*
X2690477Y29419048D02*
X2738096Y29466667D01*
X2833334Y29514286D01*
X2976192Y29514286D01*
X3071430Y29466667D01*
X3119049Y29371429D01*
X3119049Y28847619D01*
X3119049Y29371429D02*
X3166668Y29466667D01*
X3261906Y29514286D01*
X3404763Y29514286D01*
X3500001Y29466667D01*
X3547620Y29371429D01*
X3547620Y28847619D01*
X4023810Y28847619D02*
X4023810Y29514286D01*
X4023810Y29419048D02*
X4071429Y29466667D01*
X4166667Y29514286D01*
X4309525Y29514286D01*
X4404763Y29466667D01*
X4452382Y29371429D01*
X4452382Y28847619D01*
X4452382Y29371429D02*
X4500001Y29466667D01*
X4595239Y29514286D01*
X4738096Y29514286D01*
X4833334Y29466667D01*
X4880953Y29371429D01*
X4880953Y28847619D01*
X40928571Y9945238D02*
X41071428Y9897619D01*
X41309524Y9897619D01*
X41404762Y9945238D01*
X41452381Y9992857D01*
X41500000Y10088095D01*
X41500000Y10183333D01*
X41452381Y10278571D01*
X41404762Y10326190D01*
X41309524Y10373810D01*
X41119047Y10421429D01*
X41023809Y10469048D01*
X40976190Y10516667D01*
X40928571Y10611905D01*
X40928571Y10707143D01*
X40976190Y10802381D01*
X41023809Y10850000D01*
X41119047Y10897619D01*
X41357143Y10897619D01*
X41500000Y10850000D01*
X41833333Y10897619D02*
X42071428Y9897619D01*
X42261905Y10611905D01*
X42452381Y9897619D01*
X42690476Y10897619D01*
X42833333Y9802381D02*
X43595238Y9802381D01*
X43785714Y9945238D02*
X43928571Y9897619D01*
X44166667Y9897619D01*
X44261905Y9945238D01*
X44309524Y9992857D01*
X44357143Y10088095D01*
X44357143Y10183333D01*
X44309524Y10278571D01*
X44261905Y10326190D01*
X44166667Y10373810D01*
X43976190Y10421429D01*
X43880952Y10469048D01*
X43833333Y10516667D01*
X43785714Y10611905D01*
X43785714Y10707143D01*
X43833333Y10802381D01*
X43880952Y10850000D01*
X43976190Y10897619D01*
X44214286Y10897619D01*
X44357143Y10850000D01*
X44785714Y9897619D02*
X44785714Y10897619D01*
X45166667Y10897619D01*
X45261905Y10850000D01*
X45309524Y10802381D01*
X45357143Y10707143D01*
X45357143Y10564286D01*
X45309524Y10469048D01*
X45261905Y10421429D01*
X45166667Y10373810D01*
X44785714Y10373810D01*
X45738095Y9945238D02*
X45880952Y9897619D01*
X46119048Y9897619D01*
X46214286Y9945238D01*
X46261905Y9992857D01*
X46309524Y10088095D01*
X46309524Y10183333D01*
X46261905Y10278571D01*
X46214286Y10326190D01*
X46119048Y10373810D01*
X45928571Y10421429D01*
X45833333Y10469048D01*
X45785714Y10516667D01*
X45738095Y10611905D01*
X45738095Y10707143D01*
X45785714Y10802381D01*
X45833333Y10850000D01*
X45928571Y10897619D01*
X46166667Y10897619D01*
X46309524Y10850000D01*
X46595238Y10897619D02*
X47166667Y10897619D01*
X46880952Y9897619D02*
X46880952Y10897619D01*
X48634762Y20801667D02*
X48682381Y20944524D01*
X48682381Y21182620D01*
X48634762Y21277858D01*
X48587143Y21325477D01*
X48491905Y21373096D01*
X48396667Y21373096D01*
X48301429Y21325477D01*
X48253810Y21277858D01*
X48206190Y21182620D01*
X48158571Y20992143D01*
X48110952Y20896905D01*
X48063333Y20849286D01*
X47968095Y20801667D01*
X47872857Y20801667D01*
X47777619Y20849286D01*
X47730000Y20896905D01*
X47682381Y20992143D01*
X47682381Y21230239D01*
X47730000Y21373096D01*
X47682381Y21706429D02*
X48682381Y21944524D01*
X47968095Y22135001D01*
X48682381Y22325477D01*
X47682381Y22563572D01*
X48682381Y23468334D02*
X48682381Y22896905D01*
X48682381Y23182619D02*
X47682381Y23182619D01*
X47825238Y23087381D01*
X47920476Y22992143D01*
X47968095Y22896905D01*
X16578572Y17547619D02*
X16102381Y17547619D01*
X16102381Y18547619D01*
X16769048Y18547619D02*
X17340477Y18547619D01*
X17054762Y17547619D02*
X17054762Y18547619D01*
X17578572Y18547619D02*
X18197620Y18547619D01*
X17864286Y18166667D01*
X18007144Y18166667D01*
X18102382Y18119048D01*
X18150001Y18071429D01*
X18197620Y17976190D01*
X18197620Y17738095D01*
X18150001Y17642857D01*
X18102382Y17595238D01*
X18007144Y17547619D01*
X17721429Y17547619D01*
X17626191Y17595238D01*
X17578572Y17642857D01*
X19054763Y18214286D02*
X19054763Y17547619D01*
X18816667Y18595238D02*
X18578572Y17880952D01*
X19197620Y17880952D01*
X19483334Y18547619D02*
X20150001Y18547619D01*
X19721429Y17547619D01*
X20673810Y18119048D02*
X20578572Y18166667D01*
X20530953Y18214286D01*
X20483334Y18309524D01*
X20483334Y18357143D01*
X20530953Y18452381D01*
X20578572Y18500000D01*
X20673810Y18547619D01*
X20864287Y18547619D01*
X20959525Y18500000D01*
X21007144Y18452381D01*
X21054763Y18357143D01*
X21054763Y18309524D01*
X21007144Y18214286D01*
X20959525Y18166667D01*
X20864287Y18119048D01*
X20673810Y18119048D01*
X20578572Y18071429D01*
X20530953Y18023810D01*
X20483334Y17928571D01*
X20483334Y17738095D01*
X20530953Y17642857D01*
X20578572Y17595238D01*
X20673810Y17547619D01*
X20864287Y17547619D01*
X20959525Y17595238D01*
X21007144Y17642857D01*
X21054763Y17738095D01*
X21054763Y17928571D01*
X21007144Y18023810D01*
X20959525Y18071429D01*
X20864287Y18119048D01*
X21483334Y17928571D02*
X22245239Y17928571D01*
X23245239Y17547619D02*
X22673810Y17547619D01*
X22959524Y17547619D02*
X22959524Y18547619D01*
X22864286Y18404762D01*
X22769048Y18309524D01*
X22673810Y18261905D01*
X18888095Y15007619D02*
X18888095Y14198095D01*
X18935714Y14102857D01*
X18983333Y14055238D01*
X19078571Y14007619D01*
X19269048Y14007619D01*
X19364286Y14055238D01*
X19411905Y14102857D01*
X19459524Y14198095D01*
X19459524Y15007619D01*
X20459524Y14007619D02*
X19888095Y14007619D01*
X20173809Y14007619D02*
X20173809Y15007619D01*
X20078571Y14864762D01*
X19983333Y14769524D01*
X19888095Y14721905D01*
X28222381Y2032380D02*
X27222381Y2032380D01*
X27222381Y2270475D01*
X27270000Y2413333D01*
X27365238Y2508571D01*
X27460476Y2556190D01*
X27650952Y2603809D01*
X27793810Y2603809D01*
X27984286Y2556190D01*
X28079524Y2508571D01*
X28174762Y2413333D01*
X28222381Y2270475D01*
X28222381Y2032380D01*
X28317619Y2794285D02*
X28317619Y3556190D01*
X28174762Y3746666D02*
X28222381Y3889523D01*
X28222381Y4127619D01*
X28174762Y4222857D01*
X28127143Y4270476D01*
X28031905Y4318095D01*
X27936667Y4318095D01*
X27841429Y4270476D01*
X27793810Y4222857D01*
X27746190Y4127619D01*
X27698571Y3937142D01*
X27650952Y3841904D01*
X27603333Y3794285D01*
X27508095Y3746666D01*
X27412857Y3746666D01*
X27317619Y3794285D01*
X27270000Y3841904D01*
X27222381Y3937142D01*
X27222381Y4175238D01*
X27270000Y4318095D01*
X28174762Y5175238D02*
X28222381Y5080000D01*
X28222381Y4889523D01*
X28174762Y4794285D01*
X28127143Y4746666D01*
X28031905Y4699047D01*
X27746190Y4699047D01*
X27650952Y4746666D01*
X27603333Y4794285D01*
X27555714Y4889523D01*
X27555714Y5080000D01*
X27603333Y5175238D01*
X28222381Y5603809D02*
X27222381Y5603809D01*
X28222381Y6032381D02*
X27698571Y6032381D01*
X27603333Y5984762D01*
X27555714Y5889524D01*
X27555714Y5746666D01*
X27603333Y5651428D01*
X27650952Y5603809D01*
X28222381Y6651428D02*
X28174762Y6556190D01*
X28127143Y6508571D01*
X28031905Y6460952D01*
X27746190Y6460952D01*
X27650952Y6508571D01*
X27603333Y6556190D01*
X27555714Y6651428D01*
X27555714Y6794286D01*
X27603333Y6889524D01*
X27650952Y6937143D01*
X27746190Y6984762D01*
X28031905Y6984762D01*
X28127143Y6937143D01*
X28174762Y6889524D01*
X28222381Y6794286D01*
X28222381Y6651428D01*
X27555714Y7270476D02*
X27555714Y7651428D01*
X27222381Y7413333D02*
X28079524Y7413333D01*
X28174762Y7460952D01*
X28222381Y7556190D01*
X28222381Y7651428D01*
X27555714Y7841905D02*
X27555714Y8222857D01*
X27222381Y7984762D02*
X28079524Y7984762D01*
X28174762Y8032381D01*
X28222381Y8127619D01*
X28222381Y8222857D01*
X28222381Y8556191D02*
X27222381Y8556191D01*
X27841429Y8651429D02*
X28222381Y8937144D01*
X27555714Y8937144D02*
X27936667Y8556191D01*
X27555714Y9270477D02*
X28222381Y9508572D01*
X27555714Y9746668D02*
X28222381Y9508572D01*
X28460476Y9413334D01*
X28508095Y9365715D01*
X28555714Y9270477D01*
X28317619Y9889525D02*
X28317619Y10651430D01*
X27936667Y10841906D02*
X27936667Y11318097D01*
X28222381Y10746668D02*
X27222381Y11080001D01*
X28222381Y11413335D01*
X27936667Y11699049D02*
X27936667Y12175240D01*
X28222381Y11603811D02*
X27222381Y11937144D01*
X28222381Y12270478D01*
X28222381Y12603811D02*
X27222381Y12603811D01*
X28222381Y13175240D02*
X27650952Y12746668D01*
X27222381Y13175240D02*
X27793810Y12603811D01*
X22842381Y3008095D02*
X21842381Y3008095D01*
X22842381Y3579524D02*
X22270952Y3150952D01*
X21842381Y3579524D02*
X22413810Y3008095D01*
X22616667Y11501905D02*
X22616667Y11978096D01*
X22902381Y11406667D02*
X21902381Y11740000D01*
X22902381Y12073334D01*
X24352381Y6761905D02*
X23352381Y6761905D01*
X23352381Y7000000D01*
X23400000Y7142858D01*
X23495238Y7238096D01*
X23590476Y7285715D01*
X23780952Y7333334D01*
X23923810Y7333334D01*
X24114286Y7285715D01*
X24209524Y7238096D01*
X24304762Y7142858D01*
X24352381Y7000000D01*
X24352381Y6761905D01*
X24352381Y8285715D02*
X24352381Y7714286D01*
X24352381Y8000000D02*
X23352381Y8000000D01*
X23495238Y7904762D01*
X23590476Y7809524D01*
X23638095Y7714286D01*
X38457143Y23397619D02*
X37980952Y23397619D01*
X37980952Y24397619D01*
X38790476Y23921429D02*
X39123810Y23921429D01*
X39266667Y23397619D02*
X38790476Y23397619D01*
X38790476Y24397619D01*
X39266667Y24397619D01*
X39695238Y23397619D02*
X39695238Y24397619D01*
X39933333Y24397619D01*
X40076191Y24350000D01*
X40171429Y24254762D01*
X40219048Y24159524D01*
X40266667Y23969048D01*
X40266667Y23826190D01*
X40219048Y23635714D01*
X40171429Y23540476D01*
X40076191Y23445238D01*
X39933333Y23397619D01*
X39695238Y23397619D01*
X40838095Y22047619D02*
X40838095Y23047619D01*
X41409524Y22047619D02*
X40980952Y22619048D01*
X41409524Y23047619D02*
X40838095Y22476190D01*
X36561905Y22333333D02*
X37038096Y22333333D01*
X36466667Y22047619D02*
X36800000Y23047619D01*
X37133334Y22047619D01*
X38361905Y22047619D02*
X38361905Y23047619D01*
X38600000Y23047619D01*
X38742858Y23000000D01*
X38838096Y22904762D01*
X38885715Y22809524D01*
X38933334Y22619048D01*
X38933334Y22476190D01*
X38885715Y22285714D01*
X38838096Y22190476D01*
X38742858Y22095238D01*
X38600000Y22047619D01*
X38361905Y22047619D01*
X39314286Y22952381D02*
X39361905Y23000000D01*
X39457143Y23047619D01*
X39695239Y23047619D01*
X39790477Y23000000D01*
X39838096Y22952381D01*
X39885715Y22857143D01*
X39885715Y22761905D01*
X39838096Y22619048D01*
X39266667Y22047619D01*
X39885715Y22047619D01*
X16352381Y16821429D02*
X16352381Y17440477D01*
X16733333Y17107143D01*
X16733333Y17250001D01*
X16780952Y17345239D01*
X16828571Y17392858D01*
X16923810Y17440477D01*
X17161905Y17440477D01*
X17257143Y17392858D01*
X17304762Y17345239D01*
X17352381Y17250001D01*
X17352381Y16964286D01*
X17304762Y16869048D01*
X17257143Y16821429D01*
X17257143Y17869048D02*
X17304762Y17916667D01*
X17352381Y17869048D01*
X17304762Y17821429D01*
X17257143Y17869048D01*
X17352381Y17869048D01*
X16352381Y18250000D02*
X16352381Y18869048D01*
X16733333Y18535714D01*
X16733333Y18678572D01*
X16780952Y18773810D01*
X16828571Y18821429D01*
X16923810Y18869048D01*
X17161905Y18869048D01*
X17257143Y18821429D01*
X17304762Y18773810D01*
X17352381Y18678572D01*
X17352381Y18392857D01*
X17304762Y18297619D01*
X17257143Y18250000D01*
X16685714Y19726191D02*
X17352381Y19726191D01*
X16685714Y19297619D02*
X17209524Y19297619D01*
X17304762Y19345238D01*
X17352381Y19440476D01*
X17352381Y19583334D01*
X17304762Y19678572D01*
X17257143Y19726191D01*
X16828571Y20535715D02*
X16828571Y20202381D01*
X17352381Y20202381D02*
X16352381Y20202381D01*
X16352381Y20678572D01*
X15607143Y18583334D02*
X15654762Y18535715D01*
X15702381Y18392858D01*
X15702381Y18297620D01*
X15654762Y18154762D01*
X15559524Y18059524D01*
X15464286Y18011905D01*
X15273810Y17964286D01*
X15130952Y17964286D01*
X14940476Y18011905D01*
X14845238Y18059524D01*
X14750000Y18154762D01*
X14702381Y18297620D01*
X14702381Y18392858D01*
X14750000Y18535715D01*
X14797619Y18583334D01*
X15702381Y19535715D02*
X15702381Y18964286D01*
X15702381Y19250000D02*
X14702381Y19250000D01*
X14845238Y19154762D01*
X14940476Y19059524D01*
X14988095Y18964286D01*
X14119048Y22295238D02*
X14261905Y22247619D01*
X14500001Y22247619D01*
X14595239Y22295238D01*
X14642858Y22342857D01*
X14690477Y22438095D01*
X14690477Y22533333D01*
X14642858Y22628571D01*
X14595239Y22676190D01*
X14500001Y22723810D01*
X14309524Y22771429D01*
X14214286Y22819048D01*
X14166667Y22866667D01*
X14119048Y22961905D01*
X14119048Y23057143D01*
X14166667Y23152381D01*
X14214286Y23200000D01*
X14309524Y23247619D01*
X14547620Y23247619D01*
X14690477Y23200000D01*
X15119048Y22247619D02*
X15119048Y22914286D01*
X15119048Y23247619D02*
X15071429Y23200000D01*
X15119048Y23152381D01*
X15166667Y23200000D01*
X15119048Y23247619D01*
X15119048Y23152381D01*
X15547619Y23152381D02*
X15595238Y23200000D01*
X15690476Y23247619D01*
X15928572Y23247619D01*
X16023810Y23200000D01*
X16071429Y23152381D01*
X16119048Y23057143D01*
X16119048Y22961905D01*
X16071429Y22819048D01*
X15500000Y22247619D01*
X16119048Y22247619D01*
X16452381Y23247619D02*
X17071429Y23247619D01*
X16738095Y22866667D01*
X16880953Y22866667D01*
X16976191Y22819048D01*
X17023810Y22771429D01*
X17071429Y22676190D01*
X17071429Y22438095D01*
X17023810Y22342857D01*
X16976191Y22295238D01*
X16880953Y22247619D01*
X16595238Y22247619D01*
X16500000Y22295238D01*
X16452381Y22342857D01*
X18023810Y22247619D02*
X17452381Y22247619D01*
X17738095Y22247619D02*
X17738095Y23247619D01*
X17642857Y23104762D01*
X17547619Y23009524D01*
X17452381Y22961905D01*
X18595238Y22819048D02*
X18500000Y22866667D01*
X18452381Y22914286D01*
X18404762Y23009524D01*
X18404762Y23057143D01*
X18452381Y23152381D01*
X18500000Y23200000D01*
X18595238Y23247619D01*
X18785715Y23247619D01*
X18880953Y23200000D01*
X18928572Y23152381D01*
X18976191Y23057143D01*
X18976191Y23009524D01*
X18928572Y22914286D01*
X18880953Y22866667D01*
X18785715Y22819048D01*
X18595238Y22819048D01*
X18500000Y22771429D01*
X18452381Y22723810D01*
X18404762Y22628571D01*
X18404762Y22438095D01*
X18452381Y22342857D01*
X18500000Y22295238D01*
X18595238Y22247619D01*
X18785715Y22247619D01*
X18880953Y22295238D01*
X18928572Y22342857D01*
X18976191Y22438095D01*
X18976191Y22628571D01*
X18928572Y22723810D01*
X18880953Y22771429D01*
X18785715Y22819048D01*
X19404762Y22247619D02*
X19404762Y23247619D01*
X19642857Y23247619D01*
X19785715Y23200000D01*
X19880953Y23104762D01*
X19928572Y23009524D01*
X19976191Y22819048D01*
X19976191Y22676190D01*
X19928572Y22485714D01*
X19880953Y22390476D01*
X19785715Y22295238D01*
X19642857Y22247619D01*
X19404762Y22247619D01*
X20357143Y22295238D02*
X20500000Y22247619D01*
X20738096Y22247619D01*
X20833334Y22295238D01*
X20880953Y22342857D01*
X20928572Y22438095D01*
X20928572Y22533333D01*
X20880953Y22628571D01*
X20833334Y22676190D01*
X20738096Y22723810D01*
X20547619Y22771429D01*
X20452381Y22819048D01*
X20404762Y22866667D01*
X20357143Y22961905D01*
X20357143Y23057143D01*
X20404762Y23152381D01*
X20452381Y23200000D01*
X20547619Y23247619D01*
X20785715Y23247619D01*
X20928572Y23200000D01*
X21357143Y22628571D02*
X22119048Y22628571D01*
X22452381Y23247619D02*
X23023810Y23247619D01*
X22738095Y22247619D02*
X22738095Y23247619D01*
X23880953Y22247619D02*
X23309524Y22247619D01*
X23595238Y22247619D02*
X23595238Y23247619D01*
X23500000Y23104762D01*
X23404762Y23009524D01*
X23309524Y22961905D01*
D13*
X18952381Y24926190D02*
X18904762Y24950000D01*
X18857143Y24997619D01*
X18785714Y25069048D01*
X18738095Y25092857D01*
X18690476Y25092857D01*
X18714286Y24973810D02*
X18666667Y24997619D01*
X18619048Y25045238D01*
X18595238Y25140476D01*
X18595238Y25307143D01*
X18619048Y25402381D01*
X18666667Y25450000D01*
X18714286Y25473810D01*
X18809524Y25473810D01*
X18857143Y25450000D01*
X18904762Y25402381D01*
X18928571Y25307143D01*
X18928571Y25140476D01*
X18904762Y25045238D01*
X18857143Y24997619D01*
X18809524Y24973810D01*
X18714286Y24973810D01*
X19404762Y24973810D02*
X19119048Y24973810D01*
X19261905Y24973810D02*
X19261905Y25473810D01*
X19214286Y25402381D01*
X19166667Y25354762D01*
X19119048Y25330952D01*
D11*
X14119048Y25795238D02*
X14261905Y25747619D01*
X14500001Y25747619D01*
X14595239Y25795238D01*
X14642858Y25842857D01*
X14690477Y25938095D01*
X14690477Y26033333D01*
X14642858Y26128571D01*
X14595239Y26176190D01*
X14500001Y26223810D01*
X14309524Y26271429D01*
X14214286Y26319048D01*
X14166667Y26366667D01*
X14119048Y26461905D01*
X14119048Y26557143D01*
X14166667Y26652381D01*
X14214286Y26700000D01*
X14309524Y26747619D01*
X14547620Y26747619D01*
X14690477Y26700000D01*
X15119048Y25747619D02*
X15119048Y26414286D01*
X15119048Y26747619D02*
X15071429Y26700000D01*
X15119048Y26652381D01*
X15166667Y26700000D01*
X15119048Y26747619D01*
X15119048Y26652381D01*
X15547619Y26652381D02*
X15595238Y26700000D01*
X15690476Y26747619D01*
X15928572Y26747619D01*
X16023810Y26700000D01*
X16071429Y26652381D01*
X16119048Y26557143D01*
X16119048Y26461905D01*
X16071429Y26319048D01*
X15500000Y25747619D01*
X16119048Y25747619D01*
X16452381Y26747619D02*
X17071429Y26747619D01*
X16738095Y26366667D01*
X16880953Y26366667D01*
X16976191Y26319048D01*
X17023810Y26271429D01*
X17071429Y26176190D01*
X17071429Y25938095D01*
X17023810Y25842857D01*
X16976191Y25795238D01*
X16880953Y25747619D01*
X16595238Y25747619D01*
X16500000Y25795238D01*
X16452381Y25842857D01*
X18023810Y25747619D02*
X17452381Y25747619D01*
X17738095Y25747619D02*
X17738095Y26747619D01*
X17642857Y26604762D01*
X17547619Y26509524D01*
X17452381Y26461905D01*
X18595238Y26319048D02*
X18500000Y26366667D01*
X18452381Y26414286D01*
X18404762Y26509524D01*
X18404762Y26557143D01*
X18452381Y26652381D01*
X18500000Y26700000D01*
X18595238Y26747619D01*
X18785715Y26747619D01*
X18880953Y26700000D01*
X18928572Y26652381D01*
X18976191Y26557143D01*
X18976191Y26509524D01*
X18928572Y26414286D01*
X18880953Y26366667D01*
X18785715Y26319048D01*
X18595238Y26319048D01*
X18500000Y26271429D01*
X18452381Y26223810D01*
X18404762Y26128571D01*
X18404762Y25938095D01*
X18452381Y25842857D01*
X18500000Y25795238D01*
X18595238Y25747619D01*
X18785715Y25747619D01*
X18880953Y25795238D01*
X18928572Y25842857D01*
X18976191Y25938095D01*
X18976191Y26128571D01*
X18928572Y26223810D01*
X18880953Y26271429D01*
X18785715Y26319048D01*
X19404762Y25747619D02*
X19404762Y26747619D01*
X19642857Y26747619D01*
X19785715Y26700000D01*
X19880953Y26604762D01*
X19928572Y26509524D01*
X19976191Y26319048D01*
X19976191Y26176190D01*
X19928572Y25985714D01*
X19880953Y25890476D01*
X19785715Y25795238D01*
X19642857Y25747619D01*
X19404762Y25747619D01*
X20357143Y25795238D02*
X20500000Y25747619D01*
X20738096Y25747619D01*
X20833334Y25795238D01*
X20880953Y25842857D01*
X20928572Y25938095D01*
X20928572Y26033333D01*
X20880953Y26128571D01*
X20833334Y26176190D01*
X20738096Y26223810D01*
X20547619Y26271429D01*
X20452381Y26319048D01*
X20404762Y26366667D01*
X20357143Y26461905D01*
X20357143Y26557143D01*
X20404762Y26652381D01*
X20452381Y26700000D01*
X20547619Y26747619D01*
X20785715Y26747619D01*
X20928572Y26700000D01*
X21357143Y26128571D02*
X22119048Y26128571D01*
X22452381Y26747619D02*
X23023810Y26747619D01*
X22738095Y25747619D02*
X22738095Y26747619D01*
X23880953Y25747619D02*
X23309524Y25747619D01*
X23595238Y25747619D02*
X23595238Y26747619D01*
X23500000Y26604762D01*
X23404762Y26509524D01*
X23309524Y26461905D01*
D13*
X18952381Y28426190D02*
X18904762Y28450000D01*
X18857143Y28497619D01*
X18785714Y28569048D01*
X18738095Y28592857D01*
X18690476Y28592857D01*
X18714286Y28473810D02*
X18666667Y28497619D01*
X18619048Y28545238D01*
X18595238Y28640476D01*
X18595238Y28807143D01*
X18619048Y28902381D01*
X18666667Y28950000D01*
X18714286Y28973810D01*
X18809524Y28973810D01*
X18857143Y28950000D01*
X18904762Y28902381D01*
X18928571Y28807143D01*
X18928571Y28640476D01*
X18904762Y28545238D01*
X18857143Y28497619D01*
X18809524Y28473810D01*
X18714286Y28473810D01*
X19119048Y28926190D02*
X19142858Y28950000D01*
X19190477Y28973810D01*
X19309524Y28973810D01*
X19357143Y28950000D01*
X19380953Y28926190D01*
X19404762Y28878571D01*
X19404762Y28830952D01*
X19380953Y28759524D01*
X19095239Y28473810D01*
X19404762Y28473810D01*
D11*
X29920001Y22717619D02*
X29729524Y22717619D01*
X29634286Y22670000D01*
X29586667Y22622381D01*
X29491429Y22479524D01*
X29443810Y22289048D01*
X29443810Y21908095D01*
X29491429Y21812857D01*
X29539048Y21765238D01*
X29634286Y21717619D01*
X29824763Y21717619D01*
X29920001Y21765238D01*
X29967620Y21812857D01*
X30015239Y21908095D01*
X30015239Y22146190D01*
X29967620Y22241429D01*
X29920001Y22289048D01*
X29824763Y22336667D01*
X29634286Y22336667D01*
X29539048Y22289048D01*
X29491429Y22241429D01*
X29443810Y22146190D01*
X30443810Y21812857D02*
X30491429Y21765238D01*
X30443810Y21717619D01*
X30396191Y21765238D01*
X30443810Y21812857D01*
X30443810Y21717619D01*
X31062857Y22289048D02*
X30967619Y22336667D01*
X30920000Y22384286D01*
X30872381Y22479524D01*
X30872381Y22527143D01*
X30920000Y22622381D01*
X30967619Y22670000D01*
X31062857Y22717619D01*
X31253334Y22717619D01*
X31348572Y22670000D01*
X31396191Y22622381D01*
X31443810Y22527143D01*
X31443810Y22479524D01*
X31396191Y22384286D01*
X31348572Y22336667D01*
X31253334Y22289048D01*
X31062857Y22289048D01*
X30967619Y22241429D01*
X30920000Y22193810D01*
X30872381Y22098571D01*
X30872381Y21908095D01*
X30920000Y21812857D01*
X30967619Y21765238D01*
X31062857Y21717619D01*
X31253334Y21717619D01*
X31348572Y21765238D01*
X31396191Y21812857D01*
X31443810Y21908095D01*
X31443810Y22098571D01*
X31396191Y22193810D01*
X31348572Y22241429D01*
X31253334Y22289048D01*
X32300953Y22384286D02*
X32300953Y21717619D01*
X31872381Y22384286D02*
X31872381Y21860476D01*
X31920000Y21765238D01*
X32015238Y21717619D01*
X32158096Y21717619D01*
X32253334Y21765238D01*
X32300953Y21812857D01*
X32777143Y21717619D02*
X32777143Y22717619D01*
X32777143Y22241429D02*
X33348572Y22241429D01*
X33348572Y21717619D02*
X33348572Y22717619D01*
X31333334Y15297619D02*
X30857143Y15297619D01*
X30857143Y16297619D01*
X32190477Y15297619D02*
X31619048Y15297619D01*
X31904762Y15297619D02*
X31904762Y16297619D01*
X31809524Y16154762D01*
X31714286Y16059524D01*
X31619048Y16011905D01*
X23226191Y32767857D02*
X23178572Y32720238D01*
X23035715Y32672619D01*
X22940477Y32672619D01*
X22797619Y32720238D01*
X22702381Y32815476D01*
X22654762Y32910714D01*
X22607143Y33101190D01*
X22607143Y33244048D01*
X22654762Y33434524D01*
X22702381Y33529762D01*
X22797619Y33625000D01*
X22940477Y33672619D01*
X23035715Y33672619D01*
X23178572Y33625000D01*
X23226191Y33577381D01*
X23845238Y33672619D02*
X24035715Y33672619D01*
X24130953Y33625000D01*
X24226191Y33529762D01*
X24273810Y33339286D01*
X24273810Y33005952D01*
X24226191Y32815476D01*
X24130953Y32720238D01*
X24035715Y32672619D01*
X23845238Y32672619D01*
X23750000Y32720238D01*
X23654762Y32815476D01*
X23607143Y33005952D01*
X23607143Y33339286D01*
X23654762Y33529762D01*
X23750000Y33625000D01*
X23845238Y33672619D01*
X24702381Y32672619D02*
X24702381Y33672619D01*
X25273810Y32672619D01*
X25273810Y33672619D01*
X25750000Y32672619D02*
X25750000Y33672619D01*
X26321429Y32672619D01*
X26321429Y33672619D01*
X26559524Y32577381D02*
X27321429Y32577381D01*
X27750000Y33672619D02*
X27845239Y33672619D01*
X27940477Y33625000D01*
X27988096Y33577381D01*
X28035715Y33482143D01*
X28083334Y33291667D01*
X28083334Y33053571D01*
X28035715Y32863095D01*
X27988096Y32767857D01*
X27940477Y32720238D01*
X27845239Y32672619D01*
X27750000Y32672619D01*
X27654762Y32720238D01*
X27607143Y32767857D01*
X27559524Y32863095D01*
X27511905Y33053571D01*
X27511905Y33291667D01*
X27559524Y33482143D01*
X27607143Y33577381D01*
X27654762Y33625000D01*
X27750000Y33672619D01*
X29035715Y32672619D02*
X28464286Y32672619D01*
X28750000Y32672619D02*
X28750000Y33672619D01*
X28654762Y33529762D01*
X28559524Y33434524D01*
X28464286Y33386905D01*
X29369048Y33672619D02*
X30035715Y32672619D01*
X30035715Y33672619D02*
X29369048Y32672619D01*
X30607143Y33672619D02*
X30702382Y33672619D01*
X30797620Y33625000D01*
X30845239Y33577381D01*
X30892858Y33482143D01*
X30940477Y33291667D01*
X30940477Y33053571D01*
X30892858Y32863095D01*
X30845239Y32767857D01*
X30797620Y32720238D01*
X30702382Y32672619D01*
X30607143Y32672619D01*
X30511905Y32720238D01*
X30464286Y32767857D01*
X30416667Y32863095D01*
X30369048Y33053571D01*
X30369048Y33291667D01*
X30416667Y33482143D01*
X30464286Y33577381D01*
X30511905Y33625000D01*
X30607143Y33672619D01*
X31797620Y33339286D02*
X31797620Y32672619D01*
X31559524Y33720238D02*
X31321429Y33005952D01*
X31940477Y33005952D01*
X26916667Y29797619D02*
X26916667Y29083333D01*
X26869047Y28940476D01*
X26773809Y28845238D01*
X26630952Y28797619D01*
X26535714Y28797619D01*
X27916667Y28797619D02*
X27345238Y28797619D01*
X27630952Y28797619D02*
X27630952Y29797619D01*
X27535714Y29654762D01*
X27440476Y29559524D01*
X27345238Y29511905D01*
X7476191Y-232143D02*
X7428572Y-279762D01*
X7285715Y-327381D01*
X7190477Y-327381D01*
X7047619Y-279762D01*
X6952381Y-184524D01*
X6904762Y-89286D01*
X6857143Y101190D01*
X6857143Y244048D01*
X6904762Y434524D01*
X6952381Y529762D01*
X7047619Y625000D01*
X7190477Y672619D01*
X7285715Y672619D01*
X7428572Y625000D01*
X7476191Y577381D01*
X8095238Y672619D02*
X8285715Y672619D01*
X8380953Y625000D01*
X8476191Y529762D01*
X8523810Y339286D01*
X8523810Y5952D01*
X8476191Y-184524D01*
X8380953Y-279762D01*
X8285715Y-327381D01*
X8095238Y-327381D01*
X8000000Y-279762D01*
X7904762Y-184524D01*
X7857143Y5952D01*
X7857143Y339286D01*
X7904762Y529762D01*
X8000000Y625000D01*
X8095238Y672619D01*
X8952381Y-327381D02*
X8952381Y672619D01*
X9523810Y-327381D01*
X9523810Y672619D01*
X10000000Y-327381D02*
X10000000Y672619D01*
X10571429Y-327381D01*
X10571429Y672619D01*
X10809524Y-422619D02*
X11571429Y-422619D01*
X12000000Y672619D02*
X12095239Y672619D01*
X12190477Y625000D01*
X12238096Y577381D01*
X12285715Y482143D01*
X12333334Y291667D01*
X12333334Y53571D01*
X12285715Y-136905D01*
X12238096Y-232143D01*
X12190477Y-279762D01*
X12095239Y-327381D01*
X12000000Y-327381D01*
X11904762Y-279762D01*
X11857143Y-232143D01*
X11809524Y-136905D01*
X11761905Y53571D01*
X11761905Y291667D01*
X11809524Y482143D01*
X11857143Y577381D01*
X11904762Y625000D01*
X12000000Y672619D01*
X13285715Y-327381D02*
X12714286Y-327381D01*
X13000000Y-327381D02*
X13000000Y672619D01*
X12904762Y529762D01*
X12809524Y434524D01*
X12714286Y386905D01*
X13619048Y672619D02*
X14285715Y-327381D01*
X14285715Y672619D02*
X13619048Y-327381D01*
X14857143Y672619D02*
X14952382Y672619D01*
X15047620Y625000D01*
X15095239Y577381D01*
X15142858Y482143D01*
X15190477Y291667D01*
X15190477Y53571D01*
X15142858Y-136905D01*
X15095239Y-232143D01*
X15047620Y-279762D01*
X14952382Y-327381D01*
X14857143Y-327381D01*
X14761905Y-279762D01*
X14714286Y-232143D01*
X14666667Y-136905D01*
X14619048Y53571D01*
X14619048Y291667D01*
X14666667Y482143D01*
X14714286Y577381D01*
X14761905Y625000D01*
X14857143Y672619D01*
X16047620Y339286D02*
X16047620Y-327381D01*
X15809524Y720238D02*
X15571429Y5952D01*
X16190477Y5952D01*
X11166667Y4547619D02*
X11166667Y3833333D01*
X11119047Y3690476D01*
X11023809Y3595238D01*
X10880952Y3547619D01*
X10785714Y3547619D01*
X11547619Y4547619D02*
X12166667Y4547619D01*
X11833333Y4166667D01*
X11976191Y4166667D01*
X12071429Y4119048D01*
X12119048Y4071429D01*
X12166667Y3976190D01*
X12166667Y3738095D01*
X12119048Y3642857D01*
X12071429Y3595238D01*
X11976191Y3547619D01*
X11690476Y3547619D01*
X11595238Y3595238D01*
X11547619Y3642857D01*
X53982143Y976191D02*
X54029762Y928572D01*
X54077381Y785715D01*
X54077381Y690477D01*
X54029762Y547619D01*
X53934524Y452381D01*
X53839286Y404762D01*
X53648810Y357143D01*
X53505952Y357143D01*
X53315476Y404762D01*
X53220238Y452381D01*
X53125000Y547619D01*
X53077381Y690477D01*
X53077381Y785715D01*
X53125000Y928572D01*
X53172619Y976191D01*
X53077381Y1595238D02*
X53077381Y1785715D01*
X53125000Y1880953D01*
X53220238Y1976191D01*
X53410714Y2023810D01*
X53744048Y2023810D01*
X53934524Y1976191D01*
X54029762Y1880953D01*
X54077381Y1785715D01*
X54077381Y1595238D01*
X54029762Y1500000D01*
X53934524Y1404762D01*
X53744048Y1357143D01*
X53410714Y1357143D01*
X53220238Y1404762D01*
X53125000Y1500000D01*
X53077381Y1595238D01*
X54077381Y2452381D02*
X53077381Y2452381D01*
X54077381Y3023810D01*
X53077381Y3023810D01*
X54077381Y3500000D02*
X53077381Y3500000D01*
X54077381Y4071429D01*
X53077381Y4071429D01*
X54172619Y4309524D02*
X54172619Y5071429D01*
X53077381Y5500000D02*
X53077381Y5595239D01*
X53125000Y5690477D01*
X53172619Y5738096D01*
X53267857Y5785715D01*
X53458333Y5833334D01*
X53696429Y5833334D01*
X53886905Y5785715D01*
X53982143Y5738096D01*
X54029762Y5690477D01*
X54077381Y5595239D01*
X54077381Y5500000D01*
X54029762Y5404762D01*
X53982143Y5357143D01*
X53886905Y5309524D01*
X53696429Y5261905D01*
X53458333Y5261905D01*
X53267857Y5309524D01*
X53172619Y5357143D01*
X53125000Y5404762D01*
X53077381Y5500000D01*
X54077381Y6785715D02*
X54077381Y6214286D01*
X54077381Y6500000D02*
X53077381Y6500000D01*
X53220238Y6404762D01*
X53315476Y6309524D01*
X53363095Y6214286D01*
X53077381Y7119048D02*
X54077381Y7785715D01*
X53077381Y7785715D02*
X54077381Y7119048D01*
X53077381Y8357143D02*
X53077381Y8452382D01*
X53125000Y8547620D01*
X53172619Y8595239D01*
X53267857Y8642858D01*
X53458333Y8690477D01*
X53696429Y8690477D01*
X53886905Y8642858D01*
X53982143Y8595239D01*
X54029762Y8547620D01*
X54077381Y8452382D01*
X54077381Y8357143D01*
X54029762Y8261905D01*
X53982143Y8214286D01*
X53886905Y8166667D01*
X53696429Y8119048D01*
X53458333Y8119048D01*
X53267857Y8166667D01*
X53172619Y8214286D01*
X53125000Y8261905D01*
X53077381Y8357143D01*
X53172619Y9071429D02*
X53125000Y9119048D01*
X53077381Y9214286D01*
X53077381Y9452382D01*
X53125000Y9547620D01*
X53172619Y9595239D01*
X53267857Y9642858D01*
X53363095Y9642858D01*
X53505952Y9595239D01*
X54077381Y9023810D01*
X54077381Y9642858D01*
X49202381Y4666667D02*
X49916667Y4666667D01*
X50059524Y4619047D01*
X50154762Y4523809D01*
X50202381Y4380952D01*
X50202381Y4285714D01*
X49535714Y5571429D02*
X50202381Y5571429D01*
X49154762Y5333333D02*
X49869048Y5095238D01*
X49869048Y5714286D01*
X34226191Y-232143D02*
X34178572Y-279762D01*
X34035715Y-327381D01*
X33940477Y-327381D01*
X33797619Y-279762D01*
X33702381Y-184524D01*
X33654762Y-89286D01*
X33607143Y101190D01*
X33607143Y244048D01*
X33654762Y434524D01*
X33702381Y529762D01*
X33797619Y625000D01*
X33940477Y672619D01*
X34035715Y672619D01*
X34178572Y625000D01*
X34226191Y577381D01*
X34845238Y672619D02*
X35035715Y672619D01*
X35130953Y625000D01*
X35226191Y529762D01*
X35273810Y339286D01*
X35273810Y5952D01*
X35226191Y-184524D01*
X35130953Y-279762D01*
X35035715Y-327381D01*
X34845238Y-327381D01*
X34750000Y-279762D01*
X34654762Y-184524D01*
X34607143Y5952D01*
X34607143Y339286D01*
X34654762Y529762D01*
X34750000Y625000D01*
X34845238Y672619D01*
X35702381Y-327381D02*
X35702381Y672619D01*
X36273810Y-327381D01*
X36273810Y672619D01*
X36750000Y-327381D02*
X36750000Y672619D01*
X37321429Y-327381D01*
X37321429Y672619D01*
X37559524Y-422619D02*
X38321429Y-422619D01*
X38750000Y672619D02*
X38845239Y672619D01*
X38940477Y625000D01*
X38988096Y577381D01*
X39035715Y482143D01*
X39083334Y291667D01*
X39083334Y53571D01*
X39035715Y-136905D01*
X38988096Y-232143D01*
X38940477Y-279762D01*
X38845239Y-327381D01*
X38750000Y-327381D01*
X38654762Y-279762D01*
X38607143Y-232143D01*
X38559524Y-136905D01*
X38511905Y53571D01*
X38511905Y291667D01*
X38559524Y482143D01*
X38607143Y577381D01*
X38654762Y625000D01*
X38750000Y672619D01*
X40035715Y-327381D02*
X39464286Y-327381D01*
X39750000Y-327381D02*
X39750000Y672619D01*
X39654762Y529762D01*
X39559524Y434524D01*
X39464286Y386905D01*
X40369048Y672619D02*
X41035715Y-327381D01*
X41035715Y672619D02*
X40369048Y-327381D01*
X41607143Y672619D02*
X41702382Y672619D01*
X41797620Y625000D01*
X41845239Y577381D01*
X41892858Y482143D01*
X41940477Y291667D01*
X41940477Y53571D01*
X41892858Y-136905D01*
X41845239Y-232143D01*
X41797620Y-279762D01*
X41702382Y-327381D01*
X41607143Y-327381D01*
X41511905Y-279762D01*
X41464286Y-232143D01*
X41416667Y-136905D01*
X41369048Y53571D01*
X41369048Y291667D01*
X41416667Y482143D01*
X41464286Y577381D01*
X41511905Y625000D01*
X41607143Y672619D01*
X42321429Y577381D02*
X42369048Y625000D01*
X42464286Y672619D01*
X42702382Y672619D01*
X42797620Y625000D01*
X42845239Y577381D01*
X42892858Y482143D01*
X42892858Y386905D01*
X42845239Y244048D01*
X42273810Y-327381D01*
X42892858Y-327381D01*
X37916667Y4547619D02*
X37916667Y3833333D01*
X37869047Y3690476D01*
X37773809Y3595238D01*
X37630952Y3547619D01*
X37535714Y3547619D01*
X38869048Y4547619D02*
X38392857Y4547619D01*
X38345238Y4071429D01*
X38392857Y4119048D01*
X38488095Y4166667D01*
X38726191Y4166667D01*
X38821429Y4119048D01*
X38869048Y4071429D01*
X38916667Y3976190D01*
X38916667Y3738095D01*
X38869048Y3642857D01*
X38821429Y3595238D01*
X38726191Y3547619D01*
X38488095Y3547619D01*
X38392857Y3595238D01*
X38345238Y3642857D01*
X7607143Y17547619D02*
X7702382Y17547619D01*
X7797620Y17500000D01*
X7845239Y17452381D01*
X7892858Y17357143D01*
X7940477Y17166667D01*
X7940477Y16928571D01*
X7892858Y16738095D01*
X7845239Y16642857D01*
X7797620Y16595238D01*
X7702382Y16547619D01*
X7607143Y16547619D01*
X7511905Y16595238D01*
X7464286Y16642857D01*
X7416667Y16738095D01*
X7369048Y16928571D01*
X7369048Y17166667D01*
X7416667Y17357143D01*
X7464286Y17452381D01*
X7511905Y17500000D01*
X7607143Y17547619D01*
X8369048Y16642857D02*
X8416667Y16595238D01*
X8369048Y16547619D01*
X8321429Y16595238D01*
X8369048Y16642857D01*
X8369048Y16547619D01*
X9369048Y16547619D02*
X8797619Y16547619D01*
X9083333Y16547619D02*
X9083333Y17547619D01*
X8988095Y17404762D01*
X8892857Y17309524D01*
X8797619Y17261905D01*
X10226191Y17214286D02*
X10226191Y16547619D01*
X9797619Y17214286D02*
X9797619Y16690476D01*
X9845238Y16595238D01*
X9940476Y16547619D01*
X10083334Y16547619D01*
X10178572Y16595238D01*
X10226191Y16642857D01*
X11035715Y17071429D02*
X10702381Y17071429D01*
X10702381Y16547619D02*
X10702381Y17547619D01*
X11178572Y17547619D01*
X9083334Y19642857D02*
X9035715Y19595238D01*
X8892858Y19547619D01*
X8797620Y19547619D01*
X8654762Y19595238D01*
X8559524Y19690476D01*
X8511905Y19785714D01*
X8464286Y19976190D01*
X8464286Y20119048D01*
X8511905Y20309524D01*
X8559524Y20404762D01*
X8654762Y20500000D01*
X8797620Y20547619D01*
X8892858Y20547619D01*
X9035715Y20500000D01*
X9083334Y20452381D01*
X9416667Y20547619D02*
X10083334Y20547619D01*
X9654762Y19547619D01*
X15452381Y23904762D02*
X15452381Y23333333D01*
X15452381Y23619047D02*
X14452381Y23619047D01*
X14595238Y23523809D01*
X14690476Y23428571D01*
X14738095Y23333333D01*
X14452381Y24523809D02*
X14452381Y24619048D01*
X14500000Y24714286D01*
X14547619Y24761905D01*
X14642857Y24809524D01*
X14833333Y24857143D01*
X15071429Y24857143D01*
X15261905Y24809524D01*
X15357143Y24761905D01*
X15404762Y24714286D01*
X15452381Y24619048D01*
X15452381Y24523809D01*
X15404762Y24428571D01*
X15357143Y24380952D01*
X15261905Y24333333D01*
X15071429Y24285714D01*
X14833333Y24285714D01*
X14642857Y24333333D01*
X14547619Y24380952D01*
X14500000Y24428571D01*
X14452381Y24523809D01*
X15452381Y25285714D02*
X14452381Y25285714D01*
X15071429Y25380952D02*
X15452381Y25666667D01*
X14785714Y25666667D02*
X15166667Y25285714D01*
D13*
X16726190Y24416667D02*
X16488095Y24250000D01*
X16726190Y24130953D02*
X16226190Y24130953D01*
X16226190Y24321429D01*
X16250000Y24369048D01*
X16273810Y24392857D01*
X16321429Y24416667D01*
X16392857Y24416667D01*
X16440476Y24392857D01*
X16464286Y24369048D01*
X16488095Y24321429D01*
X16488095Y24130953D01*
X16392857Y24845238D02*
X16726190Y24845238D01*
X16202381Y24726191D02*
X16559524Y24607143D01*
X16559524Y24916667D01*
D11*
X15452381Y27404762D02*
X15452381Y26833333D01*
X15452381Y27119047D02*
X14452381Y27119047D01*
X14595238Y27023809D01*
X14690476Y26928571D01*
X14738095Y26833333D01*
X14452381Y28023809D02*
X14452381Y28119048D01*
X14500000Y28214286D01*
X14547619Y28261905D01*
X14642857Y28309524D01*
X14833333Y28357143D01*
X15071429Y28357143D01*
X15261905Y28309524D01*
X15357143Y28261905D01*
X15404762Y28214286D01*
X15452381Y28119048D01*
X15452381Y28023809D01*
X15404762Y27928571D01*
X15357143Y27880952D01*
X15261905Y27833333D01*
X15071429Y27785714D01*
X14833333Y27785714D01*
X14642857Y27833333D01*
X14547619Y27880952D01*
X14500000Y27928571D01*
X14452381Y28023809D01*
X15452381Y28785714D02*
X14452381Y28785714D01*
X15071429Y28880952D02*
X15452381Y29166667D01*
X14785714Y29166667D02*
X15166667Y28785714D01*
D13*
X16726190Y27916667D02*
X16488095Y27750000D01*
X16726190Y27630953D02*
X16226190Y27630953D01*
X16226190Y27821429D01*
X16250000Y27869048D01*
X16273810Y27892857D01*
X16321429Y27916667D01*
X16392857Y27916667D01*
X16440476Y27892857D01*
X16464286Y27869048D01*
X16488095Y27821429D01*
X16488095Y27630953D01*
X16226190Y28369048D02*
X16226190Y28130953D01*
X16464286Y28107143D01*
X16440476Y28130953D01*
X16416667Y28178572D01*
X16416667Y28297619D01*
X16440476Y28345238D01*
X16464286Y28369048D01*
X16511905Y28392857D01*
X16630952Y28392857D01*
X16678571Y28369048D01*
X16702381Y28345238D01*
X16726190Y28297619D01*
X16726190Y28178572D01*
X16702381Y28130953D01*
X16678571Y28107143D01*
D11*
X39080953Y18647619D02*
X38509524Y18647619D01*
X38795238Y18647619D02*
X38795238Y19647619D01*
X38700000Y19504762D01*
X38604762Y19409524D01*
X38509524Y19361905D01*
X39509524Y18647619D02*
X39509524Y19647619D01*
X39604762Y19028571D02*
X39890477Y18647619D01*
X39890477Y19314286D02*
X39509524Y18933333D01*
D13*
X39116667Y20373810D02*
X38950000Y20611905D01*
X38830953Y20373810D02*
X38830953Y20873810D01*
X39021429Y20873810D01*
X39069048Y20850000D01*
X39092857Y20826190D01*
X39116667Y20778571D01*
X39116667Y20707143D01*
X39092857Y20659524D01*
X39069048Y20635714D01*
X39021429Y20611905D01*
X38830953Y20611905D01*
X39545238Y20873810D02*
X39450000Y20873810D01*
X39402381Y20850000D01*
X39378572Y20826190D01*
X39330953Y20754762D01*
X39307143Y20659524D01*
X39307143Y20469048D01*
X39330953Y20421429D01*
X39354762Y20397619D01*
X39402381Y20373810D01*
X39497619Y20373810D01*
X39545238Y20397619D01*
X39569048Y20421429D01*
X39592857Y20469048D01*
X39592857Y20588095D01*
X39569048Y20635714D01*
X39545238Y20659524D01*
X39497619Y20683333D01*
X39402381Y20683333D01*
X39354762Y20659524D01*
X39330953Y20635714D01*
X39307143Y20588095D01*
D11*
X5904762Y16347619D02*
X5333333Y16347619D01*
X5619047Y16347619D02*
X5619047Y17347619D01*
X5523809Y17204762D01*
X5428571Y17109524D01*
X5333333Y17061905D01*
X6523809Y17347619D02*
X6619048Y17347619D01*
X6714286Y17300000D01*
X6761905Y17252381D01*
X6809524Y17157143D01*
X6857143Y16966667D01*
X6857143Y16728571D01*
X6809524Y16538095D01*
X6761905Y16442857D01*
X6714286Y16395238D01*
X6619048Y16347619D01*
X6523809Y16347619D01*
X6428571Y16395238D01*
X6380952Y16442857D01*
X6333333Y16538095D01*
X6285714Y16728571D01*
X6285714Y16966667D01*
X6333333Y17157143D01*
X6380952Y17252381D01*
X6428571Y17300000D01*
X6523809Y17347619D01*
X7285714Y16347619D02*
X7285714Y17347619D01*
X7380952Y16728571D02*
X7666667Y16347619D01*
X7666667Y17014286D02*
X7285714Y16633333D01*
D13*
X6416667Y15073810D02*
X6250000Y15311905D01*
X6130953Y15073810D02*
X6130953Y15573810D01*
X6321429Y15573810D01*
X6369048Y15550000D01*
X6392857Y15526190D01*
X6416667Y15478571D01*
X6416667Y15407143D01*
X6392857Y15359524D01*
X6369048Y15335714D01*
X6321429Y15311905D01*
X6130953Y15311905D01*
X6583334Y15573810D02*
X6916667Y15573810D01*
X6702381Y15073810D01*
D11*
X5904762Y14197619D02*
X5333333Y14197619D01*
X5619047Y14197619D02*
X5619047Y15197619D01*
X5523809Y15054762D01*
X5428571Y14959524D01*
X5333333Y14911905D01*
X6523809Y15197619D02*
X6619048Y15197619D01*
X6714286Y15150000D01*
X6761905Y15102381D01*
X6809524Y15007143D01*
X6857143Y14816667D01*
X6857143Y14578571D01*
X6809524Y14388095D01*
X6761905Y14292857D01*
X6714286Y14245238D01*
X6619048Y14197619D01*
X6523809Y14197619D01*
X6428571Y14245238D01*
X6380952Y14292857D01*
X6333333Y14388095D01*
X6285714Y14578571D01*
X6285714Y14816667D01*
X6333333Y15007143D01*
X6380952Y15102381D01*
X6428571Y15150000D01*
X6523809Y15197619D01*
X7285714Y14197619D02*
X7285714Y15197619D01*
X7380952Y14578571D02*
X7666667Y14197619D01*
X7666667Y14864286D02*
X7285714Y14483333D01*
D13*
X6416667Y12923810D02*
X6250000Y13161905D01*
X6130953Y12923810D02*
X6130953Y13423810D01*
X6321429Y13423810D01*
X6369048Y13400000D01*
X6392857Y13376190D01*
X6416667Y13328571D01*
X6416667Y13257143D01*
X6392857Y13209524D01*
X6369048Y13185714D01*
X6321429Y13161905D01*
X6130953Y13161905D01*
X6702381Y13209524D02*
X6654762Y13233333D01*
X6630953Y13257143D01*
X6607143Y13304762D01*
X6607143Y13328571D01*
X6630953Y13376190D01*
X6654762Y13400000D01*
X6702381Y13423810D01*
X6797619Y13423810D01*
X6845238Y13400000D01*
X6869048Y13376190D01*
X6892857Y13328571D01*
X6892857Y13304762D01*
X6869048Y13257143D01*
X6845238Y13233333D01*
X6797619Y13209524D01*
X6702381Y13209524D01*
X6654762Y13185714D01*
X6630953Y13161905D01*
X6607143Y13114286D01*
X6607143Y13019048D01*
X6630953Y12971429D01*
X6654762Y12947619D01*
X6702381Y12923810D01*
X6797619Y12923810D01*
X6845238Y12947619D01*
X6869048Y12971429D01*
X6892857Y13019048D01*
X6892857Y13114286D01*
X6869048Y13161905D01*
X6845238Y13185714D01*
X6797619Y13209524D01*
M02*
